<mxfile host="app.diagrams.net" modified="2023-03-18T05:47:38.455Z" agent="5.0 (Windows NT 10.0; Win64; x64) AppleWebKit/537.36 (KHTML, like Gecko) Chrome/111.0.0.0 Safari/537.36 Edg/111.0.1661.41" etag="Kp8kn0X0HiklssuaYhoc" version="21.0.6" type="github" pages="9">
  <diagram id="NsIpuY03qp7tXjRxavgE" name="Usecase Overall">
    <mxGraphModel dx="1050" dy="541" grid="1" gridSize="10" guides="1" tooltips="1" connect="1" arrows="1" fold="1" page="1" pageScale="1" pageWidth="850" pageHeight="1100" math="0" shadow="0">
      <root>
        <mxCell id="0" />
        <mxCell id="1" parent="0" />
        <mxCell id="zf8xpFHYyJ7ZQwl_CWJh-2" value="Use case tổng quát" style="shape=umlFrame;whiteSpace=wrap;html=1;width=70;height=30;" parent="1" vertex="1">
          <mxGeometry x="200" y="120" width="380" height="500" as="geometry" />
        </mxCell>
        <mxCell id="zf8xpFHYyJ7ZQwl_CWJh-3" value="Member" style="shape=umlActor;verticalLabelPosition=bottom;verticalAlign=top;html=1;outlineConnect=0;" parent="1" vertex="1">
          <mxGeometry x="110" y="260" width="30" height="60" as="geometry" />
        </mxCell>
        <mxCell id="zf8xpFHYyJ7ZQwl_CWJh-4" value="Manage own account" style="ellipse;whiteSpace=wrap;html=1;spacing=10;" parent="1" vertex="1">
          <mxGeometry x="240" y="340" width="120" height="80" as="geometry" />
        </mxCell>
        <mxCell id="zf8xpFHYyJ7ZQwl_CWJh-5" value="" style="endArrow=none;html=1;rounded=0;entryX=0;entryY=0;entryDx=0;entryDy=0;exitX=1;exitY=0.3333333333333333;exitDx=0;exitDy=0;exitPerimeter=0;" parent="1" source="zf8xpFHYyJ7ZQwl_CWJh-3" target="zf8xpFHYyJ7ZQwl_CWJh-4" edge="1">
          <mxGeometry width="50" height="50" relative="1" as="geometry">
            <mxPoint x="590" y="450" as="sourcePoint" />
            <mxPoint x="640" y="400" as="targetPoint" />
          </mxGeometry>
        </mxCell>
        <mxCell id="zf8xpFHYyJ7ZQwl_CWJh-6" value="Admin" style="shape=umlActor;verticalLabelPosition=bottom;verticalAlign=top;html=1;outlineConnect=0;" parent="1" vertex="1">
          <mxGeometry x="620" y="360" width="30" height="60" as="geometry" />
        </mxCell>
        <mxCell id="zf8xpFHYyJ7ZQwl_CWJh-7" value="" style="endArrow=none;html=1;rounded=0;entryX=0;entryY=0.3333333333333333;entryDx=0;entryDy=0;entryPerimeter=0;" parent="1" source="zf8xpFHYyJ7ZQwl_CWJh-4" target="zf8xpFHYyJ7ZQwl_CWJh-6" edge="1">
          <mxGeometry width="50" height="50" relative="1" as="geometry">
            <mxPoint x="590" y="450" as="sourcePoint" />
            <mxPoint x="640" y="400" as="targetPoint" />
          </mxGeometry>
        </mxCell>
        <mxCell id="zf8xpFHYyJ7ZQwl_CWJh-11" value="View products" style="ellipse;whiteSpace=wrap;html=1;spacing=10;" parent="1" vertex="1">
          <mxGeometry x="250" y="140" width="120" height="80" as="geometry" />
        </mxCell>
        <mxCell id="zf8xpFHYyJ7ZQwl_CWJh-12" value="" style="endArrow=none;html=1;rounded=0;entryX=0;entryY=0.5;entryDx=0;entryDy=0;exitX=1;exitY=0.3333333333333333;exitDx=0;exitDy=0;exitPerimeter=0;" parent="1" source="zf8xpFHYyJ7ZQwl_CWJh-3" target="zf8xpFHYyJ7ZQwl_CWJh-11" edge="1">
          <mxGeometry width="50" height="50" relative="1" as="geometry">
            <mxPoint x="120" y="200" as="sourcePoint" />
            <mxPoint x="640" y="390" as="targetPoint" />
          </mxGeometry>
        </mxCell>
        <mxCell id="zf8xpFHYyJ7ZQwl_CWJh-14" value="Order products" style="ellipse;whiteSpace=wrap;html=1;spacing=10;" parent="1" vertex="1">
          <mxGeometry x="240" y="240" width="120" height="80" as="geometry" />
        </mxCell>
        <mxCell id="zf8xpFHYyJ7ZQwl_CWJh-15" value="" style="endArrow=none;html=1;rounded=0;entryX=1;entryY=0.3333333333333333;entryDx=0;entryDy=0;entryPerimeter=0;exitX=0;exitY=0.5;exitDx=0;exitDy=0;" parent="1" source="zf8xpFHYyJ7ZQwl_CWJh-14" target="zf8xpFHYyJ7ZQwl_CWJh-3" edge="1">
          <mxGeometry width="50" height="50" relative="1" as="geometry">
            <mxPoint x="590" y="440" as="sourcePoint" />
            <mxPoint x="640" y="390" as="targetPoint" />
          </mxGeometry>
        </mxCell>
        <mxCell id="zf8xpFHYyJ7ZQwl_CWJh-16" value="View products by category" style="ellipse;whiteSpace=wrap;html=1;spacing=10;" parent="1" vertex="1">
          <mxGeometry x="450" y="140" width="120" height="80" as="geometry" />
        </mxCell>
        <mxCell id="zf8xpFHYyJ7ZQwl_CWJh-18" value="" style="endArrow=classic;html=1;rounded=0;entryX=1;entryY=0.5;entryDx=0;entryDy=0;exitX=0;exitY=0.5;exitDx=0;exitDy=0;dashed=1;" parent="1" source="zf8xpFHYyJ7ZQwl_CWJh-16" target="zf8xpFHYyJ7ZQwl_CWJh-11" edge="1">
          <mxGeometry width="50" height="50" relative="1" as="geometry">
            <mxPoint x="590" y="410" as="sourcePoint" />
            <mxPoint x="640" y="360" as="targetPoint" />
          </mxGeometry>
        </mxCell>
        <mxCell id="zf8xpFHYyJ7ZQwl_CWJh-19" value="&amp;lt;&amp;lt;extend&amp;gt;&amp;gt;" style="edgeLabel;html=1;align=center;verticalAlign=middle;resizable=0;points=[];" parent="zf8xpFHYyJ7ZQwl_CWJh-18" connectable="0" vertex="1">
          <mxGeometry x="-0.1424" y="-1" relative="1" as="geometry">
            <mxPoint as="offset" />
          </mxGeometry>
        </mxCell>
        <mxCell id="zf8xpFHYyJ7ZQwl_CWJh-22" value="Manage products" style="ellipse;whiteSpace=wrap;html=1;spacing=10;" parent="1" vertex="1">
          <mxGeometry x="400" y="520" width="120" height="80" as="geometry" />
        </mxCell>
        <mxCell id="zf8xpFHYyJ7ZQwl_CWJh-24" value="Manage members" style="ellipse;whiteSpace=wrap;html=1;spacing=10;" parent="1" vertex="1">
          <mxGeometry x="400" y="400" width="120" height="80" as="geometry" />
        </mxCell>
        <mxCell id="zf8xpFHYyJ7ZQwl_CWJh-25" value="" style="endArrow=none;html=1;rounded=0;entryX=0;entryY=0.3333333333333333;entryDx=0;entryDy=0;entryPerimeter=0;exitX=1;exitY=0.5;exitDx=0;exitDy=0;" parent="1" source="zf8xpFHYyJ7ZQwl_CWJh-24" target="zf8xpFHYyJ7ZQwl_CWJh-6" edge="1">
          <mxGeometry width="50" height="50" relative="1" as="geometry">
            <mxPoint x="590" y="400" as="sourcePoint" />
            <mxPoint x="640" y="350" as="targetPoint" />
          </mxGeometry>
        </mxCell>
        <mxCell id="FxphGPI-ak79-QDOByEe-1" value="" style="endArrow=none;html=1;rounded=0;exitX=1;exitY=0.5;exitDx=0;exitDy=0;entryX=0;entryY=0.3333333333333333;entryDx=0;entryDy=0;entryPerimeter=0;" parent="1" source="zf8xpFHYyJ7ZQwl_CWJh-22" target="zf8xpFHYyJ7ZQwl_CWJh-6" edge="1">
          <mxGeometry width="50" height="50" relative="1" as="geometry">
            <mxPoint x="380" y="410" as="sourcePoint" />
            <mxPoint x="430" y="360" as="targetPoint" />
          </mxGeometry>
        </mxCell>
      </root>
    </mxGraphModel>
  </diagram>
  <diagram name="System Overall" id="OCUX5XMJKrk3Rp_TCasj">
    <mxGraphModel dx="875" dy="451" grid="1" gridSize="10" guides="1" tooltips="1" connect="1" arrows="1" fold="1" page="1" pageScale="1" pageWidth="850" pageHeight="1100" math="0" shadow="0">
      <root>
        <mxCell id="0" />
        <mxCell id="1" parent="0" />
        <mxCell id="_58nxckfEhXspt4USto3-45" value="" style="rounded=0;whiteSpace=wrap;html=1;fontSize=12;fillColor=#fff2cc;strokeColor=#d6b656;opacity=50;" parent="1" vertex="1">
          <mxGeometry x="90" y="113" width="740" height="57" as="geometry" />
        </mxCell>
        <mxCell id="_58nxckfEhXspt4USto3-44" value="" style="rounded=0;whiteSpace=wrap;html=1;fontSize=12;fillColor=#fff2cc;strokeColor=#d6b656;opacity=50;" parent="1" vertex="1">
          <mxGeometry x="90" y="190" width="740" height="177" as="geometry" />
        </mxCell>
        <mxCell id="_58nxckfEhXspt4USto3-41" value="" style="rounded=0;whiteSpace=wrap;html=1;fontSize=12;fillColor=#fff2cc;strokeColor=#d6b656;opacity=50;" parent="1" vertex="1">
          <mxGeometry x="90" y="393" width="740" height="177" as="geometry" />
        </mxCell>
        <mxCell id="tjn5yBNVHPXFt7hw008q-3" value="&lt;blockquote style=&quot;margin: 0 0 0 40px; border: none; padding: 0px;&quot;&gt;&lt;span style=&quot;font-size: 18px;&quot;&gt;&lt;b style=&quot;&quot;&gt;&lt;font color=&quot;#61dbfb&quot;&gt;React&lt;/font&gt;&lt;/b&gt;&lt;/span&gt;&lt;/blockquote&gt;" style="rounded=1;whiteSpace=wrap;html=1;align=left;" parent="1" vertex="1">
          <mxGeometry x="580" y="120" width="200" height="120" as="geometry" />
        </mxCell>
        <mxCell id="_58nxckfEhXspt4USto3-1" value="&lt;b&gt;&lt;font style=&quot;font-size: 18px;&quot;&gt;&lt;br&gt;&lt;font color=&quot;#004c99&quot;&gt;Database&lt;/font&gt;&lt;/font&gt;&lt;/b&gt;" style="strokeWidth=2;html=1;shape=mxgraph.flowchart.database;whiteSpace=wrap;fillColor=#dae8fc;strokeColor=#6c8ebf;" parent="1" vertex="1">
          <mxGeometry x="580" y="480" width="200" height="80" as="geometry" />
        </mxCell>
        <mxCell id="_58nxckfEhXspt4USto3-2" value="&lt;p style=&quot;line-height: 100%;&quot;&gt;&lt;/p&gt;&lt;div style=&quot;&quot;&gt;&lt;b style=&quot;background-color: initial;&quot;&gt;&lt;font color=&quot;#6db240&quot;&gt;REST API&lt;/font&gt;&lt;/b&gt;&lt;/div&gt;&lt;div style=&quot;&quot;&gt;&lt;font color=&quot;#6db240&quot;&gt;&lt;b&gt;&lt;br&gt;&lt;/b&gt;&lt;/font&gt;&lt;/div&gt;&lt;font style=&quot;font-weight: bold;&quot; color=&quot;#6db240&quot;&gt;&lt;div style=&quot;&quot;&gt;&lt;span style=&quot;background-color: initial;&quot;&gt;Java Spring Boot&lt;/span&gt;&lt;/div&gt;&lt;/font&gt;&lt;p&gt;&lt;/p&gt;" style="rounded=1;whiteSpace=wrap;html=1;align=center;" parent="1" vertex="1">
          <mxGeometry x="580" y="310" width="200" height="130" as="geometry" />
        </mxCell>
        <mxCell id="_58nxckfEhXspt4USto3-5" value="" style="shape=image;verticalLabelPosition=bottom;labelBackgroundColor=default;verticalAlign=top;aspect=fixed;imageAspect=0;image=https://upload.wikimedia.org/wikipedia/commons/thumb/a/a7/React-icon.svg/1024px-React-icon.svg.png;" parent="1" vertex="1">
          <mxGeometry x="690" y="150" width="69.03" height="60" as="geometry" />
        </mxCell>
        <mxCell id="_58nxckfEhXspt4USto3-8" value="" style="shape=image;verticalLabelPosition=bottom;labelBackgroundColor=default;verticalAlign=top;aspect=fixed;imageAspect=0;image=data:image/webp,UklGRkgdAABXRUJQVlA4IDwdAABwtACdASq+AlABPp1OokulpKOhphHZaLATiWNu/GwYzV9Yscy/P3cgxz6I/d/4f1CLQ/rv7z+//ad2kyN+83PT/uPU3+vvYd88Pow81HnCf+H2Df3zfj/RJ6a3IH/N3/A9VnjVner7r0dp38w/J+ebsl4AX5P5jz+1wLhJ4X/xuunnj/A4/QINVVVVVVVVVVVVVVVVVVVVVVVVVVVVVVVVVVVVVVVVVVVVVVVVVVVVVVVVVVVVVVVVVVVVVVVVVVVVVVVVVVVVVVVVVVVVVVVVVVVVVVVVVVVVVVVVVVVVVUNeXz5NWqNvNqrwd6jUsxpNzMzMzMzMzMzMzMIPCMo9liVC+ZmZmZIEOa+eJiXVm7snoldJyxmZmZmZmZmZmUvaXn5tZ07blVVVVKmvYi1NHcCnTrL2BvpH097bX5h9jNBriWO8bjAPiBnywBLeVlbN+5qyoHIaDKtOvRArbFbgI22sEn4NQQn8QMxHL94B+GllsmQRMHVALUTf0JRIqoL+W+QE5zBux3spB6E1+v1vAipH4cjOcrNsMEdKgVRXC1UsiakgmTwVEuSZ8yPGuOArd/5WEXlV7qAIFoIbGCqMedlwjzRPMVLXnkg3+sOMnexNxPF6GijYs+rIS8EfEMEgXRVyT7tS1ugLqBLZO/QOBxJIp+PywFBFT1eT5tm8ksel8ebPhvFOtb7pOclT+IJeE16VMF/aZjpJ63KjT1T+ZqZsUBoopoUEWFgZ5E1l2U6pRQMtJ2E8+swfaZVibnipJl5h/AcpPmc4QvIcTUGRQcwSSiWomsWY0gOcza1QpL8NCqdeUzLgN+jHIj+3jHYgNO/s+edOot1AVOq2U+jFHWkzlQrFBJSxBQP3CQHOTtL3wRKato4FuaRR+6FCuDn5ZOdz5FXH1MNnK3X+y43yPx3uTgbixfbM+Fmm1yWndOOohaOFb25FRXtQrSLl2C7KwIPdK/iyIXHUU+iaN2qmElplcVZH7ulxf7vJYgqRYTVIRgrcQMAWHWNeRshQjYkDjZtHHDZBHqmpTyzeBIRE8xXRjCZoAnMts8ejyQr2gAs8ltSto2hiNnoCxSsW9KWzM0tYUdVdoTexVXlTEqaKM6c0wm72HXjcSzl1wdaT+MVdTy/IHPE2EnxRFUo13XI9L6yq1RNFJgN2LF9y43+UfE1xRco7i3MdAY+ey6S/DjifLRwIGULX5Jnmm44egkSqDGM/JQXQDEQhXIpW0OYl3VNa4Efp2h6436TwSIVtbAmAI1xf2RMSVwaNid7TXO2GRDbotAW45E0CR6UPBE+03OGybBLxr9uer9Oq8Wsbnr8HgL1L/zysRNoAbzGnI9UVJHM9WDm9/6HZeTldm1/9qfpw9+FIGDoDNwtDM5ey4WQr3NN9p5IdZ2Sa5iWfDcjqTIqXSl3ken5gLqbd5i6GZ+vu/arcR4QjhgvLoNOFSKkPubwjoGnpWTqEa0INu8Vu3uJh6CmDUWJJlOrnmle4hnMZvVsWVFPBTfAvcUhyZBRUl51/XFVO26+wvmSfkFnWYpBTTZ8sTXnrI/12j+a59yZsT/QSm06g/nUDuB2bRhUe1d4V1DjU7Y/vDz3qUG2uO6NyqocK6zLybA5c0BfXQlNSIgR8uZvR2dSEM/2YKpVBzjc1kesbNyqoTJuvTV5yehu/LG4MJ/+PXLgFBogSRm4m4pZLkwN3dzGemnh+e/Kqqq4FE/vOg3H9IiFM05Q2AuBXd5EoocM1o0Afmb+rQ/szMzNbOHM0bAWzMzNKMviOQogTOGgnrPSwJnDQ++Mwyg1VVVVW0szMzMzMzMzMzMzMzMzMzMzMzMzMzMzMzMzMzMzMzMzMzMzMzMzMzMzMzMzMzMzMzMzMzMzMzMzMzMzMzMzMzMzMzMzMzMzMzMzMzMzMzMzMzMzMzMzMzMzMzMzMzMzMzMzMzGAA/v6NwAAAAAAAAAAAAAAAAAAABpXZBH0QQ9rNR7slye8BrnXW5LqYF8FJLtQRi5Hfm2NcM6icZnMG6iJyfKjdyYrBcoVI5iVxxIa+rAAG9ZCGOdF0UbJCoHbHQXt7btPTKISak/siqAIAGz/AI9+FEfS8ptIBmFr3pKYeqKIEN8of75A4oc3rQ0nLOjiyQbhq59+NAudEU72gsye+BxCHsNmGFx45rTnfpxe2YABg7zrmeThWS4RjEbAaLLYrbvIyw6gfXMQbj1IAWnK3Z5u1+q5jrYzXkPKRjjAyNsdB/y/69FS3ROsA29qJ0XzdHczLIyKRrjEH71dg7Sw9Nt6d52MXZaDgzMVtKMylUUNQK2lIjrpxEQZj2flsSCN8fR6LJyhAo2jnWFEuYxcRbhdgF5H1JGcJ76sNPpxWxPvkTfVspPUb5wjtFzraoq+iY80AkBGdlmPQj3hvYf5iW5RbWjKeuEkMnOqC1XDOB+Ujde3b2LmZKMa1AW87J6IGOrgq5JrMLhizsiQsiNsdWoMAFHfRxfa6hYCYM0UJPSLclHKF1PymzPgcpehAbt+gPnpv2gWtEK2q5uc3QKtx4CHf158+nNEFPxl6NY/SZBC/NcHPNftgrDh+CYbVE8GlJMXMUooSomdZFAJdTt+P2dfpo8rdtQoNOgMWRS40kjoudM4qubejGgwLQxp8SeswmMJy3Sa9ukDlOw8qGd28nsP/A7Vz3NBOxuDBGg8WkoPjr14pm//u0R9Do2pWPeOlhso/kn85QqvipKGQB0Q5FR87hnv6YS9JOTyhW3FSu5bKUptTaEE8N52ECauQpR9lz760fRr7qc9vOMhHiOefz8KnyoUVSJwbNB7sLfnr+53Cw4WhpG5GrGRFS4FVFSz95quNxZeEG//aHQMTR7/WuOYUg0Td8dmBi0BfUOz0lhTCGYMjX2NIEdvIxYE9JP7RaE8nmGm9rkttcW1Qtrkwo0hTk6FaFyD/3UMXeV8u06tmDIzWQTVIxHc1VGUUsCUCNaokIeukDG8z4mpqQoKO0XKs+2T2X6fnl4eXcj7ORidyqlQfQCLwa/DbiieiVha4Do4z5x3+8zb6PE0T+GQ/npea6Wb6N2KDzTOwJG7E2Id7aU63cGGV7x53u7KyxYK5dnyFLoNlSnzoW9f7LJ1VrRQHjuuS0tfIUI+mET8c9qgaUGLB49KHVw0gry6WDJwY3ijrUb+VFmzyU6VHR0bNob8oQ+FGXa+fO4uShbpVc328P7ZbdMFgas47QbxKqSeGobLh25vuNMJTDG/Vxl59BIXrFWDFut9J0BKZwL3XIM1Q54/Ljn4Ss5tjEnyDnWvb5ZXAAZZbTIf4JrBoAI9tCC86wd+uLtFHCqGbEgcZphtaBRAsEuqgKLys2QybYgbX9LmudSv0eT0P60glc1kPs2/Ty6zkWV/q5WpNYDIzmeWmVF6VAFA6j7dQ17hU5e8NI8FNZFiigKNjwTf9YZNcRfC911ptv6Mro4R4P/PkxGrXlRr5cyy96iIWj+EnnnTFIYo39s+3I2BNswGHvpDcgMljgRao/JdPL48IAW0Vk5M2TChU3gT530KxlhRHHHt71OFYH1h/KJiEemu2FrloMBxl4vvjHz/BR+LD5jOmQ/r/5TaLJ2AVCTdGNR86DAd3PA0BpM9+K+yb70jKTb8w5tWzj5XZ2dhSALvOJ5HXpOosKfCoY7TIP4xUny2ADrarABrMICuNvSrI8YmZ5Zpy1NwNF8NiImky/+W4HOdqFErcate/T4blgFzeRE8eZRQZstDXOQ0pcBI5afbUqW2XwdWj02tksl5ZxbkLRPmlG4qb5g4VM53kq7oPaCNssGqQSdtRENZzaDzNLuAeiaj9Xmyn4a3Qne14fL3+2DpzK3M81/nGGgE9eo+G5D+hy71kJIkQTqrOldzZUanGn1ljBJTLpmVdg+i7jzjRM70Kd9GIQFqyJS1dX9WgW1UjXCOFU0VCbsrVNYUxFZMxUxD/brKym2UAsFELiAa6aMJyuQoCGY2Nak//NTJitQCfxrttO3iriL/FAbcs94hFvThqp4WN8vr4Z5JEPZrZn9E3U+d3rAlV6tE+HvXR9GTwcHYBdUXGrq4mJMBJ/j/xjxP7crail454OvU8ArZlikhYSe7Wu8VVYSS2CogFIOzFlfPqYa11wU+2Q1Z03JTcqQKlxCf8zTwMF03OXt/qvIvoKXbauRVnktDvZkjs7f93BPm4TIrRdktkZGooc8nTYxjozFd26vFEeUnO8gAcCa/c97RKcwKPBJoGGJfdJXGD11SCqWTQs6l3ikrANuSr1Zgt/NdJ0s6AD9PHJB2lzo4KU4loItAjeMGFhPdtIZkdGh7HnxLzZvVklMf7LRDeDqt616MqEcAjDPDGPynajHf4Dfq2FZ/dap1bTRFer1iuwH6HyqIOyv/BJZ/UM+GadxObsYmvYdGCcfYJGX0j2toFaOr9Pq51sQ135qXc4XH7i6m6FvcpgTCgnJaAtANCt0FfyVCy+W2d5Vqfk28J4GbddvzGOabtVJFY9/CaIUjgeQo/0I39YM/QWF0J8jov2y0BPdcylvHLPirUApBA3FlWLFVXGkG5czwYKhFuTtNNe45+/ZolKOPCtztuwYu4Q434rk3A44rBwRzzmo8/xoVsfIPFBThJeXh61hPjtHBiIwlWkE1dzLPShSe0LRSylKt1w0EVQmH8GpjQod994nEbSVJ7GMGETNhdJA5N5VJqAtElpqxWnNfbAT0m0vX8f5rrYtRcrowAdN4rAbZsh7un7WEw6zbkbIAh9+N2T6vDhA1g8p9y2zMq/xoVGQAxNccZexDebgW29ILEosbBBzE5TdBylot2tq/qKjs1XO5PNxMv2fICuCl+eBYpcXtLJApwoledd+BNLl+BKpi78zLXkg3DLUwMxzUogkkp6dEQdWZbgY8/2ppN2jo+93KJBsjGLS4El2UT0y6tqH+u35Yq6PI1crntHAO1UZkTliETpCnUOsch0RBlU5UzUL6ZKlUFh81wxfZFsApcBOo/+QdSCnF/lRyyhOknN6vGEsEUO0YuPUrd+69sH4uLsQbZYqY8HeDI1LorlXBIHyL2gsBDIRiq+ZbiOkHoZFYV0dZvmCXQwZRaDt2fKrxRnXD5pHgrV0pA0Y0xla6k6U/C1XSZIhBkwtHTuAzDMBRJ6aYGNPO2LNAnUT+81qpSSm7QBb5fUlGG/Vos7IEi84Js8Oiv0L3BszgtGAkvwQEC6WPQwJ61mUF2rOhnWAdF3Qb+22aVMJsDqllTGNdu48EmTVUOqXl8NArocCsnBi3ccWsw0eAGeX+HWZeQTeWm9JD6QkXtWyid2mrArosUPSzV61KRHqZpyZnnbgJ5UiYDr7gri7vPiXPD2cc2/1XeAv4/qYUvIsiEKgmlBc9Q/Mqs+4vxcB4HCetJiThPO7aJ6Ixg9lGWsojepsJ9c+OR52EvRLy2U76+3uOKzL4R86PGFkdhC1wvMItun9Wr7AbbKY7TqwljWB8+r+bE6zHhlHzHc8eQc+VH9tfG3ThEyoASX41iyrnN5lb1Bv8Hv767zLT0SzGOOmNRG89erpv7c5LPkNfJ9DweBDHYX3OYQc9viYbRFJW/PBLk6S2AFO9m+eny/x62RENcOvglz/HFTd/h2ax6pgDbY3rbutISnjkeVuwV+qrjkADAuQ/YulQUEuPULv+xfUbADgvnJiIhaMeMTA8DoJkwAyxICLzb0apRJf+a10Wi8wuqL6CnXMBYinvFjIPgQ6y2ucLl4oidVCzGNnkZdgBjhUbP5Idpzih9rU+sDl0UQPRTafh1Ph98pm/4fp6/uXv94vJaAJ6fl0GhbnZn6NCWtJAo4Pf8Km5QS8/mY6vc2hPtm/RcEgdmEzo8UMfV1h3J8Ly0YxIz1qr5HChX0c/wCEpK8GNgG0fvpJYegXnjRiC2ioqPFf1W2odO53D+CwaYFV2PlhT4Clh1vAxNDZEHrp2LpeLn/jNim+W/jxzAZCCgZCftvW+LBKB9g+YZLaMyum5rjAGwALOz6NOn1wVGjViBwisE0GA0H0UrTi4heKzeyNsqh/ltc24kmR/XmjDvYSUPRygnk/PwBA35GuGSO7TDBVKnBlxuTcmWH8NwYm+POKhwqY/uqHMIvIXhd4lavpyA221gh2fnKS4i4r4vcOM9DCgryxbQf0g1FOyeVOjlvjvZUgMtm+ZC8iHkvWITEUerE5H0ZvTGZUB6CjOMKmo8Z4gK79/zThDLERZOGcXiRNamMkZkxN7z6nQ00w3iEYJzKVE1lq2uC7J1AF4kLNjwYgTn2FbISxj3BbjSjrkY2s3nq066YRH2DEShLp3pDFDucmY/xBWUoE9QGYR3LmUeIMp+Ee8JwEtI41CaPKyZe82h8qIySeeCVK5fvONZCQc2NuyrdII1Z81MWTpc6nvMPsoEgw+eN+234jvUjbWOZ4JCxsOyDZ+7wXTYfRo4Zn1mQb8l0E4+0oXPms/TRj6xY0yKaJ6Zpdncp38PMLLfSJZMOC7dY2TVQYEevmmbGrP2ze2CnpT8qsBOavApo2FaHlBN9n00VRaibeALwl1zbROuBm0iUjxI4vvdS0X3wf/QgBwbsW1juRbQgPkpWLDV9iAbtaOJshHv2KnASJFxf5cABwGmIgAZecemFgwK7klrVcISVGXwiHYmUB4600iSrhG02JkKM7ji2DA40qXCAqNwBXvLq33Gb/OxYE2bXJfFJN9EelAKD+Cu+LCN/gMgFM4hGs1236xMpxi9AzEQRbgT4OdFGON0XcTRzpaskKpXKo8FDq7Jm0almBWFi6sc1WNw7824PGgM5NS7dcAi2Rkuas4MMjGSkUnZJRgdGxs7C7Rl8yZj7yHxQYrUVmcfpFy6GzkNyXD7EskJ1By5nFioE+XPvz8dZG2zFtptTCwK9jMQS1hA+6PEMbWUSjAHDHcbZAu2QSoc3DI48JqwWOcZi7RCgzD4VuV8gvYbZ48AZ7OtGBGNXz84JpAAARqn0cnLsUsUR0VkLWLY1m6Xm0LLQx8J+/kAhFEeQ5Cawr7NuWaolsBSiieQdnEkfoNAXojnRQfbJKt0q4z7mIeQLIroM8mY9V1oHr8wA8Xh7duczbbQ5acx4tI0Vc/xd5bdxv4S2HeaI0JRPqDwTCIrsBrTaGetassmUBCYDdwyAut+cuQjFJ+vG4QWiJTV7eqGuPYGxtHX/m9uf3r54dSn72IZ1tv6ee8P3rs9BF2+W4C0uBEpMQU9TVMrD4AKINuz5R0FzBWHMd/boVsJDfjDgidDoXwz38frOzbfzwOBx0DrXAD+E1k0+TFnKiC+zFt9MJb0+d/SAYNRrJ0dvCDJHiOseyGCPdXBLXLZN58tBAHzXS1WD+0pgTc/Q2NFEFuK3TNawuhIlR5JzZhgbZIYkaVk7fiDncE0pj6FGvUGiKkrR1Sydpea5D+p330ZkRdnhxotNNN16v9eMklHOI0yhAsHrk+3c1lfI29RUu115KvCsW3qDYpu5P8jU+uJgAlF5OEd8z5BBbkQ3r/J8A4QKWPlhCKvHyWbBtINCSy/w27bPXNadLUpM/CgXNQeJwgHgNfB5BG7anr4v5Jf6/uUwEPd2uzk5P1WVkFZENmUzkLsN1+VHzrXx2wVOS/zhWQR9iZdaR13WkjdhBJxGmGTiqz/ffmzNeZbeClG/4NBNqGbEa9VbaMosbfL7LmQyj62UuQwaFn2FDaj5BoQmNi4jRVkRCsdONZ+IQxmuQx7zShlyvZZn1lhyEoLOxPdTX8v6j/ow+OCu3dcuvYyh9fyony/G9FbEPJR2i9n0Qq7wYiktmkx9TZQVHQNxNXLro9we+JgyWCtMuBUJcyR0ZFsAQMorcvPH496jW7+GvmtWRqXeGhl2okPW851oB1ZtWP6O5+sU8CLMUp0Emw316AgFdMHWeilEnY2o3JOBn6MRq7ZuhpIBW3kffOu6BauIGnlBaNDiGW01Y/xZaYf8SgthSPknl4kSqSf1z4vwXRfofW23B7YyH3tf+Hd6jJbmf/kB8qiC/A8TxgT/FZXZ7WTKpJq3wNUT9+0ndE1HET85gO69l4wmlmrNH/4qRfDU9S8UYuQj1HEeBELxEcyNWNg56PBz57Ut9125SSXIrvPtINQ21tMnb/D+V7roi4JfTATDlmk2v9hSJw1hIAlFi7AvcAmV4O9uhEybQzgSL+ks6pWTWghrt9pxkLveHOhpERgAb/eVs/+Qt2iydiVKfFrIorWQDhqhXQVv9ork8g38vjb3qSxqA+fCCQAb9d//fRyDQG1epTgBzjUb3pTjKJh6JrQsjxlE6GQb+DLbsSseZu7KkV7/x3qKAapCw2nfFc4EEHDbjUqK7nP6K7HVSg+Z2XsS6WUmeswRMLeabs2LKIYTUn5lrsZKVFw2foBw9EVIqY2Hn94TTP22pnXhlsesNf9JJJIl6dtMQAwaSefB+6aolTUaUpcyXWRplrPWaLkOd60hZYbTkvg0uCD2C/V7eOAYHGkq/VtL7jDDueQ+f8ZJoh61L+fnTYL7c+BU/x4sojNhd2Mb3NWhlK512HUU807Rxd1bQk93DULPzp2ApbtpNGtvhrLCijebaxGaGwaDa8PEw0HIngft/dHNsIgTUyw9Dtb7BKQ4nmbiJVjCXGk722vFHgwlX1y0HvYzpsJnBh8aQP6E/ZpT1cR/050vJPkaHdbWHvfae7odoxrnN/mkGLCg4D/Vyp9jZr6VVKbggl6ACgGAGNeWuRZFo800iueuNuSMLNbJHoTe+CsX7yEYC69liaKEdOSYoCq33blDqvgdCYZGKGucXwput5MFakkCMqzCBoxShF0p6hxxSMUW3shhFVgWYR07AI+npSVT57F8KoSOWETOYd8NvF6JnY91lTv2aGugKJJEUnvRtxRP7d6X6iSIehElb7ZS+DqO/ZTewoVXOPSoEYFOB0nMoLD6YzKErmoKfqfgQMg/pxNQDD+D4Gjh2mGZPipblq4mQrUpmtfs8ihlOuQLkm9v2eyReWfRxPoF6LMvb2+7B/eHQrt8FkLNrcczHX30KR7LNXM1OQD7Vanxr7scRbAgoiQHRW2Tn+cFsDlV5jNWjXiZh8KwHQlCKPW+UeIGNT7jcpeWS8O2qIU38ZTST5uykQfkA61z4uWvugRFF0tB1/xk1wuxS9eFkojddeTWbRAo3MxqfpgXUQ2D/gWMUkYJ7YvvxFVB8emNtVaIqH596xZ0BJ29VUgyK7ODVZUrPuU2efombZSEktQDdtxJme0/1AmcB4DQ/8MtCHwl+EzZN5M1bKhze5AVrAkHK2BWqzIHD1de282WIozxrjrd/gOxQneDiLCYRUnD10A28AKProe5XzhEQqWrkvKOjEICCoIXy3BH8WbqGqbcu0gGuHvDENukEATfA2fJcX75WpvsPNNkBgD4mGFbhxmir3gK3TkIPJJjUoGM9SSaeOO72gSfkiolpnTJF4CneN5ZW9R+084SeItCQAIzXcKse1d8epxf5xlMWSeQxmh+HES1VH+3Wt7Xo5jQqUdsMzzcJAD4WqhkpZs8iIotkf3aInDYya8TduuhFR5V5aY5j4gZ3VrOqD4/6MEpHaRWE5v6YOZirYqPN1Dtw+d788nYeSqnNGrhlFLMOloiih9y8BGWN+fWu7mcVWZmsfw8EIWjAo/sHQshM98d0aX40dOrVgp8+sBSH6NLLVYLU1tJTvvNnpBqtdHjrAgl+7SJTKENGjG5gX9TRj3KgHyPBA2B/oirwDaMbfFeUrjmNlu8gHnjCqwN76ZW/eU2Vh6d5bVdbgal89/vblK1ESuj6Y43hZCQ8nMCpgyoBhimEwDHYZal+p5bPJRJqSDp4Ko5IE1Y/u4URjI1TL7XG2imlSzrsXI0no1tTntrLh1P2gE8QKC9AFtZw3At3SZumTGMrgB2SIo4/bXXjP7a+0NF12EML3j+GJO8HCzB986djZpIaLOsYAGu4RoRlSX/lFCrxfIsLCyaaQqu25NRA5uAAAAAAAAAAAAAAAAAAAAAAAAAAAAAA==;" parent="1" vertex="1">
          <mxGeometry x="648.21" y="400" width="83.58" height="40" as="geometry" />
        </mxCell>
        <mxCell id="_58nxckfEhXspt4USto3-9" value="" style="endArrow=classic;html=1;rounded=0;fontSize=18;fontColor=#6db240;exitX=0.25;exitY=1;exitDx=0;exitDy=0;entryX=0.25;entryY=0;entryDx=0;entryDy=0;" parent="1" source="tjn5yBNVHPXFt7hw008q-3" target="_58nxckfEhXspt4USto3-2" edge="1">
          <mxGeometry width="50" height="50" relative="1" as="geometry">
            <mxPoint x="750" y="400" as="sourcePoint" />
            <mxPoint x="800" y="350" as="targetPoint" />
          </mxGeometry>
        </mxCell>
        <mxCell id="_58nxckfEhXspt4USto3-10" value="" style="endArrow=classic;html=1;rounded=0;fontSize=18;fontColor=#6db240;exitX=0.75;exitY=0;exitDx=0;exitDy=0;entryX=0.75;entryY=1;entryDx=0;entryDy=0;" parent="1" source="_58nxckfEhXspt4USto3-2" target="tjn5yBNVHPXFt7hw008q-3" edge="1">
          <mxGeometry width="50" height="50" relative="1" as="geometry">
            <mxPoint x="640" y="250" as="sourcePoint" />
            <mxPoint x="640" y="320" as="targetPoint" />
          </mxGeometry>
        </mxCell>
        <mxCell id="_58nxckfEhXspt4USto3-11" value="&lt;b&gt;HTTP Request&lt;br&gt;GET, POST, DELETE, ...&lt;br&gt;&lt;/b&gt;" style="text;html=1;strokeColor=none;fillColor=none;align=right;verticalAlign=middle;whiteSpace=wrap;rounded=0;fontSize=10;fontColor=#000000;" parent="1" vertex="1">
          <mxGeometry x="540" y="260" width="80" height="30" as="geometry" />
        </mxCell>
        <mxCell id="_58nxckfEhXspt4USto3-12" value="&lt;div style=&quot;&quot;&gt;&lt;b&gt;JSON&amp;nbsp;&lt;/b&gt;&lt;b style=&quot;background-color: initial;&quot;&gt;Response&lt;/b&gt;&lt;/div&gt;" style="text;html=1;strokeColor=none;fillColor=none;align=left;verticalAlign=middle;whiteSpace=wrap;rounded=0;fontSize=10;fontColor=#000000;" parent="1" vertex="1">
          <mxGeometry x="740" y="260" width="80" height="30" as="geometry" />
        </mxCell>
        <mxCell id="_58nxckfEhXspt4USto3-13" value="" style="endArrow=classic;html=1;rounded=0;fontSize=18;fontColor=#6db240;exitX=0.25;exitY=1;exitDx=0;exitDy=0;" parent="1" source="_58nxckfEhXspt4USto3-2" edge="1">
          <mxGeometry width="50" height="50" relative="1" as="geometry">
            <mxPoint x="610" y="450" as="sourcePoint" />
            <mxPoint x="630" y="480" as="targetPoint" />
          </mxGeometry>
        </mxCell>
        <mxCell id="_58nxckfEhXspt4USto3-14" value="" style="endArrow=classic;html=1;rounded=0;fontSize=18;fontColor=#6db240;entryX=0.75;entryY=1;entryDx=0;entryDy=0;" parent="1" target="_58nxckfEhXspt4USto3-2" edge="1">
          <mxGeometry width="50" height="50" relative="1" as="geometry">
            <mxPoint x="730" y="480" as="sourcePoint" />
            <mxPoint x="630" y="490" as="targetPoint" />
          </mxGeometry>
        </mxCell>
        <mxCell id="_58nxckfEhXspt4USto3-29" value="&lt;b&gt;React Controller&lt;/b&gt;" style="rounded=1;whiteSpace=wrap;html=1;fontSize=12;fontColor=#ffffff;fillColor=#60a917;strokeColor=#2D7600;" parent="1" vertex="1">
          <mxGeometry x="390" y="200" width="120" height="40" as="geometry" />
        </mxCell>
        <mxCell id="_58nxckfEhXspt4USto3-30" value="&lt;b&gt;React View&lt;/b&gt;" style="rounded=1;whiteSpace=wrap;html=1;fontSize=12;fontColor=#ffffff;fillColor=#60a917;strokeColor=#2D7600;" parent="1" vertex="1">
          <mxGeometry x="390" y="120" width="120" height="40" as="geometry" />
        </mxCell>
        <mxCell id="_58nxckfEhXspt4USto3-31" value="&lt;b&gt;Java Spring Controller&lt;/b&gt;" style="rounded=1;whiteSpace=wrap;html=1;fontSize=12;fontColor=#ffffff;fillColor=#60a917;strokeColor=#2D7600;" parent="1" vertex="1">
          <mxGeometry x="390" y="310" width="120" height="50" as="geometry" />
        </mxCell>
        <mxCell id="_58nxckfEhXspt4USto3-32" value="&lt;b&gt;Java Spring Model&lt;/b&gt;" style="rounded=1;whiteSpace=wrap;html=1;fontSize=12;fontColor=#ffffff;fillColor=#60a917;strokeColor=#2D7600;" parent="1" vertex="1">
          <mxGeometry x="390" y="400" width="120" height="40" as="geometry" />
        </mxCell>
        <mxCell id="_58nxckfEhXspt4USto3-33" value="&lt;b&gt;SQL Server&lt;/b&gt;" style="rounded=1;whiteSpace=wrap;html=1;fontSize=12;fontColor=#ffffff;fillColor=#60a917;strokeColor=#2D7600;" parent="1" vertex="1">
          <mxGeometry x="390" y="480" width="120" height="80" as="geometry" />
        </mxCell>
        <mxCell id="_58nxckfEhXspt4USto3-34" value="" style="endArrow=classic;startArrow=classic;html=1;rounded=0;labelBackgroundColor=none;fontSize=12;fontColor=#000000;entryX=0.5;entryY=1;entryDx=0;entryDy=0;exitX=0.5;exitY=0;exitDx=0;exitDy=0;" parent="1" source="_58nxckfEhXspt4USto3-29" target="_58nxckfEhXspt4USto3-30" edge="1">
          <mxGeometry width="50" height="50" relative="1" as="geometry">
            <mxPoint x="500" y="190" as="sourcePoint" />
            <mxPoint x="490" y="350" as="targetPoint" />
          </mxGeometry>
        </mxCell>
        <mxCell id="_58nxckfEhXspt4USto3-36" value="" style="endArrow=classic;startArrow=classic;html=1;rounded=0;labelBackgroundColor=none;fontSize=12;fontColor=#000000;entryX=0.5;entryY=1;entryDx=0;entryDy=0;exitX=0.5;exitY=0;exitDx=0;exitDy=0;" parent="1" source="_58nxckfEhXspt4USto3-31" target="_58nxckfEhXspt4USto3-29" edge="1">
          <mxGeometry width="50" height="50" relative="1" as="geometry">
            <mxPoint x="449.58" y="290" as="sourcePoint" />
            <mxPoint x="449.58" y="250" as="targetPoint" />
          </mxGeometry>
        </mxCell>
        <mxCell id="_58nxckfEhXspt4USto3-37" value="" style="endArrow=classic;startArrow=classic;html=1;rounded=0;labelBackgroundColor=none;fontSize=12;fontColor=#000000;entryX=0.5;entryY=1;entryDx=0;entryDy=0;exitX=0.5;exitY=0;exitDx=0;exitDy=0;" parent="1" source="_58nxckfEhXspt4USto3-32" target="_58nxckfEhXspt4USto3-31" edge="1">
          <mxGeometry width="50" height="50" relative="1" as="geometry">
            <mxPoint x="430" y="390" as="sourcePoint" />
            <mxPoint x="449.58" y="370" as="targetPoint" />
          </mxGeometry>
        </mxCell>
        <mxCell id="_58nxckfEhXspt4USto3-43" value="" style="endArrow=classic;startArrow=classic;html=1;rounded=0;labelBackgroundColor=none;fontSize=12;fontColor=#000000;entryX=0.5;entryY=1;entryDx=0;entryDy=0;exitX=0.5;exitY=0;exitDx=0;exitDy=0;" parent="1" source="_58nxckfEhXspt4USto3-33" target="_58nxckfEhXspt4USto3-32" edge="1">
          <mxGeometry width="50" height="50" relative="1" as="geometry">
            <mxPoint x="460" y="410" as="sourcePoint" />
            <mxPoint x="460" y="370" as="targetPoint" />
          </mxGeometry>
        </mxCell>
        <mxCell id="_58nxckfEhXspt4USto3-46" value="&lt;b&gt;&lt;font style=&quot;font-size: 10px;&quot;&gt;SQL Query&lt;/font&gt;&lt;/b&gt;" style="text;html=1;strokeColor=none;fillColor=none;align=center;verticalAlign=middle;whiteSpace=wrap;rounded=0;fontSize=12;fontColor=#000000;" parent="1" vertex="1">
          <mxGeometry x="550" y="450" width="80" height="30" as="geometry" />
        </mxCell>
        <mxCell id="_58nxckfEhXspt4USto3-47" value="&lt;b&gt;&lt;font style=&quot;font-size: 10px;&quot;&gt;Data&lt;/font&gt;&lt;/b&gt;" style="text;html=1;strokeColor=none;fillColor=none;align=left;verticalAlign=middle;whiteSpace=wrap;rounded=0;fontSize=12;fontColor=#000000;" parent="1" vertex="1">
          <mxGeometry x="740" y="450" width="80" height="30" as="geometry" />
        </mxCell>
        <mxCell id="s2m8IBrbzDM4gLYaxXU--3" value="" style="group" parent="1" connectable="0" vertex="1">
          <mxGeometry x="10" y="120" width="300" height="440" as="geometry" />
        </mxCell>
        <mxCell id="_58nxckfEhXspt4USto3-15" value="&lt;b&gt;CONTROLLER&lt;/b&gt;" style="rounded=1;whiteSpace=wrap;html=1;fontSize=18;fillColor=#ffe6cc;strokeColor=#d79b00;" parent="s2m8IBrbzDM4gLYaxXU--3" vertex="1">
          <mxGeometry x="105.30973451327435" y="80" width="176.9911504424779" height="160" as="geometry" />
        </mxCell>
        <mxCell id="_58nxckfEhXspt4USto3-16" value="&lt;b&gt;VIEW&lt;/b&gt;" style="rounded=1;whiteSpace=wrap;html=1;fontSize=18;fillColor=#ffe6cc;strokeColor=#d79b00;" parent="s2m8IBrbzDM4gLYaxXU--3" vertex="1">
          <mxGeometry x="105.30973451327435" width="176.9911504424779" height="40" as="geometry" />
        </mxCell>
        <mxCell id="_58nxckfEhXspt4USto3-17" value="&lt;b&gt;MODEL&lt;/b&gt;" style="rounded=1;whiteSpace=wrap;html=1;fontSize=18;fillColor=#ffe6cc;strokeColor=#d79b00;" parent="s2m8IBrbzDM4gLYaxXU--3" vertex="1">
          <mxGeometry x="105.30973451327435" y="280" width="176.9911504424779" height="160" as="geometry" />
        </mxCell>
        <mxCell id="_58nxckfEhXspt4USto3-18" value="" style="endArrow=classic;html=1;rounded=0;labelBackgroundColor=none;fontSize=18;fontColor=#0066CC;exitX=0.5;exitY=0;exitDx=0;exitDy=0;entryX=0.5;entryY=1;entryDx=0;entryDy=0;" parent="s2m8IBrbzDM4gLYaxXU--3" source="_58nxckfEhXspt4USto3-15" target="_58nxckfEhXspt4USto3-16" edge="1">
          <mxGeometry width="50" height="50" relative="1" as="geometry">
            <mxPoint x="468.14159292035396" y="240.00000000000003" as="sourcePoint" />
            <mxPoint x="512.3893805309734" y="190.00000000000003" as="targetPoint" />
          </mxGeometry>
        </mxCell>
        <mxCell id="_58nxckfEhXspt4USto3-19" value="&lt;font color=&quot;#000000&quot; style=&quot;font-size: 12px;&quot;&gt;&lt;b&gt;Send data&lt;/b&gt;&lt;/font&gt;" style="text;html=1;strokeColor=none;fillColor=none;align=left;verticalAlign=middle;whiteSpace=wrap;rounded=0;fontSize=18;fontColor=#0066CC;" parent="s2m8IBrbzDM4gLYaxXU--3" vertex="1">
          <mxGeometry x="202.65486725663717" y="45.00000000000001" width="53.09734513274337" height="30.000000000000004" as="geometry" />
        </mxCell>
        <mxCell id="_58nxckfEhXspt4USto3-20" value="" style="endArrow=classic;html=1;rounded=0;labelBackgroundColor=none;fontSize=12;fontColor=#000000;exitX=0.25;exitY=1;exitDx=0;exitDy=0;entryX=0.25;entryY=0;entryDx=0;entryDy=0;" parent="s2m8IBrbzDM4gLYaxXU--3" source="_58nxckfEhXspt4USto3-15" target="_58nxckfEhXspt4USto3-17" edge="1">
          <mxGeometry width="50" height="50" relative="1" as="geometry">
            <mxPoint x="468.14159292035396" y="240.00000000000003" as="sourcePoint" />
            <mxPoint x="512.3893805309734" y="190.00000000000003" as="targetPoint" />
          </mxGeometry>
        </mxCell>
        <mxCell id="_58nxckfEhXspt4USto3-21" value="&lt;p style=&quot;line-height: 100%;&quot;&gt;&lt;font color=&quot;#000000&quot; style=&quot;font-size: 12px;&quot;&gt;&lt;b&gt;set, get Request&lt;/b&gt;&lt;/font&gt;&lt;/p&gt;" style="text;html=1;strokeColor=none;fillColor=none;align=right;verticalAlign=middle;whiteSpace=wrap;rounded=0;fontSize=18;fontColor=#0066CC;" parent="s2m8IBrbzDM4gLYaxXU--3" vertex="1">
          <mxGeometry x="88.49557522123895" y="243.00000000000006" width="53.09734513274337" height="30.000000000000004" as="geometry" />
        </mxCell>
        <mxCell id="_58nxckfEhXspt4USto3-22" value="" style="endArrow=classic;html=1;rounded=0;labelBackgroundColor=none;fontSize=12;fontColor=#000000;exitX=0.75;exitY=0;exitDx=0;exitDy=0;entryX=0.75;entryY=1;entryDx=0;entryDy=0;" parent="s2m8IBrbzDM4gLYaxXU--3" source="_58nxckfEhXspt4USto3-17" target="_58nxckfEhXspt4USto3-15" edge="1">
          <mxGeometry width="50" height="50" relative="1" as="geometry">
            <mxPoint x="468.14159292035396" y="210.00000000000006" as="sourcePoint" />
            <mxPoint x="512.3893805309734" y="160" as="targetPoint" />
          </mxGeometry>
        </mxCell>
        <mxCell id="_58nxckfEhXspt4USto3-23" value="&lt;p style=&quot;line-height: 100%;&quot;&gt;&lt;font color=&quot;#000000&quot; style=&quot;font-size: 12px;&quot;&gt;&lt;b&gt;Response&lt;/b&gt;&lt;/font&gt;&lt;/p&gt;" style="text;html=1;strokeColor=none;fillColor=none;align=left;verticalAlign=middle;whiteSpace=wrap;rounded=0;fontSize=18;fontColor=#0066CC;" parent="s2m8IBrbzDM4gLYaxXU--3" vertex="1">
          <mxGeometry x="246.90265486725667" y="243.00000000000006" width="53.09734513274337" height="30.000000000000004" as="geometry" />
        </mxCell>
        <mxCell id="_58nxckfEhXspt4USto3-24" value="&lt;font color=&quot;#000000&quot;&gt;&lt;b&gt;Client&lt;/b&gt;&lt;/font&gt;" style="shape=umlActor;verticalLabelPosition=bottom;verticalAlign=top;html=1;outlineConnect=0;fontSize=12;fillColor=#ffe6cc;strokeColor=#d79b00;" parent="s2m8IBrbzDM4gLYaxXU--3" vertex="1">
          <mxGeometry x="2.9700000000000006" y="130" width="31.54" height="60" as="geometry" />
        </mxCell>
        <mxCell id="_58nxckfEhXspt4USto3-25" value="" style="endArrow=classic;html=1;rounded=0;labelBackgroundColor=none;fontSize=12;fontColor=#000000;exitX=0.5;exitY=0.5;exitDx=0;exitDy=0;exitPerimeter=0;entryX=0;entryY=0.5;entryDx=0;entryDy=0;" parent="s2m8IBrbzDM4gLYaxXU--3" source="_58nxckfEhXspt4USto3-24" target="_58nxckfEhXspt4USto3-15" edge="1">
          <mxGeometry width="50" height="50" relative="1" as="geometry">
            <mxPoint x="362.83185840707966" y="280" as="sourcePoint" />
            <mxPoint x="407.0796460176992" y="230.00000000000003" as="targetPoint" />
          </mxGeometry>
        </mxCell>
        <mxCell id="_58nxckfEhXspt4USto3-26" value="" style="endArrow=classic;html=1;rounded=0;labelBackgroundColor=none;fontSize=12;fontColor=#000000;exitX=0;exitY=1;exitDx=0;exitDy=0;entryX=0.75;entryY=0.1;entryDx=0;entryDy=0;entryPerimeter=0;" parent="s2m8IBrbzDM4gLYaxXU--3" source="_58nxckfEhXspt4USto3-16" target="_58nxckfEhXspt4USto3-24" edge="1">
          <mxGeometry width="50" height="50" relative="1" as="geometry">
            <mxPoint x="22.123893805309738" y="180.00000000000003" as="sourcePoint" />
            <mxPoint x="114.15929203539825" y="170.00000000000003" as="targetPoint" />
          </mxGeometry>
        </mxCell>
        <mxCell id="_58nxckfEhXspt4USto3-27" value="&lt;b&gt;Request&lt;/b&gt;" style="text;html=1;strokeColor=none;fillColor=none;align=center;verticalAlign=middle;whiteSpace=wrap;rounded=0;fontSize=12;fontColor=#000000;" parent="s2m8IBrbzDM4gLYaxXU--3" vertex="1">
          <mxGeometry x="34.513274336283196" y="136.00000000000003" width="53.09734513274337" height="30.000000000000004" as="geometry" />
        </mxCell>
        <mxCell id="_58nxckfEhXspt4USto3-28" value="&lt;b&gt;Response&lt;/b&gt;" style="text;html=1;strokeColor=none;fillColor=none;align=center;verticalAlign=middle;whiteSpace=wrap;rounded=0;fontSize=12;fontColor=#000000;rotation=-50;" parent="s2m8IBrbzDM4gLYaxXU--3" vertex="1">
          <mxGeometry x="26.548672566371685" y="70" width="53.09734513274337" height="30.000000000000004" as="geometry" />
        </mxCell>
        <mxCell id="s2m8IBrbzDM4gLYaxXU--4" value="" style="endArrow=none;dashed=1;html=1;dashPattern=1 3;strokeWidth=2;rounded=0;labelBackgroundColor=none;fontSize=10;fontColor=#000000;entryX=1;entryY=0.5;entryDx=0;entryDy=0;" parent="1" target="_58nxckfEhXspt4USto3-30" edge="1">
          <mxGeometry width="50" height="50" relative="1" as="geometry">
            <mxPoint x="580" y="140" as="sourcePoint" />
            <mxPoint x="480" y="300" as="targetPoint" />
          </mxGeometry>
        </mxCell>
        <mxCell id="s2m8IBrbzDM4gLYaxXU--5" value="" style="endArrow=none;dashed=1;html=1;dashPattern=1 3;strokeWidth=2;rounded=0;labelBackgroundColor=none;fontSize=10;fontColor=#000000;entryX=1;entryY=0.5;entryDx=0;entryDy=0;" parent="1" edge="1">
          <mxGeometry width="50" height="50" relative="1" as="geometry">
            <mxPoint x="580" y="219.57999999999998" as="sourcePoint" />
            <mxPoint x="510" y="219.57999999999998" as="targetPoint" />
          </mxGeometry>
        </mxCell>
        <mxCell id="s2m8IBrbzDM4gLYaxXU--6" value="" style="endArrow=none;dashed=1;html=1;dashPattern=1 3;strokeWidth=2;rounded=0;labelBackgroundColor=none;fontSize=10;fontColor=#000000;entryX=1;entryY=0.5;entryDx=0;entryDy=0;" parent="1" edge="1">
          <mxGeometry width="50" height="50" relative="1" as="geometry">
            <mxPoint x="580" y="339.58" as="sourcePoint" />
            <mxPoint x="510" y="339.58" as="targetPoint" />
          </mxGeometry>
        </mxCell>
        <mxCell id="s2m8IBrbzDM4gLYaxXU--7" value="" style="endArrow=none;dashed=1;html=1;dashPattern=1 3;strokeWidth=2;rounded=0;labelBackgroundColor=none;fontSize=10;fontColor=#000000;entryX=1;entryY=0.5;entryDx=0;entryDy=0;" parent="1" edge="1">
          <mxGeometry width="50" height="50" relative="1" as="geometry">
            <mxPoint x="580" y="419.58" as="sourcePoint" />
            <mxPoint x="510" y="419.58" as="targetPoint" />
          </mxGeometry>
        </mxCell>
        <mxCell id="s2m8IBrbzDM4gLYaxXU--8" value="" style="endArrow=none;dashed=1;html=1;dashPattern=1 3;strokeWidth=2;rounded=0;labelBackgroundColor=none;fontSize=10;fontColor=#000000;entryX=1;entryY=0.5;entryDx=0;entryDy=0;" parent="1" edge="1">
          <mxGeometry width="50" height="50" relative="1" as="geometry">
            <mxPoint x="580" y="519.5799999999999" as="sourcePoint" />
            <mxPoint x="510" y="519.5799999999999" as="targetPoint" />
          </mxGeometry>
        </mxCell>
      </root>
    </mxGraphModel>
  </diagram>
  <diagram id="7xTLinNOHiRwtNH22k81" name="Java Spring">
    <mxGraphModel dx="1235" dy="636" grid="1" gridSize="10" guides="1" tooltips="1" connect="1" arrows="1" fold="1" page="1" pageScale="1" pageWidth="1100" pageHeight="850" background="#ffffff" math="0" shadow="0">
      <root>
        <mxCell id="0" />
        <mxCell id="1" parent="0" />
        <mxCell id="a7iW71G4HlYN4YPtjXKb-29" value="" style="rounded=0;whiteSpace=wrap;html=1;fontSize=18;fillColor=#d5e8d4;strokeColor=#82b366;opacity=70;" parent="1" vertex="1">
          <mxGeometry x="10" y="200" width="1080" height="620" as="geometry" />
        </mxCell>
        <mxCell id="b0poU_41qzRzQ2tdoqe--1" value="&lt;b&gt;&lt;font style=&quot;font-size: 18px;&quot;&gt;Java Spring Controller&lt;/font&gt;&lt;/b&gt;" style="rounded=1;whiteSpace=wrap;html=1;fontSize=12;fontColor=#ffffff;fillColor=#60a917;strokeColor=#2D7600;" parent="1" vertex="1">
          <mxGeometry x="30" y="210" width="320" height="80" as="geometry" />
        </mxCell>
        <mxCell id="b0poU_41qzRzQ2tdoqe--2" value="&lt;b&gt;&lt;font style=&quot;font-size: 18px;&quot;&gt;Java Spring Model&lt;/font&gt;&lt;/b&gt;" style="rounded=1;whiteSpace=wrap;html=1;fontSize=12;fontColor=#ffffff;fillColor=#60a917;strokeColor=#2D7600;" parent="1" vertex="1">
          <mxGeometry x="30" y="490" width="320" height="320" as="geometry" />
        </mxCell>
        <mxCell id="b0poU_41qzRzQ2tdoqe--3" value="" style="endArrow=classic;startArrow=classic;html=1;rounded=0;labelBackgroundColor=none;fontSize=12;fontColor=#000000;entryX=0.5;entryY=1;entryDx=0;entryDy=0;exitX=0.5;exitY=0;exitDx=0;exitDy=0;" parent="1" source="b0poU_41qzRzQ2tdoqe--2" target="b0poU_41qzRzQ2tdoqe--1" edge="1">
          <mxGeometry width="50" height="50" relative="1" as="geometry">
            <mxPoint x="70" y="290" as="sourcePoint" />
            <mxPoint x="89.57999999999998" y="270" as="targetPoint" />
          </mxGeometry>
        </mxCell>
        <mxCell id="b0poU_41qzRzQ2tdoqe--4" value="&lt;b&gt;&lt;font style=&quot;font-size: 18px;&quot;&gt;RestController&lt;/font&gt;&lt;/b&gt;" style="rounded=1;whiteSpace=wrap;html=1;fontSize=12;fontColor=#ffffff;fillColor=#60a917;strokeColor=#2D7600;" parent="1" vertex="1">
          <mxGeometry x="430" y="210" width="320" height="80" as="geometry" />
        </mxCell>
        <mxCell id="b0poU_41qzRzQ2tdoqe--6" value="&lt;b&gt;&lt;font style=&quot;font-size: 18px;&quot;&gt;Service&lt;/font&gt;&lt;/b&gt;" style="rounded=1;whiteSpace=wrap;html=1;fontSize=12;fontColor=#ffffff;fillColor=#60a917;strokeColor=#2D7600;" parent="1" vertex="1">
          <mxGeometry x="430" y="490" width="320" height="120" as="geometry" />
        </mxCell>
        <mxCell id="b0poU_41qzRzQ2tdoqe--8" value="&lt;b&gt;&lt;font style=&quot;font-size: 18px;&quot;&gt;Repository&lt;/font&gt;&lt;/b&gt;" style="rounded=1;whiteSpace=wrap;html=1;fontSize=12;fontColor=#ffffff;fillColor=#60a917;strokeColor=#2D7600;" parent="1" vertex="1">
          <mxGeometry x="430" y="690" width="320" height="120" as="geometry" />
        </mxCell>
        <mxCell id="b0poU_41qzRzQ2tdoqe--9" value="" style="endArrow=none;dashed=1;html=1;dashPattern=1 3;strokeWidth=2;rounded=0;exitX=0;exitY=0.5;exitDx=0;exitDy=0;" parent="1" source="b0poU_41qzRzQ2tdoqe--6" edge="1">
          <mxGeometry width="50" height="50" relative="1" as="geometry">
            <mxPoint x="570" y="550" as="sourcePoint" />
            <mxPoint x="350" y="550" as="targetPoint" />
          </mxGeometry>
        </mxCell>
        <mxCell id="b0poU_41qzRzQ2tdoqe--10" value="" style="endArrow=none;dashed=1;html=1;dashPattern=1 3;strokeWidth=2;rounded=0;exitX=0;exitY=0.5;exitDx=0;exitDy=0;entryX=1;entryY=0.813;entryDx=0;entryDy=0;entryPerimeter=0;" parent="1" source="b0poU_41qzRzQ2tdoqe--8" target="b0poU_41qzRzQ2tdoqe--2" edge="1">
          <mxGeometry width="50" height="50" relative="1" as="geometry">
            <mxPoint x="440" y="440" as="sourcePoint" />
            <mxPoint x="359" y="440" as="targetPoint" />
          </mxGeometry>
        </mxCell>
        <mxCell id="b0poU_41qzRzQ2tdoqe--12" value="&lt;a href=&quot;https://viblo.asia/p/luong-di-trong-spring-boot-ORNZqdELK0n&quot;&gt;Luồng đi trong Spring Boot (viblo.asia)&lt;/a&gt;" style="rounded=0;whiteSpace=wrap;html=1;fontSize=18;" parent="1" vertex="1">
          <mxGeometry x="40" y="40" width="360" height="40" as="geometry" />
        </mxCell>
        <mxCell id="b0poU_41qzRzQ2tdoqe--13" value="" style="endArrow=none;dashed=1;html=1;dashPattern=1 3;strokeWidth=2;rounded=0;exitX=0;exitY=0.5;exitDx=0;exitDy=0;entryX=1;entryY=0.5;entryDx=0;entryDy=0;" parent="1" source="b0poU_41qzRzQ2tdoqe--4" target="b0poU_41qzRzQ2tdoqe--1" edge="1">
          <mxGeometry width="50" height="50" relative="1" as="geometry">
            <mxPoint x="440" y="440" as="sourcePoint" />
            <mxPoint x="359" y="440" as="targetPoint" />
          </mxGeometry>
        </mxCell>
        <mxCell id="a7iW71G4HlYN4YPtjXKb-1" value="" style="endArrow=classic;html=1;rounded=0;fontSize=18;exitX=0.25;exitY=1;exitDx=0;exitDy=0;entryX=0.25;entryY=0;entryDx=0;entryDy=0;" parent="1" source="b0poU_41qzRzQ2tdoqe--4" target="b0poU_41qzRzQ2tdoqe--6" edge="1">
          <mxGeometry width="50" height="50" relative="1" as="geometry">
            <mxPoint x="580" y="510" as="sourcePoint" />
            <mxPoint x="630" y="460" as="targetPoint" />
          </mxGeometry>
        </mxCell>
        <mxCell id="a7iW71G4HlYN4YPtjXKb-2" value="" style="endArrow=classic;html=1;rounded=0;fontSize=18;exitX=0.25;exitY=1;exitDx=0;exitDy=0;entryX=0.25;entryY=0;entryDx=0;entryDy=0;" parent="1" source="b0poU_41qzRzQ2tdoqe--6" target="b0poU_41qzRzQ2tdoqe--8" edge="1">
          <mxGeometry width="50" height="50" relative="1" as="geometry">
            <mxPoint x="520" y="300" as="sourcePoint" />
            <mxPoint x="520" y="380" as="targetPoint" />
          </mxGeometry>
        </mxCell>
        <mxCell id="a7iW71G4HlYN4YPtjXKb-3" value="" style="endArrow=classic;html=1;rounded=0;fontSize=18;exitX=0.75;exitY=0;exitDx=0;exitDy=0;entryX=0.75;entryY=1;entryDx=0;entryDy=0;" parent="1" source="b0poU_41qzRzQ2tdoqe--8" target="b0poU_41qzRzQ2tdoqe--6" edge="1">
          <mxGeometry width="50" height="50" relative="1" as="geometry">
            <mxPoint x="520" y="500" as="sourcePoint" />
            <mxPoint x="520" y="700" as="targetPoint" />
          </mxGeometry>
        </mxCell>
        <mxCell id="a7iW71G4HlYN4YPtjXKb-4" value="" style="endArrow=classic;html=1;rounded=0;fontSize=18;exitX=0.75;exitY=0;exitDx=0;exitDy=0;entryX=0.75;entryY=1;entryDx=0;entryDy=0;" parent="1" source="b0poU_41qzRzQ2tdoqe--6" target="b0poU_41qzRzQ2tdoqe--4" edge="1">
          <mxGeometry width="50" height="50" relative="1" as="geometry">
            <mxPoint x="680" y="700" as="sourcePoint" />
            <mxPoint x="680" y="500" as="targetPoint" />
          </mxGeometry>
        </mxCell>
        <mxCell id="a7iW71G4HlYN4YPtjXKb-5" value="call" style="text;html=1;strokeColor=none;fillColor=none;align=right;verticalAlign=middle;whiteSpace=wrap;rounded=0;fontSize=18;fontStyle=1" parent="1" vertex="1">
          <mxGeometry x="440" y="320" width="60" height="30" as="geometry" />
        </mxCell>
        <mxCell id="a7iW71G4HlYN4YPtjXKb-6" value="call" style="text;html=1;strokeColor=none;fillColor=none;align=right;verticalAlign=middle;whiteSpace=wrap;rounded=0;fontSize=18;fontStyle=1" parent="1" vertex="1">
          <mxGeometry x="440" y="632" width="60" height="30" as="geometry" />
        </mxCell>
        <mxCell id="a7iW71G4HlYN4YPtjXKb-8" value="return ObjectModel" style="text;html=1;strokeColor=none;fillColor=none;align=left;verticalAlign=middle;whiteSpace=wrap;rounded=0;fontSize=18;fontStyle=1" parent="1" vertex="1">
          <mxGeometry x="680" y="320" width="140" height="30" as="geometry" />
        </mxCell>
        <mxCell id="a7iW71G4HlYN4YPtjXKb-9" value="return Object" style="text;html=1;strokeColor=none;fillColor=none;align=left;verticalAlign=middle;whiteSpace=wrap;rounded=0;fontSize=18;fontStyle=1" parent="1" vertex="1">
          <mxGeometry x="680" y="632" width="120" height="30" as="geometry" />
        </mxCell>
        <mxCell id="a7iW71G4HlYN4YPtjXKb-10" value="convert Object to ObjectModel" style="text;html=1;strokeColor=none;fillColor=none;align=left;verticalAlign=middle;whiteSpace=wrap;rounded=0;fontSize=18;fontStyle=1" parent="1" vertex="1">
          <mxGeometry x="680" y="430" width="110" height="30" as="geometry" />
        </mxCell>
        <mxCell id="a7iW71G4HlYN4YPtjXKb-12" value="User" style="swimlane;childLayout=stackLayout;horizontal=1;startSize=30;horizontalStack=0;rounded=1;fontSize=14;fontStyle=1;strokeWidth=2;resizeParent=0;resizeLast=1;shadow=0;dashed=0;align=center;fillColor=#1ba1e2;fontColor=#ffffff;strokeColor=#006EAF;" parent="1" vertex="1">
          <mxGeometry x="860" y="600" width="180" height="100" as="geometry" />
        </mxCell>
        <mxCell id="a7iW71G4HlYN4YPtjXKb-13" value="+ id = &quot;00&quot;&#xa;+ name = &quot;NVA&quot;&#xa;+ townID = &quot;001&quot;&#xa;+ password = &quot;123456789&quot;" style="align=left;strokeColor=none;fillColor=none;spacingLeft=4;fontSize=12;verticalAlign=top;resizable=0;rotatable=0;part=1;" parent="a7iW71G4HlYN4YPtjXKb-12" vertex="1">
          <mxGeometry y="30" width="180" height="70" as="geometry" />
        </mxCell>
        <mxCell id="a7iW71G4HlYN4YPtjXKb-14" value="UserModel" style="swimlane;childLayout=stackLayout;horizontal=1;startSize=30;horizontalStack=0;rounded=1;fontSize=14;fontStyle=1;strokeWidth=2;resizeParent=0;resizeLast=1;shadow=0;dashed=0;align=center;fillColor=#1ba1e2;fontColor=#ffffff;strokeColor=#006EAF;" parent="1" vertex="1">
          <mxGeometry x="860" y="290" width="180" height="90" as="geometry" />
        </mxCell>
        <mxCell id="a7iW71G4HlYN4YPtjXKb-15" value="+ id = &quot;00&quot;&#xa;+ name = &quot;NVA&quot;&#xa;+ town = &quot;Da Nang&quot;" style="align=left;strokeColor=none;fillColor=none;spacingLeft=4;fontSize=12;verticalAlign=top;resizable=0;rotatable=0;part=1;" parent="a7iW71G4HlYN4YPtjXKb-14" vertex="1">
          <mxGeometry y="30" width="180" height="60" as="geometry" />
        </mxCell>
        <mxCell id="a7iW71G4HlYN4YPtjXKb-17" value="" style="shape=step;perimeter=stepPerimeter;whiteSpace=wrap;html=1;fixedSize=1;fontSize=18;fillColor=#1ba1e2;fontColor=#ffffff;strokeColor=#006EAF;" parent="1" vertex="1">
          <mxGeometry x="825" y="405" width="250" height="80" as="geometry" />
        </mxCell>
        <mxCell id="a7iW71G4HlYN4YPtjXKb-18" value="&lt;p style=&quot;line-height: 170%;&quot;&gt;password&lt;br&gt;townID&lt;/p&gt;" style="text;html=1;strokeColor=none;fillColor=#1ba1e2;align=left;verticalAlign=middle;whiteSpace=wrap;rounded=0;fontSize=18;fontColor=#ffffff;" parent="1" vertex="1">
          <mxGeometry x="870" y="420" width="90" height="50" as="geometry" />
        </mxCell>
        <mxCell id="a7iW71G4HlYN4YPtjXKb-19" value="&lt;p style=&quot;line-height: 170%;&quot;&gt;&lt;br&gt;town&lt;/p&gt;" style="text;html=1;strokeColor=none;fillColor=#1ba1e2;align=left;verticalAlign=middle;whiteSpace=wrap;rounded=0;fontSize=18;fontColor=#ffffff;" parent="1" vertex="1">
          <mxGeometry x="1020" y="420" width="40" height="50" as="geometry" />
        </mxCell>
        <mxCell id="a7iW71G4HlYN4YPtjXKb-20" value="" style="endArrow=classic;html=1;rounded=0;fontSize=18;fillColor=#1ba1e2;strokeColor=#000066;" parent="1" edge="1">
          <mxGeometry width="50" height="50" relative="1" as="geometry">
            <mxPoint x="960" y="430" as="sourcePoint" />
            <mxPoint x="1010" y="430" as="targetPoint" />
          </mxGeometry>
        </mxCell>
        <mxCell id="a7iW71G4HlYN4YPtjXKb-21" value="" style="endArrow=classic;html=1;rounded=0;fontSize=18;fillColor=#1ba1e2;strokeColor=#000066;" parent="1" edge="1">
          <mxGeometry width="50" height="50" relative="1" as="geometry">
            <mxPoint x="960" y="460" as="sourcePoint" />
            <mxPoint x="1010" y="460" as="targetPoint" />
          </mxGeometry>
        </mxCell>
        <mxCell id="a7iW71G4HlYN4YPtjXKb-22" value="" style="endArrow=classic;html=1;rounded=0;fontSize=18;exitX=0.5;exitY=0;exitDx=0;exitDy=0;entryX=0.5;entryY=1;entryDx=0;entryDy=0;" parent="1" source="a7iW71G4HlYN4YPtjXKb-12" target="a7iW71G4HlYN4YPtjXKb-17" edge="1">
          <mxGeometry width="50" height="50" relative="1" as="geometry">
            <mxPoint x="470" y="450" as="sourcePoint" />
            <mxPoint x="1000" y="510" as="targetPoint" />
          </mxGeometry>
        </mxCell>
        <mxCell id="a7iW71G4HlYN4YPtjXKb-24" value="" style="endArrow=classic;html=1;rounded=0;fontSize=18;exitX=0.5;exitY=0;exitDx=0;exitDy=0;entryX=0.5;entryY=1;entryDx=0;entryDy=0;" parent="1" source="a7iW71G4HlYN4YPtjXKb-17" target="a7iW71G4HlYN4YPtjXKb-15" edge="1">
          <mxGeometry width="50" height="50" relative="1" as="geometry">
            <mxPoint x="960" y="610" as="sourcePoint" />
            <mxPoint x="960" y="495" as="targetPoint" />
          </mxGeometry>
        </mxCell>
        <mxCell id="a7iW71G4HlYN4YPtjXKb-25" value="" style="endArrow=none;dashed=1;html=1;dashPattern=1 3;strokeWidth=2;rounded=0;fontSize=18;exitX=0;exitY=0.25;exitDx=0;exitDy=0;entryX=1;entryY=0.5;entryDx=0;entryDy=0;" parent="1" source="a7iW71G4HlYN4YPtjXKb-13" target="a7iW71G4HlYN4YPtjXKb-9" edge="1">
          <mxGeometry width="50" height="50" relative="1" as="geometry">
            <mxPoint x="470" y="470" as="sourcePoint" />
            <mxPoint x="520" y="420" as="targetPoint" />
          </mxGeometry>
        </mxCell>
        <mxCell id="a7iW71G4HlYN4YPtjXKb-28" value="" style="endArrow=none;dashed=1;html=1;dashPattern=1 3;strokeWidth=2;rounded=0;fontSize=18;exitX=0;exitY=0.25;exitDx=0;exitDy=0;entryX=0.75;entryY=1;entryDx=0;entryDy=0;" parent="1" target="a7iW71G4HlYN4YPtjXKb-8" edge="1">
          <mxGeometry width="50" height="50" relative="1" as="geometry">
            <mxPoint x="860" y="349.75" as="sourcePoint" />
            <mxPoint x="800" y="348.75" as="targetPoint" />
          </mxGeometry>
        </mxCell>
        <mxCell id="a7iW71G4HlYN4YPtjXKb-30" value="&lt;b&gt;&lt;font style=&quot;font-size: 36px;&quot;&gt;VIEW&lt;/font&gt;&lt;/b&gt;" style="rounded=1;whiteSpace=wrap;html=1;fontSize=18;fillColor=#1ba1e2;fontColor=#ffffff;strokeColor=#006EAF;" parent="1" vertex="1">
          <mxGeometry x="10" y="110" width="1080" height="60" as="geometry" />
        </mxCell>
        <mxCell id="a7iW71G4HlYN4YPtjXKb-31" value="&lt;b&gt;&lt;font style=&quot;font-size: 36px;&quot;&gt;DATABASE&lt;/font&gt;&lt;/b&gt;" style="rounded=1;whiteSpace=wrap;html=1;fontSize=18;fillColor=#1ba1e2;fontColor=#ffffff;strokeColor=#006EAF;" parent="1" vertex="1">
          <mxGeometry x="10" y="860" width="1080" height="60" as="geometry" />
        </mxCell>
        <mxCell id="a7iW71G4HlYN4YPtjXKb-32" value="" style="endArrow=classic;startArrow=classic;html=1;rounded=0;fontSize=36;entryX=0.5;entryY=1;entryDx=0;entryDy=0;exitX=0.5;exitY=0;exitDx=0;exitDy=0;" parent="1" source="a7iW71G4HlYN4YPtjXKb-31" target="a7iW71G4HlYN4YPtjXKb-29" edge="1">
          <mxGeometry width="50" height="50" relative="1" as="geometry">
            <mxPoint x="600" y="840" as="sourcePoint" />
            <mxPoint x="610" y="600" as="targetPoint" />
          </mxGeometry>
        </mxCell>
        <mxCell id="a7iW71G4HlYN4YPtjXKb-33" value="" style="endArrow=classic;startArrow=classic;html=1;rounded=0;fontSize=36;entryX=0.5;entryY=1;entryDx=0;entryDy=0;exitX=0.5;exitY=0;exitDx=0;exitDy=0;" parent="1" source="a7iW71G4HlYN4YPtjXKb-29" target="a7iW71G4HlYN4YPtjXKb-30" edge="1">
          <mxGeometry width="50" height="50" relative="1" as="geometry">
            <mxPoint x="560" y="870" as="sourcePoint" />
            <mxPoint x="560" y="830" as="targetPoint" />
          </mxGeometry>
        </mxCell>
        <mxCell id="a7iW71G4HlYN4YPtjXKb-34" value="" style="endArrow=classic;html=1;rounded=0;fontSize=36;entryX=0.5;entryY=1;entryDx=0;entryDy=0;exitX=0.87;exitY=0;exitDx=0;exitDy=0;exitPerimeter=0;" parent="1" source="a7iW71G4HlYN4YPtjXKb-31" target="a7iW71G4HlYN4YPtjXKb-13" edge="1">
          <mxGeometry width="50" height="50" relative="1" as="geometry">
            <mxPoint x="560" y="560" as="sourcePoint" />
            <mxPoint x="610" y="510" as="targetPoint" />
          </mxGeometry>
        </mxCell>
        <mxCell id="a7iW71G4HlYN4YPtjXKb-35" value="" style="endArrow=classic;html=1;rounded=0;fontSize=36;exitX=0.5;exitY=0;exitDx=0;exitDy=0;entryX=0.871;entryY=1.011;entryDx=0;entryDy=0;entryPerimeter=0;" parent="1" source="a7iW71G4HlYN4YPtjXKb-14" target="a7iW71G4HlYN4YPtjXKb-30" edge="1">
          <mxGeometry width="50" height="50" relative="1" as="geometry">
            <mxPoint x="960" y="260" as="sourcePoint" />
            <mxPoint x="1000" y="190" as="targetPoint" />
          </mxGeometry>
        </mxCell>
        <mxCell id="a7iW71G4HlYN4YPtjXKb-37" value="&lt;font color=&quot;#000066&quot; style=&quot;font-size: 24px;&quot;&gt;X&lt;/font&gt;" style="text;html=1;strokeColor=none;fillColor=none;align=center;verticalAlign=middle;whiteSpace=wrap;rounded=0;fontSize=36;" parent="1" vertex="1">
          <mxGeometry x="968" y="422" width="30" height="10" as="geometry" />
        </mxCell>
      </root>
    </mxGraphModel>
  </diagram>
  <diagram id="iPZ0iY4RI3WoV_chDE2W" name="Class Diagram">
    <mxGraphModel dx="1615" dy="832" grid="1" gridSize="10" guides="1" tooltips="1" connect="1" arrows="1" fold="1" page="1" pageScale="1" pageWidth="1100" pageHeight="850" math="0" shadow="0">
      <root>
        <mxCell id="0" />
        <mxCell id="1" parent="0" />
        <mxCell id="_n6Fs-lLgKocLt4zIJW7-1" value="Customer" style="swimlane;fontStyle=1;align=center;verticalAlign=top;childLayout=stackLayout;horizontal=1;startSize=26;horizontalStack=0;resizeParent=1;resizeParentMax=0;resizeLast=0;collapsible=1;marginBottom=0;whiteSpace=wrap;html=1;" parent="1" vertex="1">
          <mxGeometry x="180" y="80" width="220" height="424" as="geometry" />
        </mxCell>
        <mxCell id="_n6Fs-lLgKocLt4zIJW7-2" value="- customerId" style="text;strokeColor=none;fillColor=none;align=left;verticalAlign=top;spacingLeft=4;spacingRight=4;overflow=hidden;rotatable=0;points=[[0,0.5],[1,0.5]];portConstraint=eastwest;whiteSpace=wrap;html=1;" parent="_n6Fs-lLgKocLt4zIJW7-1" vertex="1">
          <mxGeometry y="26" width="220" height="26" as="geometry" />
        </mxCell>
        <mxCell id="QaIYomZ6SFpR4bQMn5BJ-1" value="- gender" style="text;strokeColor=none;fillColor=none;align=left;verticalAlign=top;spacingLeft=4;spacingRight=4;overflow=hidden;rotatable=0;points=[[0,0.5],[1,0.5]];portConstraint=eastwest;whiteSpace=wrap;html=1;" parent="_n6Fs-lLgKocLt4zIJW7-1" vertex="1">
          <mxGeometry y="52" width="220" height="26" as="geometry" />
        </mxCell>
        <mxCell id="nxYJjYxFYWWq8bHop2z_-1" value="- email" style="text;strokeColor=none;fillColor=none;align=left;verticalAlign=top;spacingLeft=4;spacingRight=4;overflow=hidden;rotatable=0;points=[[0,0.5],[1,0.5]];portConstraint=eastwest;whiteSpace=wrap;html=1;" parent="_n6Fs-lLgKocLt4zIJW7-1" vertex="1">
          <mxGeometry y="78" width="220" height="26" as="geometry" />
        </mxCell>
        <mxCell id="Z33dPGruQnweBCgpUFCJ-1" value="- dateOfBirth" style="text;strokeColor=none;fillColor=none;align=left;verticalAlign=top;spacingLeft=4;spacingRight=4;overflow=hidden;rotatable=0;points=[[0,0.5],[1,0.5]];portConstraint=eastwest;whiteSpace=wrap;html=1;" parent="_n6Fs-lLgKocLt4zIJW7-1" vertex="1">
          <mxGeometry y="104" width="220" height="26" as="geometry" />
        </mxCell>
        <mxCell id="3qAyETeKV4LifIVxOtX2-19" value="- homeAddress" style="text;strokeColor=none;fillColor=none;align=left;verticalAlign=top;spacingLeft=4;spacingRight=4;overflow=hidden;rotatable=0;points=[[0,0.5],[1,0.5]];portConstraint=eastwest;whiteSpace=wrap;html=1;" parent="_n6Fs-lLgKocLt4zIJW7-1" vertex="1">
          <mxGeometry y="130" width="220" height="26" as="geometry" />
        </mxCell>
        <mxCell id="-KWN-hZEeQazdBWXYcOs-1" value="- _password" style="text;strokeColor=none;fillColor=none;align=left;verticalAlign=top;spacingLeft=4;spacingRight=4;overflow=hidden;rotatable=0;points=[[0,0.5],[1,0.5]];portConstraint=eastwest;whiteSpace=wrap;html=1;" parent="_n6Fs-lLgKocLt4zIJW7-1" vertex="1">
          <mxGeometry y="156" width="220" height="26" as="geometry" />
        </mxCell>
        <mxCell id="3qAyETeKV4LifIVxOtX2-3" value="- cart" style="text;strokeColor=none;fillColor=none;align=left;verticalAlign=top;spacingLeft=4;spacingRight=4;overflow=hidden;rotatable=0;points=[[0,0.5],[1,0.5]];portConstraint=eastwest;whiteSpace=wrap;html=1;" parent="_n6Fs-lLgKocLt4zIJW7-1" vertex="1">
          <mxGeometry y="182" width="220" height="26" as="geometry" />
        </mxCell>
        <mxCell id="3qAyETeKV4LifIVxOtX2-4" value="- orders" style="text;strokeColor=none;fillColor=none;align=left;verticalAlign=top;spacingLeft=4;spacingRight=4;overflow=hidden;rotatable=0;points=[[0,0.5],[1,0.5]];portConstraint=eastwest;whiteSpace=wrap;html=1;" parent="_n6Fs-lLgKocLt4zIJW7-1" vertex="1">
          <mxGeometry y="208" width="220" height="26" as="geometry" />
        </mxCell>
        <mxCell id="3qAyETeKV4LifIVxOtX2-9" value="- deliveryAddresses" style="text;strokeColor=none;fillColor=none;align=left;verticalAlign=top;spacingLeft=4;spacingRight=4;overflow=hidden;rotatable=0;points=[[0,0.5],[1,0.5]];portConstraint=eastwest;whiteSpace=wrap;html=1;" parent="_n6Fs-lLgKocLt4zIJW7-1" vertex="1">
          <mxGeometry y="234" width="220" height="26" as="geometry" />
        </mxCell>
        <mxCell id="_n6Fs-lLgKocLt4zIJW7-3" value="" style="line;strokeWidth=1;fillColor=none;align=left;verticalAlign=middle;spacingTop=-1;spacingLeft=3;spacingRight=3;rotatable=0;labelPosition=right;points=[];portConstraint=eastwest;strokeColor=inherit;" parent="_n6Fs-lLgKocLt4zIJW7-1" vertex="1">
          <mxGeometry y="260" width="220" height="8" as="geometry" />
        </mxCell>
        <mxCell id="3qAyETeKV4LifIVxOtX2-5" value="+ Cart()" style="text;strokeColor=none;fillColor=none;align=left;verticalAlign=top;spacingLeft=4;spacingRight=4;overflow=hidden;rotatable=0;points=[[0,0.5],[1,0.5]];portConstraint=eastwest;whiteSpace=wrap;html=1;" parent="_n6Fs-lLgKocLt4zIJW7-1" vertex="1">
          <mxGeometry y="268" width="220" height="26" as="geometry" />
        </mxCell>
        <mxCell id="3qAyETeKV4LifIVxOtX2-7" value="+ makeOrder(order)" style="text;strokeColor=none;fillColor=none;align=left;verticalAlign=top;spacingLeft=4;spacingRight=4;overflow=hidden;rotatable=0;points=[[0,0.5],[1,0.5]];portConstraint=eastwest;whiteSpace=wrap;html=1;" parent="_n6Fs-lLgKocLt4zIJW7-1" vertex="1">
          <mxGeometry y="294" width="220" height="26" as="geometry" />
        </mxCell>
        <mxCell id="3qAyETeKV4LifIVxOtX2-8" value="+ cancelOrder(order)" style="text;strokeColor=none;fillColor=none;align=left;verticalAlign=top;spacingLeft=4;spacingRight=4;overflow=hidden;rotatable=0;points=[[0,0.5],[1,0.5]];portConstraint=eastwest;whiteSpace=wrap;html=1;" parent="_n6Fs-lLgKocLt4zIJW7-1" vertex="1">
          <mxGeometry y="320" width="220" height="26" as="geometry" />
        </mxCell>
        <mxCell id="3qAyETeKV4LifIVxOtX2-16" value="+ getDeliveryAddresses()" style="text;strokeColor=none;fillColor=none;align=left;verticalAlign=top;spacingLeft=4;spacingRight=4;overflow=hidden;rotatable=0;points=[[0,0.5],[1,0.5]];portConstraint=eastwest;whiteSpace=wrap;html=1;" parent="_n6Fs-lLgKocLt4zIJW7-1" vertex="1">
          <mxGeometry y="346" width="220" height="26" as="geometry" />
        </mxCell>
        <mxCell id="3qAyETeKV4LifIVxOtX2-14" value="+ addDeliveryAddress(address)" style="text;strokeColor=none;fillColor=none;align=left;verticalAlign=top;spacingLeft=4;spacingRight=4;overflow=hidden;rotatable=0;points=[[0,0.5],[1,0.5]];portConstraint=eastwest;whiteSpace=wrap;html=1;" parent="_n6Fs-lLgKocLt4zIJW7-1" vertex="1">
          <mxGeometry y="372" width="220" height="26" as="geometry" />
        </mxCell>
        <mxCell id="3qAyETeKV4LifIVxOtX2-15" value="+ removeDeliveryAddress(address)" style="text;strokeColor=none;fillColor=none;align=left;verticalAlign=top;spacingLeft=4;spacingRight=4;overflow=hidden;rotatable=0;points=[[0,0.5],[1,0.5]];portConstraint=eastwest;whiteSpace=wrap;html=1;" parent="_n6Fs-lLgKocLt4zIJW7-1" vertex="1">
          <mxGeometry y="398" width="220" height="26" as="geometry" />
        </mxCell>
        <mxCell id="_n6Fs-lLgKocLt4zIJW7-5" value="Address" style="swimlane;fontStyle=1;align=center;verticalAlign=top;childLayout=stackLayout;horizontal=1;startSize=26;horizontalStack=0;resizeParent=1;resizeParentMax=0;resizeLast=0;collapsible=1;marginBottom=0;whiteSpace=wrap;html=1;" parent="1" vertex="1">
          <mxGeometry x="200" y="540" width="170" height="242" as="geometry" />
        </mxCell>
        <mxCell id="0EvVs83v-zbo0SH1oUmb-1" value="- city" style="text;strokeColor=none;fillColor=none;align=left;verticalAlign=top;spacingLeft=4;spacingRight=4;overflow=hidden;rotatable=0;points=[[0,0.5],[1,0.5]];portConstraint=eastwest;whiteSpace=wrap;html=1;" parent="_n6Fs-lLgKocLt4zIJW7-5" vertex="1">
          <mxGeometry y="26" width="170" height="26" as="geometry" />
        </mxCell>
        <mxCell id="_n6Fs-lLgKocLt4zIJW7-6" value="- country" style="text;strokeColor=none;fillColor=none;align=left;verticalAlign=top;spacingLeft=4;spacingRight=4;overflow=hidden;rotatable=0;points=[[0,0.5],[1,0.5]];portConstraint=eastwest;whiteSpace=wrap;html=1;" parent="_n6Fs-lLgKocLt4zIJW7-5" vertex="1">
          <mxGeometry y="52" width="170" height="26" as="geometry" />
        </mxCell>
        <mxCell id="0EvVs83v-zbo0SH1oUmb-2" value="- district" style="text;strokeColor=none;fillColor=none;align=left;verticalAlign=top;spacingLeft=4;spacingRight=4;overflow=hidden;rotatable=0;points=[[0,0.5],[1,0.5]];portConstraint=eastwest;whiteSpace=wrap;html=1;" parent="_n6Fs-lLgKocLt4zIJW7-5" vertex="1">
          <mxGeometry y="78" width="170" height="26" as="geometry" />
        </mxCell>
        <mxCell id="0EvVs83v-zbo0SH1oUmb-3" value="- ward" style="text;strokeColor=none;fillColor=none;align=left;verticalAlign=top;spacingLeft=4;spacingRight=4;overflow=hidden;rotatable=0;points=[[0,0.5],[1,0.5]];portConstraint=eastwest;whiteSpace=wrap;html=1;" parent="_n6Fs-lLgKocLt4zIJW7-5" vertex="1">
          <mxGeometry y="104" width="170" height="26" as="geometry" />
        </mxCell>
        <mxCell id="3qAyETeKV4LifIVxOtX2-1" value="- apartmentNumber" style="text;strokeColor=none;fillColor=none;align=left;verticalAlign=top;spacingLeft=4;spacingRight=4;overflow=hidden;rotatable=0;points=[[0,0.5],[1,0.5]];portConstraint=eastwest;whiteSpace=wrap;html=1;" parent="_n6Fs-lLgKocLt4zIJW7-5" vertex="1">
          <mxGeometry y="130" width="170" height="26" as="geometry" />
        </mxCell>
        <mxCell id="3qAyETeKV4LifIVxOtX2-17" value="- user" style="text;strokeColor=none;fillColor=none;align=left;verticalAlign=top;spacingLeft=4;spacingRight=4;overflow=hidden;rotatable=0;points=[[0,0.5],[1,0.5]];portConstraint=eastwest;whiteSpace=wrap;html=1;" parent="_n6Fs-lLgKocLt4zIJW7-5" vertex="1">
          <mxGeometry y="156" width="170" height="26" as="geometry" />
        </mxCell>
        <mxCell id="3qAyETeKV4LifIVxOtX2-2" value="- addressType" style="text;strokeColor=none;fillColor=none;align=left;verticalAlign=top;spacingLeft=4;spacingRight=4;overflow=hidden;rotatable=0;points=[[0,0.5],[1,0.5]];portConstraint=eastwest;whiteSpace=wrap;html=1;" parent="_n6Fs-lLgKocLt4zIJW7-5" vertex="1">
          <mxGeometry y="182" width="170" height="26" as="geometry" />
        </mxCell>
        <mxCell id="_n6Fs-lLgKocLt4zIJW7-7" value="" style="line;strokeWidth=1;fillColor=none;align=left;verticalAlign=middle;spacingTop=-1;spacingLeft=3;spacingRight=3;rotatable=0;labelPosition=right;points=[];portConstraint=eastwest;strokeColor=inherit;" parent="_n6Fs-lLgKocLt4zIJW7-5" vertex="1">
          <mxGeometry y="208" width="170" height="8" as="geometry" />
        </mxCell>
        <mxCell id="_n6Fs-lLgKocLt4zIJW7-8" value="+ getUser()" style="text;strokeColor=none;fillColor=none;align=left;verticalAlign=top;spacingLeft=4;spacingRight=4;overflow=hidden;rotatable=0;points=[[0,0.5],[1,0.5]];portConstraint=eastwest;whiteSpace=wrap;html=1;" parent="_n6Fs-lLgKocLt4zIJW7-5" vertex="1">
          <mxGeometry y="216" width="170" height="26" as="geometry" />
        </mxCell>
        <mxCell id="_n6Fs-lLgKocLt4zIJW7-9" value="Order" style="swimlane;fontStyle=1;align=center;verticalAlign=top;childLayout=stackLayout;horizontal=1;startSize=26;horizontalStack=0;resizeParent=1;resizeParentMax=0;resizeLast=0;collapsible=1;marginBottom=0;whiteSpace=wrap;html=1;" parent="1" vertex="1">
          <mxGeometry x="510" y="280" width="160" height="242" as="geometry" />
        </mxCell>
        <mxCell id="_n6Fs-lLgKocLt4zIJW7-10" value="- orderId" style="text;strokeColor=none;fillColor=none;align=left;verticalAlign=top;spacingLeft=4;spacingRight=4;overflow=hidden;rotatable=0;points=[[0,0.5],[1,0.5]];portConstraint=eastwest;whiteSpace=wrap;html=1;" parent="_n6Fs-lLgKocLt4zIJW7-9" vertex="1">
          <mxGeometry y="26" width="160" height="26" as="geometry" />
        </mxCell>
        <mxCell id="gctKp3tmi-P6H3ARsjsD-1" value="- address" style="text;strokeColor=none;fillColor=none;align=left;verticalAlign=top;spacingLeft=4;spacingRight=4;overflow=hidden;rotatable=0;points=[[0,0.5],[1,0.5]];portConstraint=eastwest;whiteSpace=wrap;html=1;" parent="_n6Fs-lLgKocLt4zIJW7-9" vertex="1">
          <mxGeometry y="52" width="160" height="26" as="geometry" />
        </mxCell>
        <mxCell id="KwGZLLnZrpSCFx-j1pef-1" value="- dateCreated" style="text;strokeColor=none;fillColor=none;align=left;verticalAlign=top;spacingLeft=4;spacingRight=4;overflow=hidden;rotatable=0;points=[[0,0.5],[1,0.5]];portConstraint=eastwest;whiteSpace=wrap;html=1;" parent="_n6Fs-lLgKocLt4zIJW7-9" vertex="1">
          <mxGeometry y="78" width="160" height="26" as="geometry" />
        </mxCell>
        <mxCell id="lC072aqiNKnRHPzvuTuS-1" value="- dateCompleted" style="text;strokeColor=none;fillColor=none;align=left;verticalAlign=top;spacingLeft=4;spacingRight=4;overflow=hidden;rotatable=0;points=[[0,0.5],[1,0.5]];portConstraint=eastwest;whiteSpace=wrap;html=1;" parent="_n6Fs-lLgKocLt4zIJW7-9" vertex="1">
          <mxGeometry y="104" width="160" height="26" as="geometry" />
        </mxCell>
        <mxCell id="q46Bp1tz4Ij2mI9rgMqm-1" value="- status" style="text;strokeColor=none;fillColor=none;align=left;verticalAlign=top;spacingLeft=4;spacingRight=4;overflow=hidden;rotatable=0;points=[[0,0.5],[1,0.5]];portConstraint=eastwest;whiteSpace=wrap;html=1;" parent="_n6Fs-lLgKocLt4zIJW7-9" vertex="1">
          <mxGeometry y="130" width="160" height="26" as="geometry" />
        </mxCell>
        <mxCell id="c5DuVg-IkHNx3C-D9GBp-1" value="- products" style="text;strokeColor=none;fillColor=none;align=left;verticalAlign=top;spacingLeft=4;spacingRight=4;overflow=hidden;rotatable=0;points=[[0,0.5],[1,0.5]];portConstraint=eastwest;whiteSpace=wrap;html=1;" parent="_n6Fs-lLgKocLt4zIJW7-9" vertex="1">
          <mxGeometry y="156" width="160" height="26" as="geometry" />
        </mxCell>
        <mxCell id="_n6Fs-lLgKocLt4zIJW7-11" value="" style="line;strokeWidth=1;fillColor=none;align=left;verticalAlign=middle;spacingTop=-1;spacingLeft=3;spacingRight=3;rotatable=0;labelPosition=right;points=[];portConstraint=eastwest;strokeColor=inherit;" parent="_n6Fs-lLgKocLt4zIJW7-9" vertex="1">
          <mxGeometry y="182" width="160" height="8" as="geometry" />
        </mxCell>
        <mxCell id="_n6Fs-lLgKocLt4zIJW7-12" value="+ getProducts()" style="text;strokeColor=none;fillColor=none;align=left;verticalAlign=top;spacingLeft=4;spacingRight=4;overflow=hidden;rotatable=0;points=[[0,0.5],[1,0.5]];portConstraint=eastwest;whiteSpace=wrap;html=1;" parent="_n6Fs-lLgKocLt4zIJW7-9" vertex="1">
          <mxGeometry y="190" width="160" height="26" as="geometry" />
        </mxCell>
        <mxCell id="kKHTltmYAjdb424wS9rF-8" value="+ getTotalPrice()" style="text;strokeColor=none;fillColor=none;align=left;verticalAlign=top;spacingLeft=4;spacingRight=4;overflow=hidden;rotatable=0;points=[[0,0.5],[1,0.5]];portConstraint=eastwest;whiteSpace=wrap;html=1;" parent="_n6Fs-lLgKocLt4zIJW7-9" vertex="1">
          <mxGeometry y="216" width="160" height="26" as="geometry" />
        </mxCell>
        <mxCell id="_n6Fs-lLgKocLt4zIJW7-13" value="Product" style="swimlane;fontStyle=1;align=center;verticalAlign=top;childLayout=stackLayout;horizontal=1;startSize=26;horizontalStack=0;resizeParent=1;resizeParentMax=0;resizeLast=0;collapsible=1;marginBottom=0;whiteSpace=wrap;html=1;" parent="1" vertex="1">
          <mxGeometry x="803.94" y="75" width="160" height="320" as="geometry" />
        </mxCell>
        <mxCell id="_n6Fs-lLgKocLt4zIJW7-14" value="- SKU" style="text;strokeColor=none;fillColor=none;align=left;verticalAlign=top;spacingLeft=4;spacingRight=4;overflow=hidden;rotatable=0;points=[[0,0.5],[1,0.5]];portConstraint=eastwest;whiteSpace=wrap;html=1;" parent="_n6Fs-lLgKocLt4zIJW7-13" vertex="1">
          <mxGeometry y="26" width="160" height="26" as="geometry" />
        </mxCell>
        <mxCell id="T43CQCjiMX-C748zQIUO-1" value="- productName" style="text;strokeColor=none;fillColor=none;align=left;verticalAlign=top;spacingLeft=4;spacingRight=4;overflow=hidden;rotatable=0;points=[[0,0.5],[1,0.5]];portConstraint=eastwest;whiteSpace=wrap;html=1;" parent="_n6Fs-lLgKocLt4zIJW7-13" vertex="1">
          <mxGeometry y="52" width="160" height="26" as="geometry" />
        </mxCell>
        <mxCell id="NpIMRDs0e_1H9EK3EC-A-1" value="- category" style="text;strokeColor=none;fillColor=none;align=left;verticalAlign=top;spacingLeft=4;spacingRight=4;overflow=hidden;rotatable=0;points=[[0,0.5],[1,0.5]];portConstraint=eastwest;whiteSpace=wrap;html=1;" parent="_n6Fs-lLgKocLt4zIJW7-13" vertex="1">
          <mxGeometry y="78" width="160" height="26" as="geometry" />
        </mxCell>
        <mxCell id="NpIMRDs0e_1H9EK3EC-A-2" value="- listedPrice" style="text;strokeColor=none;fillColor=none;align=left;verticalAlign=top;spacingLeft=4;spacingRight=4;overflow=hidden;rotatable=0;points=[[0,0.5],[1,0.5]];portConstraint=eastwest;whiteSpace=wrap;html=1;" parent="_n6Fs-lLgKocLt4zIJW7-13" vertex="1">
          <mxGeometry y="104" width="160" height="26" as="geometry" />
        </mxCell>
        <mxCell id="ixQyGc85kcn3fXo0KSR8-1" value="- origin" style="text;strokeColor=none;fillColor=none;align=left;verticalAlign=top;spacingLeft=4;spacingRight=4;overflow=hidden;rotatable=0;points=[[0,0.5],[1,0.5]];portConstraint=eastwest;whiteSpace=wrap;html=1;" parent="_n6Fs-lLgKocLt4zIJW7-13" vertex="1">
          <mxGeometry y="130" width="160" height="26" as="geometry" />
        </mxCell>
        <mxCell id="ixQyGc85kcn3fXo0KSR8-2" value="- brand" style="text;strokeColor=none;fillColor=none;align=left;verticalAlign=top;spacingLeft=4;spacingRight=4;overflow=hidden;rotatable=0;points=[[0,0.5],[1,0.5]];portConstraint=eastwest;whiteSpace=wrap;html=1;" parent="_n6Fs-lLgKocLt4zIJW7-13" vertex="1">
          <mxGeometry y="156" width="160" height="26" as="geometry" />
        </mxCell>
        <mxCell id="ixQyGc85kcn3fXo0KSR8-3" value="- ingridients" style="text;strokeColor=none;fillColor=none;align=left;verticalAlign=top;spacingLeft=4;spacingRight=4;overflow=hidden;rotatable=0;points=[[0,0.5],[1,0.5]];portConstraint=eastwest;whiteSpace=wrap;html=1;" parent="_n6Fs-lLgKocLt4zIJW7-13" vertex="1">
          <mxGeometry y="182" width="160" height="26" as="geometry" />
        </mxCell>
        <mxCell id="wHb5_lx0U62v8V_MfKL1-1" value="- userManual" style="text;strokeColor=none;fillColor=none;align=left;verticalAlign=top;spacingLeft=4;spacingRight=4;overflow=hidden;rotatable=0;points=[[0,0.5],[1,0.5]];portConstraint=eastwest;whiteSpace=wrap;html=1;" parent="_n6Fs-lLgKocLt4zIJW7-13" vertex="1">
          <mxGeometry y="208" width="160" height="26" as="geometry" />
        </mxCell>
        <mxCell id="drGogyTrz0V5mItdMM1--1" value="- preveredManual" style="text;strokeColor=none;fillColor=none;align=left;verticalAlign=top;spacingLeft=4;spacingRight=4;overflow=hidden;rotatable=0;points=[[0,0.5],[1,0.5]];portConstraint=eastwest;whiteSpace=wrap;html=1;" parent="_n6Fs-lLgKocLt4zIJW7-13" vertex="1">
          <mxGeometry y="234" width="160" height="26" as="geometry" />
        </mxCell>
        <mxCell id="NLQLgKCgAfGU7Pq2tujs-1" value="- description" style="text;strokeColor=none;fillColor=none;align=left;verticalAlign=top;spacingLeft=4;spacingRight=4;overflow=hidden;rotatable=0;points=[[0,0.5],[1,0.5]];portConstraint=eastwest;whiteSpace=wrap;html=1;" parent="_n6Fs-lLgKocLt4zIJW7-13" vertex="1">
          <mxGeometry y="260" width="160" height="26" as="geometry" />
        </mxCell>
        <mxCell id="_n6Fs-lLgKocLt4zIJW7-15" value="" style="line;strokeWidth=1;fillColor=none;align=left;verticalAlign=middle;spacingTop=-1;spacingLeft=3;spacingRight=3;rotatable=0;labelPosition=right;points=[];portConstraint=eastwest;strokeColor=inherit;" parent="_n6Fs-lLgKocLt4zIJW7-13" vertex="1">
          <mxGeometry y="286" width="160" height="8" as="geometry" />
        </mxCell>
        <mxCell id="_n6Fs-lLgKocLt4zIJW7-16" value="+ getCategory()" style="text;strokeColor=none;fillColor=none;align=left;verticalAlign=top;spacingLeft=4;spacingRight=4;overflow=hidden;rotatable=0;points=[[0,0.5],[1,0.5]];portConstraint=eastwest;whiteSpace=wrap;html=1;" parent="_n6Fs-lLgKocLt4zIJW7-13" vertex="1">
          <mxGeometry y="294" width="160" height="26" as="geometry" />
        </mxCell>
        <mxCell id="qnJpyj_sDS0qeDTtGOcx-7" value="0..*" style="text;html=1;align=center;verticalAlign=middle;resizable=0;points=[];autosize=1;strokeColor=none;fillColor=none;fontStyle=1" parent="1" vertex="1">
          <mxGeometry x="750" y="474" width="40" height="30" as="geometry" />
        </mxCell>
        <mxCell id="qnJpyj_sDS0qeDTtGOcx-8" value="1" style="text;html=1;align=center;verticalAlign=middle;resizable=0;points=[];autosize=1;strokeColor=none;fillColor=none;fontStyle=1" parent="1" vertex="1">
          <mxGeometry x="1026.94" y="473" width="30" height="30" as="geometry" />
        </mxCell>
        <mxCell id="7HYjGPfmz14azV_7GLat-1" value="Cart" style="swimlane;fontStyle=1;align=center;verticalAlign=top;childLayout=stackLayout;horizontal=1;startSize=26;horizontalStack=0;resizeParent=1;resizeParentMax=0;resizeLast=0;collapsible=1;marginBottom=0;whiteSpace=wrap;html=1;" parent="1" vertex="1">
          <mxGeometry x="510" y="75" width="160" height="190" as="geometry" />
        </mxCell>
        <mxCell id="7HYjGPfmz14azV_7GLat-2" value="- products" style="text;strokeColor=none;fillColor=none;align=left;verticalAlign=top;spacingLeft=4;spacingRight=4;overflow=hidden;rotatable=0;points=[[0,0.5],[1,0.5]];portConstraint=eastwest;whiteSpace=wrap;html=1;" parent="7HYjGPfmz14azV_7GLat-1" vertex="1">
          <mxGeometry y="26" width="160" height="26" as="geometry" />
        </mxCell>
        <mxCell id="7HYjGPfmz14azV_7GLat-3" value="" style="line;strokeWidth=1;fillColor=none;align=left;verticalAlign=middle;spacingTop=-1;spacingLeft=3;spacingRight=3;rotatable=0;labelPosition=right;points=[];portConstraint=eastwest;strokeColor=inherit;" parent="7HYjGPfmz14azV_7GLat-1" vertex="1">
          <mxGeometry y="52" width="160" height="8" as="geometry" />
        </mxCell>
        <mxCell id="kKHTltmYAjdb424wS9rF-6" value="+ getProducts()" style="text;strokeColor=none;fillColor=none;align=left;verticalAlign=top;spacingLeft=4;spacingRight=4;overflow=hidden;rotatable=0;points=[[0,0.5],[1,0.5]];portConstraint=eastwest;whiteSpace=wrap;html=1;" parent="7HYjGPfmz14azV_7GLat-1" vertex="1">
          <mxGeometry y="60" width="160" height="26" as="geometry" />
        </mxCell>
        <mxCell id="7HYjGPfmz14azV_7GLat-4" value="+ addProduct(product)" style="text;strokeColor=none;fillColor=none;align=left;verticalAlign=top;spacingLeft=4;spacingRight=4;overflow=hidden;rotatable=0;points=[[0,0.5],[1,0.5]];portConstraint=eastwest;whiteSpace=wrap;html=1;" parent="7HYjGPfmz14azV_7GLat-1" vertex="1">
          <mxGeometry y="86" width="160" height="26" as="geometry" />
        </mxCell>
        <mxCell id="3qAyETeKV4LifIVxOtX2-25" value="+ addProduct(product)" style="text;strokeColor=none;fillColor=none;align=left;verticalAlign=top;spacingLeft=4;spacingRight=4;overflow=hidden;rotatable=0;points=[[0,0.5],[1,0.5]];portConstraint=eastwest;whiteSpace=wrap;html=1;" parent="7HYjGPfmz14azV_7GLat-1" vertex="1">
          <mxGeometry y="112" width="160" height="26" as="geometry" />
        </mxCell>
        <mxCell id="ckkNe8De9E-v4X0CErRb-1" value="+ removeProduct(product)" style="text;strokeColor=none;fillColor=none;align=left;verticalAlign=top;spacingLeft=4;spacingRight=4;overflow=hidden;rotatable=0;points=[[0,0.5],[1,0.5]];portConstraint=eastwest;whiteSpace=wrap;html=1;" parent="7HYjGPfmz14azV_7GLat-1" vertex="1">
          <mxGeometry y="138" width="160" height="26" as="geometry" />
        </mxCell>
        <mxCell id="kKHTltmYAjdb424wS9rF-7" value="+ getTotalPrice()" style="text;strokeColor=none;fillColor=none;align=left;verticalAlign=top;spacingLeft=4;spacingRight=4;overflow=hidden;rotatable=0;points=[[0,0.5],[1,0.5]];portConstraint=eastwest;whiteSpace=wrap;html=1;" parent="7HYjGPfmz14azV_7GLat-1" vertex="1">
          <mxGeometry y="164" width="160" height="26" as="geometry" />
        </mxCell>
        <mxCell id="Cz-FC9nXDVYpLXcgRPG0-7" value="" style="endArrow=none;html=1;rounded=0;entryX=0;entryY=0.083;entryDx=0;entryDy=0;exitX=0;exitY=0.25;exitDx=0;exitDy=0;entryPerimeter=0;edgeStyle=orthogonalEdgeStyle;" parent="1" source="_n6Fs-lLgKocLt4zIJW7-1" target="_n6Fs-lLgKocLt4zIJW7-5" edge="1">
          <mxGeometry relative="1" as="geometry">
            <mxPoint x="410" y="199" as="sourcePoint" />
            <mxPoint x="390" y="199" as="targetPoint" />
            <Array as="points">
              <mxPoint x="160" y="186" />
              <mxPoint x="160" y="560" />
            </Array>
          </mxGeometry>
        </mxCell>
        <mxCell id="Cz-FC9nXDVYpLXcgRPG0-8" value="1..*" style="resizable=0;html=1;whiteSpace=wrap;align=right;verticalAlign=bottom;fontStyle=1" parent="Cz-FC9nXDVYpLXcgRPG0-7" connectable="0" vertex="1">
          <mxGeometry x="1" relative="1" as="geometry">
            <mxPoint x="-3" y="21" as="offset" />
          </mxGeometry>
        </mxCell>
        <mxCell id="Nx0j_Pzs6SWEjRzwb8MS-10" value="Category" style="swimlane;fontStyle=1;align=center;verticalAlign=top;childLayout=stackLayout;horizontal=1;startSize=26;horizontalStack=0;resizeParent=1;resizeParentMax=0;resizeLast=0;collapsible=1;marginBottom=0;whiteSpace=wrap;html=1;" parent="1" vertex="1">
          <mxGeometry x="803.94" y="480" width="190" height="294" as="geometry" />
        </mxCell>
        <mxCell id="Nx0j_Pzs6SWEjRzwb8MS-11" value="- categoryId" style="text;strokeColor=none;fillColor=none;align=left;verticalAlign=top;spacingLeft=4;spacingRight=4;overflow=hidden;rotatable=0;points=[[0,0.5],[1,0.5]];portConstraint=eastwest;whiteSpace=wrap;html=1;" parent="Nx0j_Pzs6SWEjRzwb8MS-10" vertex="1">
          <mxGeometry y="26" width="190" height="26" as="geometry" />
        </mxCell>
        <mxCell id="Nx0j_Pzs6SWEjRzwb8MS-14" value="- categoryName&lt;br&gt;" style="text;strokeColor=none;fillColor=none;align=left;verticalAlign=top;spacingLeft=4;spacingRight=4;overflow=hidden;rotatable=0;points=[[0,0.5],[1,0.5]];portConstraint=eastwest;whiteSpace=wrap;html=1;" parent="Nx0j_Pzs6SWEjRzwb8MS-10" vertex="1">
          <mxGeometry y="52" width="190" height="26" as="geometry" />
        </mxCell>
        <mxCell id="Nx0j_Pzs6SWEjRzwb8MS-19" value="- products" style="text;strokeColor=none;fillColor=none;align=left;verticalAlign=top;spacingLeft=4;spacingRight=4;overflow=hidden;rotatable=0;points=[[0,0.5],[1,0.5]];portConstraint=eastwest;whiteSpace=wrap;html=1;" parent="Nx0j_Pzs6SWEjRzwb8MS-10" vertex="1">
          <mxGeometry y="78" width="190" height="26" as="geometry" />
        </mxCell>
        <mxCell id="Nx0j_Pzs6SWEjRzwb8MS-20" value="- subCategories" style="text;strokeColor=none;fillColor=none;align=left;verticalAlign=top;spacingLeft=4;spacingRight=4;overflow=hidden;rotatable=0;points=[[0,0.5],[1,0.5]];portConstraint=eastwest;whiteSpace=wrap;html=1;" parent="Nx0j_Pzs6SWEjRzwb8MS-10" vertex="1">
          <mxGeometry y="104" width="190" height="26" as="geometry" />
        </mxCell>
        <mxCell id="Nx0j_Pzs6SWEjRzwb8MS-12" value="" style="line;strokeWidth=1;fillColor=none;align=left;verticalAlign=middle;spacingTop=-1;spacingLeft=3;spacingRight=3;rotatable=0;labelPosition=right;points=[];portConstraint=eastwest;strokeColor=inherit;" parent="Nx0j_Pzs6SWEjRzwb8MS-10" vertex="1">
          <mxGeometry y="130" width="190" height="8" as="geometry" />
        </mxCell>
        <mxCell id="kKHTltmYAjdb424wS9rF-2" value="+ getProducts()" style="text;strokeColor=none;fillColor=none;align=left;verticalAlign=top;spacingLeft=4;spacingRight=4;overflow=hidden;rotatable=0;points=[[0,0.5],[1,0.5]];portConstraint=eastwest;whiteSpace=wrap;html=1;" parent="Nx0j_Pzs6SWEjRzwb8MS-10" vertex="1">
          <mxGeometry y="138" width="190" height="26" as="geometry" />
        </mxCell>
        <mxCell id="Nx0j_Pzs6SWEjRzwb8MS-21" value="+ addProduct(product)" style="text;strokeColor=none;fillColor=none;align=left;verticalAlign=top;spacingLeft=4;spacingRight=4;overflow=hidden;rotatable=0;points=[[0,0.5],[1,0.5]];portConstraint=eastwest;whiteSpace=wrap;html=1;" parent="Nx0j_Pzs6SWEjRzwb8MS-10" vertex="1">
          <mxGeometry y="164" width="190" height="26" as="geometry" />
        </mxCell>
        <mxCell id="Nx0j_Pzs6SWEjRzwb8MS-22" value="+ removeProduct(product)" style="text;strokeColor=none;fillColor=none;align=left;verticalAlign=top;spacingLeft=4;spacingRight=4;overflow=hidden;rotatable=0;points=[[0,0.5],[1,0.5]];portConstraint=eastwest;whiteSpace=wrap;html=1;" parent="Nx0j_Pzs6SWEjRzwb8MS-10" vertex="1">
          <mxGeometry y="190" width="190" height="26" as="geometry" />
        </mxCell>
        <mxCell id="kKHTltmYAjdb424wS9rF-3" value="+ getSubCategories()" style="text;strokeColor=none;fillColor=none;align=left;verticalAlign=top;spacingLeft=4;spacingRight=4;overflow=hidden;rotatable=0;points=[[0,0.5],[1,0.5]];portConstraint=eastwest;whiteSpace=wrap;html=1;" parent="Nx0j_Pzs6SWEjRzwb8MS-10" vertex="1">
          <mxGeometry y="216" width="190" height="26" as="geometry" />
        </mxCell>
        <mxCell id="Nx0j_Pzs6SWEjRzwb8MS-23" value="+ addSubCategory(category)" style="text;strokeColor=none;fillColor=none;align=left;verticalAlign=top;spacingLeft=4;spacingRight=4;overflow=hidden;rotatable=0;points=[[0,0.5],[1,0.5]];portConstraint=eastwest;whiteSpace=wrap;html=1;" parent="Nx0j_Pzs6SWEjRzwb8MS-10" vertex="1">
          <mxGeometry y="242" width="190" height="26" as="geometry" />
        </mxCell>
        <mxCell id="Nx0j_Pzs6SWEjRzwb8MS-24" value="+ removeSubcategory(category)" style="text;strokeColor=none;fillColor=none;align=left;verticalAlign=top;spacingLeft=4;spacingRight=4;overflow=hidden;rotatable=0;points=[[0,0.5],[1,0.5]];portConstraint=eastwest;whiteSpace=wrap;html=1;" parent="Nx0j_Pzs6SWEjRzwb8MS-10" vertex="1">
          <mxGeometry y="268" width="190" height="26" as="geometry" />
        </mxCell>
        <mxCell id="qnJpyj_sDS0qeDTtGOcx-4" value="" style="endArrow=diamondThin;endFill=1;endSize=24;html=1;rounded=0;edgeStyle=orthogonalEdgeStyle;exitX=0.007;exitY=0.055;exitDx=0;exitDy=0;exitPerimeter=0;entryX=0.997;entryY=0.052;entryDx=0;entryDy=0;entryPerimeter=0;" parent="1" source="Nx0j_Pzs6SWEjRzwb8MS-10" target="Nx0j_Pzs6SWEjRzwb8MS-10" edge="1">
          <mxGeometry width="160" relative="1" as="geometry">
            <mxPoint x="803.94" y="510" as="sourcePoint" />
            <mxPoint x="994.94" y="510" as="targetPoint" />
            <Array as="points">
              <mxPoint x="783.94" y="496" />
              <mxPoint x="783.94" y="450" />
              <mxPoint x="1033.94" y="450" />
              <mxPoint x="1033.94" y="495" />
              <mxPoint x="992.94" y="495" />
            </Array>
          </mxGeometry>
        </mxCell>
        <mxCell id="3qAyETeKV4LifIVxOtX2-11" value="1" style="text;html=1;align=center;verticalAlign=middle;resizable=0;points=[];autosize=1;strokeColor=none;fillColor=none;fontStyle=1" parent="1" vertex="1">
          <mxGeometry x="158" y="161" width="30" height="30" as="geometry" />
        </mxCell>
        <mxCell id="3qAyETeKV4LifIVxOtX2-20" value="" style="endArrow=diamondThin;endFill=1;endSize=24;html=1;rounded=0;entryX=1;entryY=0.5;entryDx=0;entryDy=0;exitX=0.002;exitY=0.091;exitDx=0;exitDy=0;edgeStyle=orthogonalEdgeStyle;exitPerimeter=0;" parent="1" source="7HYjGPfmz14azV_7GLat-1" target="3qAyETeKV4LifIVxOtX2-3" edge="1">
          <mxGeometry width="160" relative="1" as="geometry">
            <mxPoint x="370" y="320" as="sourcePoint" />
            <mxPoint x="530" y="320" as="targetPoint" />
            <Array as="points">
              <mxPoint x="460" y="92" />
              <mxPoint x="460" y="275" />
            </Array>
          </mxGeometry>
        </mxCell>
        <mxCell id="3qAyETeKV4LifIVxOtX2-21" value="" style="endArrow=diamondThin;endFill=1;endSize=24;html=1;rounded=0;entryX=1;entryY=0.5;entryDx=0;entryDy=0;exitX=0.004;exitY=0.083;exitDx=0;exitDy=0;exitPerimeter=0;" parent="1" source="_n6Fs-lLgKocLt4zIJW7-9" target="3qAyETeKV4LifIVxOtX2-4" edge="1">
          <mxGeometry width="160" relative="1" as="geometry">
            <mxPoint x="400" y="340" as="sourcePoint" />
            <mxPoint x="560" y="340" as="targetPoint" />
          </mxGeometry>
        </mxCell>
        <mxCell id="3qAyETeKV4LifIVxOtX2-22" value="" style="endArrow=diamondThin;endFill=0;endSize=24;html=1;rounded=0;entryX=1;entryY=0.5;entryDx=0;entryDy=0;exitX=0;exitY=0.5;exitDx=0;exitDy=0;edgeStyle=orthogonalEdgeStyle;" parent="1" source="ixQyGc85kcn3fXo0KSR8-2" target="7HYjGPfmz14azV_7GLat-2" edge="1">
          <mxGeometry width="160" relative="1" as="geometry">
            <mxPoint x="480" y="250" as="sourcePoint" />
            <mxPoint x="640" y="250" as="targetPoint" />
            <Array as="points">
              <mxPoint x="760" y="244" />
              <mxPoint x="760" y="114" />
            </Array>
          </mxGeometry>
        </mxCell>
        <mxCell id="3qAyETeKV4LifIVxOtX2-23" value="" style="endArrow=diamondThin;endFill=0;endSize=24;html=1;rounded=0;entryX=1;entryY=0.5;entryDx=0;entryDy=0;exitX=0;exitY=0.5;exitDx=0;exitDy=0;edgeStyle=orthogonalEdgeStyle;" parent="1" source="ixQyGc85kcn3fXo0KSR8-2" target="c5DuVg-IkHNx3C-D9GBp-1" edge="1">
          <mxGeometry width="160" relative="1" as="geometry">
            <mxPoint x="620" y="343" as="sourcePoint" />
            <mxPoint x="580" y="213" as="targetPoint" />
            <Array as="points">
              <mxPoint x="760" y="244" />
              <mxPoint x="760" y="449" />
            </Array>
          </mxGeometry>
        </mxCell>
        <mxCell id="3qAyETeKV4LifIVxOtX2-26" value="" style="endArrow=diamondThin;endFill=1;endSize=24;html=1;rounded=0;entryX=1;entryY=0.5;entryDx=0;entryDy=0;exitX=1;exitY=0.055;exitDx=0;exitDy=0;exitPerimeter=0;edgeStyle=orthogonalEdgeStyle;" parent="1" source="_n6Fs-lLgKocLt4zIJW7-13" target="Nx0j_Pzs6SWEjRzwb8MS-19" edge="1">
          <mxGeometry width="160" relative="1" as="geometry">
            <mxPoint x="1010" y="230" as="sourcePoint" />
            <mxPoint x="830" y="610" as="targetPoint" />
            <Array as="points">
              <mxPoint x="1070" y="93" />
              <mxPoint x="1070" y="571" />
            </Array>
          </mxGeometry>
        </mxCell>
        <mxCell id="3qAyETeKV4LifIVxOtX2-27" value="0..*" style="text;html=1;align=center;verticalAlign=middle;resizable=0;points=[];autosize=1;strokeColor=none;fillColor=none;fontStyle=1" parent="1" vertex="1">
          <mxGeometry x="476" y="277" width="40" height="30" as="geometry" />
        </mxCell>
        <mxCell id="3qAyETeKV4LifIVxOtX2-29" value="1" style="text;html=1;align=center;verticalAlign=middle;resizable=0;points=[];autosize=1;strokeColor=none;fillColor=none;fontStyle=1" parent="1" vertex="1">
          <mxGeometry x="484" y="68" width="30" height="30" as="geometry" />
        </mxCell>
        <mxCell id="3qAyETeKV4LifIVxOtX2-30" value="0..*" style="text;html=1;align=center;verticalAlign=middle;resizable=0;points=[];autosize=1;strokeColor=none;fillColor=none;fontStyle=1" parent="1" vertex="1">
          <mxGeometry x="963.94" y="68" width="40" height="30" as="geometry" />
        </mxCell>
        <mxCell id="lxjpxNveJXPxQGkbc9JU-2" value="1" style="text;html=1;align=center;verticalAlign=middle;resizable=0;points=[];autosize=1;strokeColor=none;fillColor=none;fontStyle=1" parent="1" vertex="1">
          <mxGeometry x="1012.94" y="570" width="30" height="30" as="geometry" />
        </mxCell>
        <mxCell id="Z5gJjSJ7A3sjV1sbXYUl-1" value="0..*" style="text;html=1;align=center;verticalAlign=middle;resizable=0;points=[];autosize=1;strokeColor=none;fillColor=none;fontStyle=1" parent="1" vertex="1">
          <mxGeometry x="763.94" y="241" width="40" height="30" as="geometry" />
        </mxCell>
        <mxCell id="Z5gJjSJ7A3sjV1sbXYUl-2" value="0..*" style="text;html=1;align=center;verticalAlign=middle;resizable=0;points=[];autosize=1;strokeColor=none;fillColor=none;fontStyle=1" parent="1" vertex="1">
          <mxGeometry x="763.94" y="217" width="40" height="30" as="geometry" />
        </mxCell>
      </root>
    </mxGraphModel>
  </diagram>
  <diagram id="NVuxpR6HzCS_80eCGSEN" name="Sequence Diagram">
    <mxGraphModel dx="1050" dy="541" grid="1" gridSize="10" guides="1" tooltips="1" connect="1" arrows="1" fold="1" page="1" pageScale="1" pageWidth="1100" pageHeight="850" math="0" shadow="0">
      <root>
        <mxCell id="0" />
        <mxCell id="1" parent="0" />
      </root>
    </mxGraphModel>
  </diagram>
  <diagram id="x9VgzOiC8lM1tVEL7Y7b" name="Database">
    <mxGraphModel dx="700" dy="361" grid="1" gridSize="10" guides="1" tooltips="1" connect="1" arrows="1" fold="1" page="1" pageScale="1" pageWidth="1100" pageHeight="850" math="0" shadow="0">
      <root>
        <mxCell id="0" />
        <mxCell id="1" parent="0" />
        <mxCell id="OjjNsM4bhcPighJ7UcnU-1" value="Product" style="shape=table;startSize=30;container=1;collapsible=1;childLayout=tableLayout;fixedRows=1;rowLines=0;fontStyle=1;align=center;resizeLast=1;" parent="1" vertex="1">
          <mxGeometry x="840" y="50" width="210" height="330" as="geometry">
            <mxRectangle x="40" y="40" width="90" height="30" as="alternateBounds" />
          </mxGeometry>
        </mxCell>
        <mxCell id="OjjNsM4bhcPighJ7UcnU-2" value="" style="shape=tableRow;horizontal=0;startSize=0;swimlaneHead=0;swimlaneBody=0;fillColor=none;collapsible=0;dropTarget=0;points=[[0,0.5],[1,0.5]];portConstraint=eastwest;top=0;left=0;right=0;bottom=1;" parent="OjjNsM4bhcPighJ7UcnU-1" vertex="1">
          <mxGeometry y="30" width="210" height="30" as="geometry" />
        </mxCell>
        <mxCell id="OjjNsM4bhcPighJ7UcnU-3" value="PK" style="shape=partialRectangle;connectable=0;fillColor=none;top=0;left=0;bottom=0;right=0;fontStyle=1;overflow=hidden;" parent="OjjNsM4bhcPighJ7UcnU-2" vertex="1">
          <mxGeometry width="30" height="30" as="geometry">
            <mxRectangle width="30" height="30" as="alternateBounds" />
          </mxGeometry>
        </mxCell>
        <mxCell id="OjjNsM4bhcPighJ7UcnU-4" value="SKU : INT()" style="shape=partialRectangle;connectable=0;fillColor=none;top=0;left=0;bottom=0;right=0;align=left;spacingLeft=6;fontStyle=5;overflow=hidden;" parent="OjjNsM4bhcPighJ7UcnU-2" vertex="1">
          <mxGeometry x="30" width="180" height="30" as="geometry">
            <mxRectangle width="180" height="30" as="alternateBounds" />
          </mxGeometry>
        </mxCell>
        <mxCell id="OjjNsM4bhcPighJ7UcnU-5" value="" style="shape=tableRow;horizontal=0;startSize=0;swimlaneHead=0;swimlaneBody=0;fillColor=none;collapsible=0;dropTarget=0;points=[[0,0.5],[1,0.5]];portConstraint=eastwest;top=0;left=0;right=0;bottom=0;" parent="OjjNsM4bhcPighJ7UcnU-1" vertex="1">
          <mxGeometry y="60" width="210" height="30" as="geometry" />
        </mxCell>
        <mxCell id="OjjNsM4bhcPighJ7UcnU-6" value="" style="shape=partialRectangle;connectable=0;fillColor=none;top=0;left=0;bottom=0;right=0;editable=1;overflow=hidden;" parent="OjjNsM4bhcPighJ7UcnU-5" vertex="1">
          <mxGeometry width="30" height="30" as="geometry">
            <mxRectangle width="30" height="30" as="alternateBounds" />
          </mxGeometry>
        </mxCell>
        <mxCell id="OjjNsM4bhcPighJ7UcnU-7" value="ProductName : NVARCHAR()" style="shape=partialRectangle;connectable=0;fillColor=none;top=0;left=0;bottom=0;right=0;align=left;spacingLeft=6;overflow=hidden;" parent="OjjNsM4bhcPighJ7UcnU-5" vertex="1">
          <mxGeometry x="30" width="180" height="30" as="geometry">
            <mxRectangle width="180" height="30" as="alternateBounds" />
          </mxGeometry>
        </mxCell>
        <mxCell id="fYZR1P8XknR3bd0_E2So-1" style="shape=tableRow;horizontal=0;startSize=0;swimlaneHead=0;swimlaneBody=0;fillColor=none;collapsible=0;dropTarget=0;points=[[0,0.5],[1,0.5]];portConstraint=eastwest;top=0;left=0;right=0;bottom=0;" parent="OjjNsM4bhcPighJ7UcnU-1" vertex="1">
          <mxGeometry y="90" width="210" height="30" as="geometry" />
        </mxCell>
        <mxCell id="fYZR1P8XknR3bd0_E2So-2" value="FK" style="shape=partialRectangle;connectable=0;fillColor=none;top=0;left=0;bottom=0;right=0;editable=1;overflow=hidden;" parent="fYZR1P8XknR3bd0_E2So-1" vertex="1">
          <mxGeometry width="30" height="30" as="geometry">
            <mxRectangle width="30" height="30" as="alternateBounds" />
          </mxGeometry>
        </mxCell>
        <mxCell id="fYZR1P8XknR3bd0_E2So-3" value="CategoryId : INT()" style="shape=partialRectangle;connectable=0;fillColor=none;top=0;left=0;bottom=0;right=0;align=left;spacingLeft=6;overflow=hidden;" parent="fYZR1P8XknR3bd0_E2So-1" vertex="1">
          <mxGeometry x="30" width="180" height="30" as="geometry">
            <mxRectangle width="180" height="30" as="alternateBounds" />
          </mxGeometry>
        </mxCell>
        <mxCell id="OjjNsM4bhcPighJ7UcnU-8" value="" style="shape=tableRow;horizontal=0;startSize=0;swimlaneHead=0;swimlaneBody=0;fillColor=none;collapsible=0;dropTarget=0;points=[[0,0.5],[1,0.5]];portConstraint=eastwest;top=0;left=0;right=0;bottom=0;" parent="OjjNsM4bhcPighJ7UcnU-1" vertex="1">
          <mxGeometry y="120" width="210" height="30" as="geometry" />
        </mxCell>
        <mxCell id="OjjNsM4bhcPighJ7UcnU-9" value="" style="shape=partialRectangle;connectable=0;fillColor=none;top=0;left=0;bottom=0;right=0;editable=1;overflow=hidden;" parent="OjjNsM4bhcPighJ7UcnU-8" vertex="1">
          <mxGeometry width="30" height="30" as="geometry">
            <mxRectangle width="30" height="30" as="alternateBounds" />
          </mxGeometry>
        </mxCell>
        <mxCell id="OjjNsM4bhcPighJ7UcnU-10" value="ListedPrice : INT()" style="shape=partialRectangle;connectable=0;fillColor=none;top=0;left=0;bottom=0;right=0;align=left;spacingLeft=6;overflow=hidden;" parent="OjjNsM4bhcPighJ7UcnU-8" vertex="1">
          <mxGeometry x="30" width="180" height="30" as="geometry">
            <mxRectangle width="180" height="30" as="alternateBounds" />
          </mxGeometry>
        </mxCell>
        <mxCell id="OjjNsM4bhcPighJ7UcnU-11" value="" style="shape=tableRow;horizontal=0;startSize=0;swimlaneHead=0;swimlaneBody=0;fillColor=none;collapsible=0;dropTarget=0;points=[[0,0.5],[1,0.5]];portConstraint=eastwest;top=0;left=0;right=0;bottom=0;" parent="OjjNsM4bhcPighJ7UcnU-1" vertex="1">
          <mxGeometry y="150" width="210" height="30" as="geometry" />
        </mxCell>
        <mxCell id="OjjNsM4bhcPighJ7UcnU-12" value="" style="shape=partialRectangle;connectable=0;fillColor=none;top=0;left=0;bottom=0;right=0;editable=1;overflow=hidden;" parent="OjjNsM4bhcPighJ7UcnU-11" vertex="1">
          <mxGeometry width="30" height="30" as="geometry">
            <mxRectangle width="30" height="30" as="alternateBounds" />
          </mxGeometry>
        </mxCell>
        <mxCell id="OjjNsM4bhcPighJ7UcnU-13" value="Origin : NVARCHAR()" style="shape=partialRectangle;connectable=0;fillColor=none;top=0;left=0;bottom=0;right=0;align=left;spacingLeft=6;overflow=hidden;" parent="OjjNsM4bhcPighJ7UcnU-11" vertex="1">
          <mxGeometry x="30" width="180" height="30" as="geometry">
            <mxRectangle width="180" height="30" as="alternateBounds" />
          </mxGeometry>
        </mxCell>
        <mxCell id="FN9DtX30pgCNYcqSKUuE-4" style="shape=tableRow;horizontal=0;startSize=0;swimlaneHead=0;swimlaneBody=0;fillColor=none;collapsible=0;dropTarget=0;points=[[0,0.5],[1,0.5]];portConstraint=eastwest;top=0;left=0;right=0;bottom=0;" parent="OjjNsM4bhcPighJ7UcnU-1" vertex="1">
          <mxGeometry y="180" width="210" height="30" as="geometry" />
        </mxCell>
        <mxCell id="FN9DtX30pgCNYcqSKUuE-5" style="shape=partialRectangle;connectable=0;fillColor=none;top=0;left=0;bottom=0;right=0;editable=1;overflow=hidden;" parent="FN9DtX30pgCNYcqSKUuE-4" vertex="1">
          <mxGeometry width="30" height="30" as="geometry">
            <mxRectangle width="30" height="30" as="alternateBounds" />
          </mxGeometry>
        </mxCell>
        <mxCell id="FN9DtX30pgCNYcqSKUuE-6" value="Brand : NVARCHAR()" style="shape=partialRectangle;connectable=0;fillColor=none;top=0;left=0;bottom=0;right=0;align=left;spacingLeft=6;overflow=hidden;" parent="FN9DtX30pgCNYcqSKUuE-4" vertex="1">
          <mxGeometry x="30" width="180" height="30" as="geometry">
            <mxRectangle width="180" height="30" as="alternateBounds" />
          </mxGeometry>
        </mxCell>
        <mxCell id="OjjNsM4bhcPighJ7UcnU-78" style="shape=tableRow;horizontal=0;startSize=0;swimlaneHead=0;swimlaneBody=0;fillColor=none;collapsible=0;dropTarget=0;points=[[0,0.5],[1,0.5]];portConstraint=eastwest;top=0;left=0;right=0;bottom=0;" parent="OjjNsM4bhcPighJ7UcnU-1" vertex="1">
          <mxGeometry y="210" width="210" height="30" as="geometry" />
        </mxCell>
        <mxCell id="OjjNsM4bhcPighJ7UcnU-79" style="shape=partialRectangle;connectable=0;fillColor=none;top=0;left=0;bottom=0;right=0;editable=1;overflow=hidden;" parent="OjjNsM4bhcPighJ7UcnU-78" vertex="1">
          <mxGeometry width="30" height="30" as="geometry">
            <mxRectangle width="30" height="30" as="alternateBounds" />
          </mxGeometry>
        </mxCell>
        <mxCell id="OjjNsM4bhcPighJ7UcnU-80" value="Ingredients : NVARCHAR()" style="shape=partialRectangle;connectable=0;fillColor=none;top=0;left=0;bottom=0;right=0;align=left;spacingLeft=6;overflow=hidden;" parent="OjjNsM4bhcPighJ7UcnU-78" vertex="1">
          <mxGeometry x="30" width="180" height="30" as="geometry">
            <mxRectangle width="180" height="30" as="alternateBounds" />
          </mxGeometry>
        </mxCell>
        <mxCell id="OjjNsM4bhcPighJ7UcnU-81" style="shape=tableRow;horizontal=0;startSize=0;swimlaneHead=0;swimlaneBody=0;fillColor=none;collapsible=0;dropTarget=0;points=[[0,0.5],[1,0.5]];portConstraint=eastwest;top=0;left=0;right=0;bottom=0;" parent="OjjNsM4bhcPighJ7UcnU-1" vertex="1">
          <mxGeometry y="240" width="210" height="30" as="geometry" />
        </mxCell>
        <mxCell id="OjjNsM4bhcPighJ7UcnU-82" style="shape=partialRectangle;connectable=0;fillColor=none;top=0;left=0;bottom=0;right=0;editable=1;overflow=hidden;" parent="OjjNsM4bhcPighJ7UcnU-81" vertex="1">
          <mxGeometry width="30" height="30" as="geometry">
            <mxRectangle width="30" height="30" as="alternateBounds" />
          </mxGeometry>
        </mxCell>
        <mxCell id="OjjNsM4bhcPighJ7UcnU-83" value="UserManual : NVARCHR()" style="shape=partialRectangle;connectable=0;fillColor=none;top=0;left=0;bottom=0;right=0;align=left;spacingLeft=6;overflow=hidden;" parent="OjjNsM4bhcPighJ7UcnU-81" vertex="1">
          <mxGeometry x="30" width="180" height="30" as="geometry">
            <mxRectangle width="180" height="30" as="alternateBounds" />
          </mxGeometry>
        </mxCell>
        <mxCell id="OjjNsM4bhcPighJ7UcnU-84" style="shape=tableRow;horizontal=0;startSize=0;swimlaneHead=0;swimlaneBody=0;fillColor=none;collapsible=0;dropTarget=0;points=[[0,0.5],[1,0.5]];portConstraint=eastwest;top=0;left=0;right=0;bottom=0;" parent="OjjNsM4bhcPighJ7UcnU-1" vertex="1">
          <mxGeometry y="270" width="210" height="30" as="geometry" />
        </mxCell>
        <mxCell id="OjjNsM4bhcPighJ7UcnU-85" style="shape=partialRectangle;connectable=0;fillColor=none;top=0;left=0;bottom=0;right=0;editable=1;overflow=hidden;" parent="OjjNsM4bhcPighJ7UcnU-84" vertex="1">
          <mxGeometry width="30" height="30" as="geometry">
            <mxRectangle width="30" height="30" as="alternateBounds" />
          </mxGeometry>
        </mxCell>
        <mxCell id="OjjNsM4bhcPighJ7UcnU-86" value="PreserveManual: NVARCHAR()" style="shape=partialRectangle;connectable=0;fillColor=none;top=0;left=0;bottom=0;right=0;align=left;spacingLeft=6;overflow=hidden;" parent="OjjNsM4bhcPighJ7UcnU-84" vertex="1">
          <mxGeometry x="30" width="180" height="30" as="geometry">
            <mxRectangle width="180" height="30" as="alternateBounds" />
          </mxGeometry>
        </mxCell>
        <mxCell id="OjjNsM4bhcPighJ7UcnU-75" style="shape=tableRow;horizontal=0;startSize=0;swimlaneHead=0;swimlaneBody=0;fillColor=none;collapsible=0;dropTarget=0;points=[[0,0.5],[1,0.5]];portConstraint=eastwest;top=0;left=0;right=0;bottom=0;" parent="OjjNsM4bhcPighJ7UcnU-1" vertex="1">
          <mxGeometry y="300" width="210" height="30" as="geometry" />
        </mxCell>
        <mxCell id="OjjNsM4bhcPighJ7UcnU-76" style="shape=partialRectangle;connectable=0;fillColor=none;top=0;left=0;bottom=0;right=0;editable=1;overflow=hidden;" parent="OjjNsM4bhcPighJ7UcnU-75" vertex="1">
          <mxGeometry width="30" height="30" as="geometry">
            <mxRectangle width="30" height="30" as="alternateBounds" />
          </mxGeometry>
        </mxCell>
        <mxCell id="OjjNsM4bhcPighJ7UcnU-77" value="Description" style="shape=partialRectangle;connectable=0;fillColor=none;top=0;left=0;bottom=0;right=0;align=left;spacingLeft=6;overflow=hidden;" parent="OjjNsM4bhcPighJ7UcnU-75" vertex="1">
          <mxGeometry x="30" width="180" height="30" as="geometry">
            <mxRectangle width="180" height="30" as="alternateBounds" />
          </mxGeometry>
        </mxCell>
        <mxCell id="OjjNsM4bhcPighJ7UcnU-14" value="Category" style="shape=table;startSize=30;container=1;collapsible=1;childLayout=tableLayout;fixedRows=1;rowLines=0;fontStyle=1;align=center;resizeLast=1;" parent="1" vertex="1">
          <mxGeometry x="1111" y="110" width="229" height="90" as="geometry" />
        </mxCell>
        <mxCell id="OjjNsM4bhcPighJ7UcnU-15" value="" style="shape=tableRow;horizontal=0;startSize=0;swimlaneHead=0;swimlaneBody=0;fillColor=none;collapsible=0;dropTarget=0;points=[[0,0.5],[1,0.5]];portConstraint=eastwest;top=0;left=0;right=0;bottom=1;" parent="OjjNsM4bhcPighJ7UcnU-14" vertex="1">
          <mxGeometry y="30" width="229" height="30" as="geometry" />
        </mxCell>
        <mxCell id="OjjNsM4bhcPighJ7UcnU-16" value="PK" style="shape=partialRectangle;connectable=0;fillColor=none;top=0;left=0;bottom=0;right=0;fontStyle=1;overflow=hidden;" parent="OjjNsM4bhcPighJ7UcnU-15" vertex="1">
          <mxGeometry width="30" height="30" as="geometry">
            <mxRectangle width="30" height="30" as="alternateBounds" />
          </mxGeometry>
        </mxCell>
        <mxCell id="OjjNsM4bhcPighJ7UcnU-17" value="CategoryId : INT()" style="shape=partialRectangle;connectable=0;fillColor=none;top=0;left=0;bottom=0;right=0;align=left;spacingLeft=6;fontStyle=5;overflow=hidden;" parent="OjjNsM4bhcPighJ7UcnU-15" vertex="1">
          <mxGeometry x="30" width="199" height="30" as="geometry">
            <mxRectangle width="199" height="30" as="alternateBounds" />
          </mxGeometry>
        </mxCell>
        <mxCell id="OjjNsM4bhcPighJ7UcnU-18" value="" style="shape=tableRow;horizontal=0;startSize=0;swimlaneHead=0;swimlaneBody=0;fillColor=none;collapsible=0;dropTarget=0;points=[[0,0.5],[1,0.5]];portConstraint=eastwest;top=0;left=0;right=0;bottom=0;" parent="OjjNsM4bhcPighJ7UcnU-14" vertex="1">
          <mxGeometry y="60" width="229" height="30" as="geometry" />
        </mxCell>
        <mxCell id="OjjNsM4bhcPighJ7UcnU-19" value="" style="shape=partialRectangle;connectable=0;fillColor=none;top=0;left=0;bottom=0;right=0;editable=1;overflow=hidden;" parent="OjjNsM4bhcPighJ7UcnU-18" vertex="1">
          <mxGeometry width="30" height="30" as="geometry">
            <mxRectangle width="30" height="30" as="alternateBounds" />
          </mxGeometry>
        </mxCell>
        <mxCell id="OjjNsM4bhcPighJ7UcnU-20" value="CategoryName : NVARCHAR()" style="shape=partialRectangle;connectable=0;fillColor=none;top=0;left=0;bottom=0;right=0;align=left;spacingLeft=6;overflow=hidden;" parent="OjjNsM4bhcPighJ7UcnU-18" vertex="1">
          <mxGeometry x="30" width="199" height="30" as="geometry">
            <mxRectangle width="199" height="30" as="alternateBounds" />
          </mxGeometry>
        </mxCell>
        <mxCell id="OjjNsM4bhcPighJ7UcnU-40" value="Customer" style="shape=table;startSize=30;container=1;collapsible=1;childLayout=tableLayout;fixedRows=1;rowLines=0;fontStyle=1;align=center;resizeLast=1;" parent="1" vertex="1">
          <mxGeometry x="21" y="20" width="240" height="240" as="geometry" />
        </mxCell>
        <mxCell id="OjjNsM4bhcPighJ7UcnU-41" value="" style="shape=tableRow;horizontal=0;startSize=0;swimlaneHead=0;swimlaneBody=0;fillColor=none;collapsible=0;dropTarget=0;points=[[0,0.5],[1,0.5]];portConstraint=eastwest;top=0;left=0;right=0;bottom=1;" parent="OjjNsM4bhcPighJ7UcnU-40" vertex="1">
          <mxGeometry y="30" width="240" height="30" as="geometry" />
        </mxCell>
        <mxCell id="OjjNsM4bhcPighJ7UcnU-42" value="PK" style="shape=partialRectangle;connectable=0;fillColor=none;top=0;left=0;bottom=0;right=0;fontStyle=1;overflow=hidden;" parent="OjjNsM4bhcPighJ7UcnU-41" vertex="1">
          <mxGeometry width="30" height="30" as="geometry">
            <mxRectangle width="30" height="30" as="alternateBounds" />
          </mxGeometry>
        </mxCell>
        <mxCell id="OjjNsM4bhcPighJ7UcnU-43" value="CustomerId : INT()" style="shape=partialRectangle;connectable=0;fillColor=none;top=0;left=0;bottom=0;right=0;align=left;spacingLeft=6;fontStyle=5;overflow=hidden;" parent="OjjNsM4bhcPighJ7UcnU-41" vertex="1">
          <mxGeometry x="30" width="210" height="30" as="geometry">
            <mxRectangle width="210" height="30" as="alternateBounds" />
          </mxGeometry>
        </mxCell>
        <mxCell id="4ooEKTbWzyXeC323ggG1-7" style="shape=tableRow;horizontal=0;startSize=0;swimlaneHead=0;swimlaneBody=0;fillColor=none;collapsible=0;dropTarget=0;points=[[0,0.5],[1,0.5]];portConstraint=eastwest;top=0;left=0;right=0;bottom=0;" parent="OjjNsM4bhcPighJ7UcnU-40" vertex="1">
          <mxGeometry y="60" width="240" height="30" as="geometry" />
        </mxCell>
        <mxCell id="4ooEKTbWzyXeC323ggG1-8" style="shape=partialRectangle;connectable=0;fillColor=none;top=0;left=0;bottom=0;right=0;editable=1;overflow=hidden;" parent="4ooEKTbWzyXeC323ggG1-7" vertex="1">
          <mxGeometry width="30" height="30" as="geometry">
            <mxRectangle width="30" height="30" as="alternateBounds" />
          </mxGeometry>
        </mxCell>
        <mxCell id="4ooEKTbWzyXeC323ggG1-9" value="CustomerName: NVARCHAR" style="shape=partialRectangle;connectable=0;fillColor=none;top=0;left=0;bottom=0;right=0;align=left;spacingLeft=6;overflow=hidden;" parent="4ooEKTbWzyXeC323ggG1-7" vertex="1">
          <mxGeometry x="30" width="210" height="30" as="geometry">
            <mxRectangle width="210" height="30" as="alternateBounds" />
          </mxGeometry>
        </mxCell>
        <mxCell id="4ooEKTbWzyXeC323ggG1-10" style="shape=tableRow;horizontal=0;startSize=0;swimlaneHead=0;swimlaneBody=0;fillColor=none;collapsible=0;dropTarget=0;points=[[0,0.5],[1,0.5]];portConstraint=eastwest;top=0;left=0;right=0;bottom=0;" parent="OjjNsM4bhcPighJ7UcnU-40" vertex="1">
          <mxGeometry y="90" width="240" height="30" as="geometry" />
        </mxCell>
        <mxCell id="4ooEKTbWzyXeC323ggG1-11" style="shape=partialRectangle;connectable=0;fillColor=none;top=0;left=0;bottom=0;right=0;editable=1;overflow=hidden;" parent="4ooEKTbWzyXeC323ggG1-10" vertex="1">
          <mxGeometry width="30" height="30" as="geometry">
            <mxRectangle width="30" height="30" as="alternateBounds" />
          </mxGeometry>
        </mxCell>
        <mxCell id="4ooEKTbWzyXeC323ggG1-12" value="CustomerPhoneNumber" style="shape=partialRectangle;connectable=0;fillColor=none;top=0;left=0;bottom=0;right=0;align=left;spacingLeft=6;overflow=hidden;" parent="4ooEKTbWzyXeC323ggG1-10" vertex="1">
          <mxGeometry x="30" width="210" height="30" as="geometry">
            <mxRectangle width="210" height="30" as="alternateBounds" />
          </mxGeometry>
        </mxCell>
        <mxCell id="OjjNsM4bhcPighJ7UcnU-100" style="shape=tableRow;horizontal=0;startSize=0;swimlaneHead=0;swimlaneBody=0;fillColor=none;collapsible=0;dropTarget=0;points=[[0,0.5],[1,0.5]];portConstraint=eastwest;top=0;left=0;right=0;bottom=0;" parent="OjjNsM4bhcPighJ7UcnU-40" vertex="1">
          <mxGeometry y="120" width="240" height="30" as="geometry" />
        </mxCell>
        <mxCell id="OjjNsM4bhcPighJ7UcnU-101" style="shape=partialRectangle;connectable=0;fillColor=none;top=0;left=0;bottom=0;right=0;editable=1;overflow=hidden;" parent="OjjNsM4bhcPighJ7UcnU-100" vertex="1">
          <mxGeometry width="30" height="30" as="geometry">
            <mxRectangle width="30" height="30" as="alternateBounds" />
          </mxGeometry>
        </mxCell>
        <mxCell id="OjjNsM4bhcPighJ7UcnU-102" value="Sex : BIT(0:MALE , 1:FEMALE )" style="shape=partialRectangle;connectable=0;fillColor=none;top=0;left=0;bottom=0;right=0;align=left;spacingLeft=6;overflow=hidden;" parent="OjjNsM4bhcPighJ7UcnU-100" vertex="1">
          <mxGeometry x="30" width="210" height="30" as="geometry">
            <mxRectangle width="210" height="30" as="alternateBounds" />
          </mxGeometry>
        </mxCell>
        <mxCell id="OjjNsM4bhcPighJ7UcnU-103" style="shape=tableRow;horizontal=0;startSize=0;swimlaneHead=0;swimlaneBody=0;fillColor=none;collapsible=0;dropTarget=0;points=[[0,0.5],[1,0.5]];portConstraint=eastwest;top=0;left=0;right=0;bottom=0;" parent="OjjNsM4bhcPighJ7UcnU-40" vertex="1">
          <mxGeometry y="150" width="240" height="30" as="geometry" />
        </mxCell>
        <mxCell id="OjjNsM4bhcPighJ7UcnU-104" style="shape=partialRectangle;connectable=0;fillColor=none;top=0;left=0;bottom=0;right=0;editable=1;overflow=hidden;" parent="OjjNsM4bhcPighJ7UcnU-103" vertex="1">
          <mxGeometry width="30" height="30" as="geometry">
            <mxRectangle width="30" height="30" as="alternateBounds" />
          </mxGeometry>
        </mxCell>
        <mxCell id="OjjNsM4bhcPighJ7UcnU-105" value="Email : VARCHAR()" style="shape=partialRectangle;connectable=0;fillColor=none;top=0;left=0;bottom=0;right=0;align=left;spacingLeft=6;overflow=hidden;" parent="OjjNsM4bhcPighJ7UcnU-103" vertex="1">
          <mxGeometry x="30" width="210" height="30" as="geometry">
            <mxRectangle width="210" height="30" as="alternateBounds" />
          </mxGeometry>
        </mxCell>
        <mxCell id="OjjNsM4bhcPighJ7UcnU-50" value="" style="shape=tableRow;horizontal=0;startSize=0;swimlaneHead=0;swimlaneBody=0;fillColor=none;collapsible=0;dropTarget=0;points=[[0,0.5],[1,0.5]];portConstraint=eastwest;top=0;left=0;right=0;bottom=0;" parent="OjjNsM4bhcPighJ7UcnU-40" vertex="1">
          <mxGeometry y="180" width="240" height="30" as="geometry" />
        </mxCell>
        <mxCell id="OjjNsM4bhcPighJ7UcnU-51" value="" style="shape=partialRectangle;connectable=0;fillColor=none;top=0;left=0;bottom=0;right=0;editable=1;overflow=hidden;" parent="OjjNsM4bhcPighJ7UcnU-50" vertex="1">
          <mxGeometry width="30" height="30" as="geometry">
            <mxRectangle width="30" height="30" as="alternateBounds" />
          </mxGeometry>
        </mxCell>
        <mxCell id="OjjNsM4bhcPighJ7UcnU-52" value="DateOfBirth : DATE()" style="shape=partialRectangle;connectable=0;fillColor=none;top=0;left=0;bottom=0;right=0;align=left;spacingLeft=6;overflow=hidden;" parent="OjjNsM4bhcPighJ7UcnU-50" vertex="1">
          <mxGeometry x="30" width="210" height="30" as="geometry">
            <mxRectangle width="210" height="30" as="alternateBounds" />
          </mxGeometry>
        </mxCell>
        <mxCell id="OjjNsM4bhcPighJ7UcnU-193" style="shape=tableRow;horizontal=0;startSize=0;swimlaneHead=0;swimlaneBody=0;fillColor=none;collapsible=0;dropTarget=0;points=[[0,0.5],[1,0.5]];portConstraint=eastwest;top=0;left=0;right=0;bottom=0;" parent="OjjNsM4bhcPighJ7UcnU-40" vertex="1">
          <mxGeometry y="210" width="240" height="30" as="geometry" />
        </mxCell>
        <mxCell id="OjjNsM4bhcPighJ7UcnU-194" style="shape=partialRectangle;connectable=0;fillColor=none;top=0;left=0;bottom=0;right=0;editable=1;overflow=hidden;" parent="OjjNsM4bhcPighJ7UcnU-193" vertex="1">
          <mxGeometry width="30" height="30" as="geometry">
            <mxRectangle width="30" height="30" as="alternateBounds" />
          </mxGeometry>
        </mxCell>
        <mxCell id="OjjNsM4bhcPighJ7UcnU-195" value="_Password : VARCHAR()" style="shape=partialRectangle;connectable=0;fillColor=none;top=0;left=0;bottom=0;right=0;align=left;spacingLeft=6;overflow=hidden;" parent="OjjNsM4bhcPighJ7UcnU-193" vertex="1">
          <mxGeometry x="30" width="210" height="30" as="geometry">
            <mxRectangle width="210" height="30" as="alternateBounds" />
          </mxGeometry>
        </mxCell>
        <mxCell id="OjjNsM4bhcPighJ7UcnU-87" value="Address" style="shape=table;startSize=30;container=1;collapsible=1;childLayout=tableLayout;fixedRows=1;rowLines=0;fontStyle=1;align=center;resizeLast=1;" parent="1" vertex="1">
          <mxGeometry x="560" y="590" width="250" height="210" as="geometry" />
        </mxCell>
        <mxCell id="OjjNsM4bhcPighJ7UcnU-88" value="" style="shape=tableRow;horizontal=0;startSize=0;swimlaneHead=0;swimlaneBody=0;fillColor=none;collapsible=0;dropTarget=0;points=[[0,0.5],[1,0.5]];portConstraint=eastwest;top=0;left=0;right=0;bottom=1;" parent="OjjNsM4bhcPighJ7UcnU-87" vertex="1">
          <mxGeometry y="30" width="250" height="30" as="geometry" />
        </mxCell>
        <mxCell id="OjjNsM4bhcPighJ7UcnU-89" value="PK" style="shape=partialRectangle;connectable=0;fillColor=none;top=0;left=0;bottom=0;right=0;fontStyle=1;overflow=hidden;" parent="OjjNsM4bhcPighJ7UcnU-88" vertex="1">
          <mxGeometry width="30" height="30" as="geometry">
            <mxRectangle width="30" height="30" as="alternateBounds" />
          </mxGeometry>
        </mxCell>
        <mxCell id="OjjNsM4bhcPighJ7UcnU-90" value="AddressId : INT()" style="shape=partialRectangle;connectable=0;fillColor=none;top=0;left=0;bottom=0;right=0;align=left;spacingLeft=6;fontStyle=5;overflow=hidden;" parent="OjjNsM4bhcPighJ7UcnU-88" vertex="1">
          <mxGeometry x="30" width="220" height="30" as="geometry">
            <mxRectangle width="220" height="30" as="alternateBounds" />
          </mxGeometry>
        </mxCell>
        <mxCell id="OjjNsM4bhcPighJ7UcnU-97" value="" style="shape=tableRow;horizontal=0;startSize=0;swimlaneHead=0;swimlaneBody=0;fillColor=none;collapsible=0;dropTarget=0;points=[[0,0.5],[1,0.5]];portConstraint=eastwest;top=0;left=0;right=0;bottom=0;" parent="OjjNsM4bhcPighJ7UcnU-87" vertex="1">
          <mxGeometry y="60" width="250" height="30" as="geometry" />
        </mxCell>
        <mxCell id="OjjNsM4bhcPighJ7UcnU-98" value="" style="shape=partialRectangle;connectable=0;fillColor=none;top=0;left=0;bottom=0;right=0;editable=1;overflow=hidden;" parent="OjjNsM4bhcPighJ7UcnU-97" vertex="1">
          <mxGeometry width="30" height="30" as="geometry">
            <mxRectangle width="30" height="30" as="alternateBounds" />
          </mxGeometry>
        </mxCell>
        <mxCell id="OjjNsM4bhcPighJ7UcnU-99" value="Country : NVARCHAR()" style="shape=partialRectangle;connectable=0;fillColor=none;top=0;left=0;bottom=0;right=0;align=left;spacingLeft=6;overflow=hidden;" parent="OjjNsM4bhcPighJ7UcnU-97" vertex="1">
          <mxGeometry x="30" width="220" height="30" as="geometry">
            <mxRectangle width="220" height="30" as="alternateBounds" />
          </mxGeometry>
        </mxCell>
        <mxCell id="OjjNsM4bhcPighJ7UcnU-121" style="shape=tableRow;horizontal=0;startSize=0;swimlaneHead=0;swimlaneBody=0;fillColor=none;collapsible=0;dropTarget=0;points=[[0,0.5],[1,0.5]];portConstraint=eastwest;top=0;left=0;right=0;bottom=0;" parent="OjjNsM4bhcPighJ7UcnU-87" vertex="1">
          <mxGeometry y="90" width="250" height="30" as="geometry" />
        </mxCell>
        <mxCell id="OjjNsM4bhcPighJ7UcnU-122" style="shape=partialRectangle;connectable=0;fillColor=none;top=0;left=0;bottom=0;right=0;editable=1;overflow=hidden;" parent="OjjNsM4bhcPighJ7UcnU-121" vertex="1">
          <mxGeometry width="30" height="30" as="geometry">
            <mxRectangle width="30" height="30" as="alternateBounds" />
          </mxGeometry>
        </mxCell>
        <mxCell id="OjjNsM4bhcPighJ7UcnU-123" value="City : NVARCHAR()" style="shape=partialRectangle;connectable=0;fillColor=none;top=0;left=0;bottom=0;right=0;align=left;spacingLeft=6;overflow=hidden;" parent="OjjNsM4bhcPighJ7UcnU-121" vertex="1">
          <mxGeometry x="30" width="220" height="30" as="geometry">
            <mxRectangle width="220" height="30" as="alternateBounds" />
          </mxGeometry>
        </mxCell>
        <mxCell id="OjjNsM4bhcPighJ7UcnU-124" style="shape=tableRow;horizontal=0;startSize=0;swimlaneHead=0;swimlaneBody=0;fillColor=none;collapsible=0;dropTarget=0;points=[[0,0.5],[1,0.5]];portConstraint=eastwest;top=0;left=0;right=0;bottom=0;" parent="OjjNsM4bhcPighJ7UcnU-87" vertex="1">
          <mxGeometry y="120" width="250" height="30" as="geometry" />
        </mxCell>
        <mxCell id="OjjNsM4bhcPighJ7UcnU-125" style="shape=partialRectangle;connectable=0;fillColor=none;top=0;left=0;bottom=0;right=0;editable=1;overflow=hidden;" parent="OjjNsM4bhcPighJ7UcnU-124" vertex="1">
          <mxGeometry width="30" height="30" as="geometry">
            <mxRectangle width="30" height="30" as="alternateBounds" />
          </mxGeometry>
        </mxCell>
        <mxCell id="OjjNsM4bhcPighJ7UcnU-126" value="District : NVARCHAR()" style="shape=partialRectangle;connectable=0;fillColor=none;top=0;left=0;bottom=0;right=0;align=left;spacingLeft=6;overflow=hidden;" parent="OjjNsM4bhcPighJ7UcnU-124" vertex="1">
          <mxGeometry x="30" width="220" height="30" as="geometry">
            <mxRectangle width="220" height="30" as="alternateBounds" />
          </mxGeometry>
        </mxCell>
        <mxCell id="OjjNsM4bhcPighJ7UcnU-127" style="shape=tableRow;horizontal=0;startSize=0;swimlaneHead=0;swimlaneBody=0;fillColor=none;collapsible=0;dropTarget=0;points=[[0,0.5],[1,0.5]];portConstraint=eastwest;top=0;left=0;right=0;bottom=0;" parent="OjjNsM4bhcPighJ7UcnU-87" vertex="1">
          <mxGeometry y="150" width="250" height="30" as="geometry" />
        </mxCell>
        <mxCell id="OjjNsM4bhcPighJ7UcnU-128" style="shape=partialRectangle;connectable=0;fillColor=none;top=0;left=0;bottom=0;right=0;editable=1;overflow=hidden;" parent="OjjNsM4bhcPighJ7UcnU-127" vertex="1">
          <mxGeometry width="30" height="30" as="geometry">
            <mxRectangle width="30" height="30" as="alternateBounds" />
          </mxGeometry>
        </mxCell>
        <mxCell id="OjjNsM4bhcPighJ7UcnU-129" value="Ward : NVARCHAR()" style="shape=partialRectangle;connectable=0;fillColor=none;top=0;left=0;bottom=0;right=0;align=left;spacingLeft=6;overflow=hidden;" parent="OjjNsM4bhcPighJ7UcnU-127" vertex="1">
          <mxGeometry x="30" width="220" height="30" as="geometry">
            <mxRectangle width="220" height="30" as="alternateBounds" />
          </mxGeometry>
        </mxCell>
        <mxCell id="OjjNsM4bhcPighJ7UcnU-130" style="shape=tableRow;horizontal=0;startSize=0;swimlaneHead=0;swimlaneBody=0;fillColor=none;collapsible=0;dropTarget=0;points=[[0,0.5],[1,0.5]];portConstraint=eastwest;top=0;left=0;right=0;bottom=0;" parent="OjjNsM4bhcPighJ7UcnU-87" vertex="1">
          <mxGeometry y="180" width="250" height="30" as="geometry" />
        </mxCell>
        <mxCell id="OjjNsM4bhcPighJ7UcnU-131" style="shape=partialRectangle;connectable=0;fillColor=none;top=0;left=0;bottom=0;right=0;editable=1;overflow=hidden;" parent="OjjNsM4bhcPighJ7UcnU-130" vertex="1">
          <mxGeometry width="30" height="30" as="geometry">
            <mxRectangle width="30" height="30" as="alternateBounds" />
          </mxGeometry>
        </mxCell>
        <mxCell id="OjjNsM4bhcPighJ7UcnU-132" value="ApartmentNumber : NVARCHAR()" style="shape=partialRectangle;connectable=0;fillColor=none;top=0;left=0;bottom=0;right=0;align=left;spacingLeft=6;overflow=hidden;" parent="OjjNsM4bhcPighJ7UcnU-130" vertex="1">
          <mxGeometry x="30" width="220" height="30" as="geometry">
            <mxRectangle width="220" height="30" as="alternateBounds" />
          </mxGeometry>
        </mxCell>
        <mxCell id="OjjNsM4bhcPighJ7UcnU-133" value="Customer_Address" style="shape=table;startSize=30;container=1;collapsible=1;childLayout=tableLayout;fixedRows=1;rowLines=0;fontStyle=1;align=center;resizeLast=1;" parent="1" vertex="1">
          <mxGeometry x="160" y="560" width="170" height="120" as="geometry" />
        </mxCell>
        <mxCell id="OjjNsM4bhcPighJ7UcnU-137" value="" style="shape=tableRow;horizontal=0;startSize=0;swimlaneHead=0;swimlaneBody=0;fillColor=none;collapsible=0;dropTarget=0;points=[[0,0.5],[1,0.5]];portConstraint=eastwest;top=0;left=0;right=0;bottom=0;" parent="OjjNsM4bhcPighJ7UcnU-133" vertex="1">
          <mxGeometry y="30" width="170" height="30" as="geometry" />
        </mxCell>
        <mxCell id="OjjNsM4bhcPighJ7UcnU-138" value="FK" style="shape=partialRectangle;connectable=0;fillColor=none;top=0;left=0;bottom=0;right=0;editable=1;overflow=hidden;" parent="OjjNsM4bhcPighJ7UcnU-137" vertex="1">
          <mxGeometry width="30" height="30" as="geometry">
            <mxRectangle width="30" height="30" as="alternateBounds" />
          </mxGeometry>
        </mxCell>
        <mxCell id="OjjNsM4bhcPighJ7UcnU-139" value="CustomerId : INT()" style="shape=partialRectangle;connectable=0;fillColor=none;top=0;left=0;bottom=0;right=0;align=left;spacingLeft=6;overflow=hidden;" parent="OjjNsM4bhcPighJ7UcnU-137" vertex="1">
          <mxGeometry x="30" width="140" height="30" as="geometry">
            <mxRectangle width="140" height="30" as="alternateBounds" />
          </mxGeometry>
        </mxCell>
        <mxCell id="OjjNsM4bhcPighJ7UcnU-140" value="" style="shape=tableRow;horizontal=0;startSize=0;swimlaneHead=0;swimlaneBody=0;fillColor=none;collapsible=0;dropTarget=0;points=[[0,0.5],[1,0.5]];portConstraint=eastwest;top=0;left=0;right=0;bottom=0;" parent="OjjNsM4bhcPighJ7UcnU-133" vertex="1">
          <mxGeometry y="60" width="170" height="30" as="geometry" />
        </mxCell>
        <mxCell id="OjjNsM4bhcPighJ7UcnU-141" value="FK" style="shape=partialRectangle;connectable=0;fillColor=none;top=0;left=0;bottom=0;right=0;editable=1;overflow=hidden;" parent="OjjNsM4bhcPighJ7UcnU-140" vertex="1">
          <mxGeometry width="30" height="30" as="geometry">
            <mxRectangle width="30" height="30" as="alternateBounds" />
          </mxGeometry>
        </mxCell>
        <mxCell id="OjjNsM4bhcPighJ7UcnU-142" value="AddressId : INT()" style="shape=partialRectangle;connectable=0;fillColor=none;top=0;left=0;bottom=0;right=0;align=left;spacingLeft=6;overflow=hidden;" parent="OjjNsM4bhcPighJ7UcnU-140" vertex="1">
          <mxGeometry x="30" width="140" height="30" as="geometry">
            <mxRectangle width="140" height="30" as="alternateBounds" />
          </mxGeometry>
        </mxCell>
        <mxCell id="OjjNsM4bhcPighJ7UcnU-143" value="" style="shape=tableRow;horizontal=0;startSize=0;swimlaneHead=0;swimlaneBody=0;fillColor=none;collapsible=0;dropTarget=0;points=[[0,0.5],[1,0.5]];portConstraint=eastwest;top=0;left=0;right=0;bottom=0;" parent="OjjNsM4bhcPighJ7UcnU-133" vertex="1">
          <mxGeometry y="90" width="170" height="30" as="geometry" />
        </mxCell>
        <mxCell id="OjjNsM4bhcPighJ7UcnU-144" value="" style="shape=partialRectangle;connectable=0;fillColor=none;top=0;left=0;bottom=0;right=0;editable=1;overflow=hidden;" parent="OjjNsM4bhcPighJ7UcnU-143" vertex="1">
          <mxGeometry width="30" height="30" as="geometry">
            <mxRectangle width="30" height="30" as="alternateBounds" />
          </mxGeometry>
        </mxCell>
        <mxCell id="OjjNsM4bhcPighJ7UcnU-145" value="AddressType : BIT()" style="shape=partialRectangle;connectable=0;fillColor=none;top=0;left=0;bottom=0;right=0;align=left;spacingLeft=6;overflow=hidden;" parent="OjjNsM4bhcPighJ7UcnU-143" vertex="1">
          <mxGeometry x="30" width="140" height="30" as="geometry">
            <mxRectangle width="140" height="30" as="alternateBounds" />
          </mxGeometry>
        </mxCell>
        <mxCell id="OjjNsM4bhcPighJ7UcnU-150" value="&lt;div style=&quot;text-align: left;&quot;&gt;&lt;span style=&quot;background-color: initial;&quot;&gt;AddressType:&lt;/span&gt;&lt;/div&gt;&lt;div style=&quot;text-align: left;&quot;&gt;&lt;span style=&quot;background-color: initial;&quot;&gt;0: Default Delivery Address&lt;/span&gt;&lt;/div&gt;&lt;div style=&quot;text-align: left;&quot;&gt;&lt;span style=&quot;background-color: initial;&quot;&gt;1: Another Delivery Address&lt;/span&gt;&lt;/div&gt;" style="shape=note;size=20;whiteSpace=wrap;html=1;" parent="1" vertex="1">
          <mxGeometry x="165" y="710" width="160" height="100" as="geometry" />
        </mxCell>
        <mxCell id="OjjNsM4bhcPighJ7UcnU-153" value="" style="endArrow=none;html=1;rounded=0;entryX=0.5;entryY=0;entryDx=0;entryDy=0;entryPerimeter=0;exitX=0.5;exitY=1;exitDx=0;exitDy=0;exitPerimeter=0;" parent="1" source="OjjNsM4bhcPighJ7UcnU-143" target="OjjNsM4bhcPighJ7UcnU-150" edge="1">
          <mxGeometry relative="1" as="geometry">
            <mxPoint x="260" y="640" as="sourcePoint" />
            <mxPoint x="360" y="285" as="targetPoint" />
          </mxGeometry>
        </mxCell>
        <mxCell id="OjjNsM4bhcPighJ7UcnU-154" value="Cart" style="shape=table;startSize=30;container=1;collapsible=1;childLayout=tableLayout;fixedRows=1;rowLines=0;fontStyle=1;align=center;resizeLast=1;" parent="1" vertex="1">
          <mxGeometry x="349" y="20" width="180" height="120" as="geometry" />
        </mxCell>
        <mxCell id="OjjNsM4bhcPighJ7UcnU-158" value="" style="shape=tableRow;horizontal=0;startSize=0;swimlaneHead=0;swimlaneBody=0;fillColor=none;collapsible=0;dropTarget=0;points=[[0,0.5],[1,0.5]];portConstraint=eastwest;top=0;left=0;right=0;bottom=0;" parent="OjjNsM4bhcPighJ7UcnU-154" vertex="1">
          <mxGeometry y="30" width="180" height="30" as="geometry" />
        </mxCell>
        <mxCell id="OjjNsM4bhcPighJ7UcnU-159" value="FK" style="shape=partialRectangle;connectable=0;fillColor=none;top=0;left=0;bottom=0;right=0;editable=1;overflow=hidden;" parent="OjjNsM4bhcPighJ7UcnU-158" vertex="1">
          <mxGeometry width="30" height="30" as="geometry">
            <mxRectangle width="30" height="30" as="alternateBounds" />
          </mxGeometry>
        </mxCell>
        <mxCell id="OjjNsM4bhcPighJ7UcnU-160" value="CustomerId : INT()" style="shape=partialRectangle;connectable=0;fillColor=none;top=0;left=0;bottom=0;right=0;align=left;spacingLeft=6;overflow=hidden;" parent="OjjNsM4bhcPighJ7UcnU-158" vertex="1">
          <mxGeometry x="30" width="150" height="30" as="geometry">
            <mxRectangle width="150" height="30" as="alternateBounds" />
          </mxGeometry>
        </mxCell>
        <mxCell id="OjjNsM4bhcPighJ7UcnU-161" value="" style="shape=tableRow;horizontal=0;startSize=0;swimlaneHead=0;swimlaneBody=0;fillColor=none;collapsible=0;dropTarget=0;points=[[0,0.5],[1,0.5]];portConstraint=eastwest;top=0;left=0;right=0;bottom=0;" parent="OjjNsM4bhcPighJ7UcnU-154" vertex="1">
          <mxGeometry y="60" width="180" height="30" as="geometry" />
        </mxCell>
        <mxCell id="OjjNsM4bhcPighJ7UcnU-162" value="FK" style="shape=partialRectangle;connectable=0;fillColor=none;top=0;left=0;bottom=0;right=0;editable=1;overflow=hidden;" parent="OjjNsM4bhcPighJ7UcnU-161" vertex="1">
          <mxGeometry width="30" height="30" as="geometry">
            <mxRectangle width="30" height="30" as="alternateBounds" />
          </mxGeometry>
        </mxCell>
        <mxCell id="OjjNsM4bhcPighJ7UcnU-163" value="ProductId : INT()" style="shape=partialRectangle;connectable=0;fillColor=none;top=0;left=0;bottom=0;right=0;align=left;spacingLeft=6;overflow=hidden;" parent="OjjNsM4bhcPighJ7UcnU-161" vertex="1">
          <mxGeometry x="30" width="150" height="30" as="geometry">
            <mxRectangle width="150" height="30" as="alternateBounds" />
          </mxGeometry>
        </mxCell>
        <mxCell id="OjjNsM4bhcPighJ7UcnU-164" value="" style="shape=tableRow;horizontal=0;startSize=0;swimlaneHead=0;swimlaneBody=0;fillColor=none;collapsible=0;dropTarget=0;points=[[0,0.5],[1,0.5]];portConstraint=eastwest;top=0;left=0;right=0;bottom=0;" parent="OjjNsM4bhcPighJ7UcnU-154" vertex="1">
          <mxGeometry y="90" width="180" height="30" as="geometry" />
        </mxCell>
        <mxCell id="OjjNsM4bhcPighJ7UcnU-165" value="" style="shape=partialRectangle;connectable=0;fillColor=none;top=0;left=0;bottom=0;right=0;editable=1;overflow=hidden;" parent="OjjNsM4bhcPighJ7UcnU-164" vertex="1">
          <mxGeometry width="30" height="30" as="geometry">
            <mxRectangle width="30" height="30" as="alternateBounds" />
          </mxGeometry>
        </mxCell>
        <mxCell id="OjjNsM4bhcPighJ7UcnU-166" value="NumOfProduct : INT()" style="shape=partialRectangle;connectable=0;fillColor=none;top=0;left=0;bottom=0;right=0;align=left;spacingLeft=6;overflow=hidden;" parent="OjjNsM4bhcPighJ7UcnU-164" vertex="1">
          <mxGeometry x="30" width="150" height="30" as="geometry">
            <mxRectangle width="150" height="30" as="alternateBounds" />
          </mxGeometry>
        </mxCell>
        <mxCell id="ASeagzgIFATcS5KcZaTp-2" value="" style="fontSize=12;html=1;endArrow=ERoneToMany;rounded=0;entryX=1;entryY=0.5;entryDx=0;entryDy=0;" parent="1" target="fYZR1P8XknR3bd0_E2So-1" edge="1">
          <mxGeometry width="100" height="100" relative="1" as="geometry">
            <mxPoint x="1110" y="155" as="sourcePoint" />
            <mxPoint x="1050" y="200" as="targetPoint" />
          </mxGeometry>
        </mxCell>
        <mxCell id="ASeagzgIFATcS5KcZaTp-4" value="" style="edgeStyle=entityRelationEdgeStyle;fontSize=12;html=1;endArrow=ERoneToMany;rounded=0;exitX=1;exitY=0.5;exitDx=0;exitDy=0;entryX=0;entryY=0.5;entryDx=0;entryDy=0;" parent="1" source="OjjNsM4bhcPighJ7UcnU-41" target="OjjNsM4bhcPighJ7UcnU-158" edge="1">
          <mxGeometry width="100" height="100" relative="1" as="geometry">
            <mxPoint x="380" y="340" as="sourcePoint" />
            <mxPoint x="480" y="240" as="targetPoint" />
          </mxGeometry>
        </mxCell>
        <mxCell id="ASeagzgIFATcS5KcZaTp-5" value="" style="edgeStyle=entityRelationEdgeStyle;fontSize=12;html=1;endArrow=none;rounded=0;exitX=1;exitY=0.5;exitDx=0;exitDy=0;entryX=0;entryY=0.5;entryDx=0;entryDy=0;endFill=0;startArrow=ERoneToMany;startFill=0;" parent="1" source="OjjNsM4bhcPighJ7UcnU-161" target="OjjNsM4bhcPighJ7UcnU-2" edge="1">
          <mxGeometry width="100" height="100" relative="1" as="geometry">
            <mxPoint x="380" y="340" as="sourcePoint" />
            <mxPoint x="480" y="240" as="targetPoint" />
          </mxGeometry>
        </mxCell>
        <mxCell id="ASeagzgIFATcS5KcZaTp-6" value="" style="fontSize=12;html=1;endArrow=ERoneToMany;rounded=0;entryX=0;entryY=0.5;entryDx=0;entryDy=0;edgeStyle=orthogonalEdgeStyle;" parent="1" target="OjjNsM4bhcPighJ7UcnU-137" edge="1">
          <mxGeometry width="100" height="100" relative="1" as="geometry">
            <mxPoint x="70" y="260" as="sourcePoint" />
            <mxPoint x="480" y="240" as="targetPoint" />
          </mxGeometry>
        </mxCell>
        <mxCell id="ASeagzgIFATcS5KcZaTp-7" value="" style="edgeStyle=entityRelationEdgeStyle;fontSize=12;html=1;endArrow=none;rounded=0;exitX=1;exitY=0.5;exitDx=0;exitDy=0;entryX=0;entryY=0.5;entryDx=0;entryDy=0;endFill=0;startArrow=ERoneToMany;startFill=0;" parent="1" source="OjjNsM4bhcPighJ7UcnU-140" target="OjjNsM4bhcPighJ7UcnU-88" edge="1">
          <mxGeometry width="100" height="100" relative="1" as="geometry">
            <mxPoint x="450" y="460" as="sourcePoint" />
            <mxPoint x="550" y="360" as="targetPoint" />
          </mxGeometry>
        </mxCell>
        <mxCell id="8iRGd0VhFgobh2DgtSyK-1" value="Customer_Order" style="shape=table;startSize=30;container=1;collapsible=1;childLayout=tableLayout;fixedRows=1;rowLines=0;fontStyle=1;align=center;resizeLast=1;html=1;" parent="1" vertex="1">
          <mxGeometry x="100" y="290" width="180" height="90" as="geometry" />
        </mxCell>
        <mxCell id="8iRGd0VhFgobh2DgtSyK-5" value="" style="shape=tableRow;horizontal=0;startSize=0;swimlaneHead=0;swimlaneBody=0;fillColor=none;collapsible=0;dropTarget=0;points=[[0,0.5],[1,0.5]];portConstraint=eastwest;top=0;left=0;right=0;bottom=0;" parent="8iRGd0VhFgobh2DgtSyK-1" vertex="1">
          <mxGeometry y="30" width="180" height="30" as="geometry" />
        </mxCell>
        <mxCell id="8iRGd0VhFgobh2DgtSyK-6" value="" style="shape=partialRectangle;connectable=0;fillColor=none;top=0;left=0;bottom=0;right=0;editable=1;overflow=hidden;whiteSpace=wrap;html=1;" parent="8iRGd0VhFgobh2DgtSyK-5" vertex="1">
          <mxGeometry width="30" height="30" as="geometry">
            <mxRectangle width="30" height="30" as="alternateBounds" />
          </mxGeometry>
        </mxCell>
        <mxCell id="8iRGd0VhFgobh2DgtSyK-7" value="CustomerId" style="shape=partialRectangle;connectable=0;fillColor=none;top=0;left=0;bottom=0;right=0;align=left;spacingLeft=6;overflow=hidden;whiteSpace=wrap;html=1;" parent="8iRGd0VhFgobh2DgtSyK-5" vertex="1">
          <mxGeometry x="30" width="150" height="30" as="geometry">
            <mxRectangle width="150" height="30" as="alternateBounds" />
          </mxGeometry>
        </mxCell>
        <mxCell id="8iRGd0VhFgobh2DgtSyK-8" value="" style="shape=tableRow;horizontal=0;startSize=0;swimlaneHead=0;swimlaneBody=0;fillColor=none;collapsible=0;dropTarget=0;points=[[0,0.5],[1,0.5]];portConstraint=eastwest;top=0;left=0;right=0;bottom=0;" parent="8iRGd0VhFgobh2DgtSyK-1" vertex="1">
          <mxGeometry y="60" width="180" height="30" as="geometry" />
        </mxCell>
        <mxCell id="8iRGd0VhFgobh2DgtSyK-9" value="" style="shape=partialRectangle;connectable=0;fillColor=none;top=0;left=0;bottom=0;right=0;editable=1;overflow=hidden;whiteSpace=wrap;html=1;" parent="8iRGd0VhFgobh2DgtSyK-8" vertex="1">
          <mxGeometry width="30" height="30" as="geometry">
            <mxRectangle width="30" height="30" as="alternateBounds" />
          </mxGeometry>
        </mxCell>
        <mxCell id="8iRGd0VhFgobh2DgtSyK-10" value="OrderId" style="shape=partialRectangle;connectable=0;fillColor=none;top=0;left=0;bottom=0;right=0;align=left;spacingLeft=6;overflow=hidden;whiteSpace=wrap;html=1;" parent="8iRGd0VhFgobh2DgtSyK-8" vertex="1">
          <mxGeometry x="30" width="150" height="30" as="geometry">
            <mxRectangle width="150" height="30" as="alternateBounds" />
          </mxGeometry>
        </mxCell>
        <mxCell id="8iRGd0VhFgobh2DgtSyK-14" value="Order" style="shape=table;startSize=30;container=1;collapsible=1;childLayout=tableLayout;fixedRows=1;rowLines=0;fontStyle=1;align=center;resizeLast=1;html=1;" parent="1" vertex="1">
          <mxGeometry x="310" y="320" width="180" height="180" as="geometry" />
        </mxCell>
        <mxCell id="8iRGd0VhFgobh2DgtSyK-15" value="" style="shape=tableRow;horizontal=0;startSize=0;swimlaneHead=0;swimlaneBody=0;fillColor=none;collapsible=0;dropTarget=0;points=[[0,0.5],[1,0.5]];portConstraint=eastwest;top=0;left=0;right=0;bottom=1;" parent="8iRGd0VhFgobh2DgtSyK-14" vertex="1">
          <mxGeometry y="30" width="180" height="30" as="geometry" />
        </mxCell>
        <mxCell id="8iRGd0VhFgobh2DgtSyK-16" value="PK" style="shape=partialRectangle;connectable=0;fillColor=none;top=0;left=0;bottom=0;right=0;fontStyle=1;overflow=hidden;whiteSpace=wrap;html=1;" parent="8iRGd0VhFgobh2DgtSyK-15" vertex="1">
          <mxGeometry width="30" height="30" as="geometry">
            <mxRectangle width="30" height="30" as="alternateBounds" />
          </mxGeometry>
        </mxCell>
        <mxCell id="8iRGd0VhFgobh2DgtSyK-17" value="OrderId" style="shape=partialRectangle;connectable=0;fillColor=none;top=0;left=0;bottom=0;right=0;align=left;spacingLeft=6;fontStyle=5;overflow=hidden;whiteSpace=wrap;html=1;" parent="8iRGd0VhFgobh2DgtSyK-15" vertex="1">
          <mxGeometry x="30" width="150" height="30" as="geometry">
            <mxRectangle width="150" height="30" as="alternateBounds" />
          </mxGeometry>
        </mxCell>
        <mxCell id="8iRGd0VhFgobh2DgtSyK-48" style="shape=tableRow;horizontal=0;startSize=0;swimlaneHead=0;swimlaneBody=0;fillColor=none;collapsible=0;dropTarget=0;points=[[0,0.5],[1,0.5]];portConstraint=eastwest;top=0;left=0;right=0;bottom=0;" parent="8iRGd0VhFgobh2DgtSyK-14" vertex="1">
          <mxGeometry y="60" width="180" height="30" as="geometry" />
        </mxCell>
        <mxCell id="8iRGd0VhFgobh2DgtSyK-49" value="FK" style="shape=partialRectangle;connectable=0;fillColor=none;top=0;left=0;bottom=0;right=0;editable=1;overflow=hidden;whiteSpace=wrap;html=1;" parent="8iRGd0VhFgobh2DgtSyK-48" vertex="1">
          <mxGeometry width="30" height="30" as="geometry">
            <mxRectangle width="30" height="30" as="alternateBounds" />
          </mxGeometry>
        </mxCell>
        <mxCell id="8iRGd0VhFgobh2DgtSyK-50" value="AddressId" style="shape=partialRectangle;connectable=0;fillColor=none;top=0;left=0;bottom=0;right=0;align=left;spacingLeft=6;overflow=hidden;whiteSpace=wrap;html=1;" parent="8iRGd0VhFgobh2DgtSyK-48" vertex="1">
          <mxGeometry x="30" width="150" height="30" as="geometry">
            <mxRectangle width="150" height="30" as="alternateBounds" />
          </mxGeometry>
        </mxCell>
        <mxCell id="8iRGd0VhFgobh2DgtSyK-18" value="" style="shape=tableRow;horizontal=0;startSize=0;swimlaneHead=0;swimlaneBody=0;fillColor=none;collapsible=0;dropTarget=0;points=[[0,0.5],[1,0.5]];portConstraint=eastwest;top=0;left=0;right=0;bottom=0;" parent="8iRGd0VhFgobh2DgtSyK-14" vertex="1">
          <mxGeometry y="90" width="180" height="30" as="geometry" />
        </mxCell>
        <mxCell id="8iRGd0VhFgobh2DgtSyK-19" value="" style="shape=partialRectangle;connectable=0;fillColor=none;top=0;left=0;bottom=0;right=0;editable=1;overflow=hidden;whiteSpace=wrap;html=1;" parent="8iRGd0VhFgobh2DgtSyK-18" vertex="1">
          <mxGeometry width="30" height="30" as="geometry">
            <mxRectangle width="30" height="30" as="alternateBounds" />
          </mxGeometry>
        </mxCell>
        <mxCell id="8iRGd0VhFgobh2DgtSyK-20" value="DateCreated" style="shape=partialRectangle;connectable=0;fillColor=none;top=0;left=0;bottom=0;right=0;align=left;spacingLeft=6;overflow=hidden;whiteSpace=wrap;html=1;" parent="8iRGd0VhFgobh2DgtSyK-18" vertex="1">
          <mxGeometry x="30" width="150" height="30" as="geometry">
            <mxRectangle width="150" height="30" as="alternateBounds" />
          </mxGeometry>
        </mxCell>
        <mxCell id="8iRGd0VhFgobh2DgtSyK-21" value="" style="shape=tableRow;horizontal=0;startSize=0;swimlaneHead=0;swimlaneBody=0;fillColor=none;collapsible=0;dropTarget=0;points=[[0,0.5],[1,0.5]];portConstraint=eastwest;top=0;left=0;right=0;bottom=0;" parent="8iRGd0VhFgobh2DgtSyK-14" vertex="1">
          <mxGeometry y="120" width="180" height="30" as="geometry" />
        </mxCell>
        <mxCell id="8iRGd0VhFgobh2DgtSyK-22" value="" style="shape=partialRectangle;connectable=0;fillColor=none;top=0;left=0;bottom=0;right=0;editable=1;overflow=hidden;whiteSpace=wrap;html=1;" parent="8iRGd0VhFgobh2DgtSyK-21" vertex="1">
          <mxGeometry width="30" height="30" as="geometry">
            <mxRectangle width="30" height="30" as="alternateBounds" />
          </mxGeometry>
        </mxCell>
        <mxCell id="8iRGd0VhFgobh2DgtSyK-23" value="DateCompleted" style="shape=partialRectangle;connectable=0;fillColor=none;top=0;left=0;bottom=0;right=0;align=left;spacingLeft=6;overflow=hidden;whiteSpace=wrap;html=1;" parent="8iRGd0VhFgobh2DgtSyK-21" vertex="1">
          <mxGeometry x="30" width="150" height="30" as="geometry">
            <mxRectangle width="150" height="30" as="alternateBounds" />
          </mxGeometry>
        </mxCell>
        <mxCell id="8iRGd0VhFgobh2DgtSyK-29" style="shape=tableRow;horizontal=0;startSize=0;swimlaneHead=0;swimlaneBody=0;fillColor=none;collapsible=0;dropTarget=0;points=[[0,0.5],[1,0.5]];portConstraint=eastwest;top=0;left=0;right=0;bottom=0;" parent="8iRGd0VhFgobh2DgtSyK-14" vertex="1">
          <mxGeometry y="150" width="180" height="30" as="geometry" />
        </mxCell>
        <mxCell id="8iRGd0VhFgobh2DgtSyK-30" style="shape=partialRectangle;connectable=0;fillColor=none;top=0;left=0;bottom=0;right=0;editable=1;overflow=hidden;whiteSpace=wrap;html=1;" parent="8iRGd0VhFgobh2DgtSyK-29" vertex="1">
          <mxGeometry width="30" height="30" as="geometry">
            <mxRectangle width="30" height="30" as="alternateBounds" />
          </mxGeometry>
        </mxCell>
        <mxCell id="8iRGd0VhFgobh2DgtSyK-31" value="Status" style="shape=partialRectangle;connectable=0;fillColor=none;top=0;left=0;bottom=0;right=0;align=left;spacingLeft=6;overflow=hidden;whiteSpace=wrap;html=1;" parent="8iRGd0VhFgobh2DgtSyK-29" vertex="1">
          <mxGeometry x="30" width="150" height="30" as="geometry">
            <mxRectangle width="150" height="30" as="alternateBounds" />
          </mxGeometry>
        </mxCell>
        <mxCell id="8iRGd0VhFgobh2DgtSyK-27" value="" style="edgeStyle=orthogonalEdgeStyle;fontSize=12;html=1;endArrow=ERoneToMany;rounded=0;entryX=0;entryY=0.5;entryDx=0;entryDy=0;" parent="1" target="8iRGd0VhFgobh2DgtSyK-5" edge="1">
          <mxGeometry width="100" height="100" relative="1" as="geometry">
            <mxPoint x="70" y="260" as="sourcePoint" />
            <mxPoint x="460" y="300" as="targetPoint" />
          </mxGeometry>
        </mxCell>
        <mxCell id="8iRGd0VhFgobh2DgtSyK-28" value="" style="edgeStyle=entityRelationEdgeStyle;fontSize=12;html=1;endArrow=ERoneToMany;rounded=0;exitX=1;exitY=0.5;exitDx=0;exitDy=0;entryX=0;entryY=0.5;entryDx=0;entryDy=0;" parent="1" source="8iRGd0VhFgobh2DgtSyK-8" target="8iRGd0VhFgobh2DgtSyK-15" edge="1">
          <mxGeometry width="100" height="100" relative="1" as="geometry">
            <mxPoint x="360" y="400" as="sourcePoint" />
            <mxPoint x="460" y="300" as="targetPoint" />
          </mxGeometry>
        </mxCell>
        <mxCell id="8iRGd0VhFgobh2DgtSyK-32" value="OrderDetails" style="shape=table;startSize=30;container=1;collapsible=1;childLayout=tableLayout;fixedRows=1;rowLines=0;fontStyle=1;align=center;resizeLast=1;html=1;" parent="1" vertex="1">
          <mxGeometry x="550" y="320" width="180" height="120" as="geometry" />
        </mxCell>
        <mxCell id="8iRGd0VhFgobh2DgtSyK-36" value="" style="shape=tableRow;horizontal=0;startSize=0;swimlaneHead=0;swimlaneBody=0;fillColor=none;collapsible=0;dropTarget=0;points=[[0,0.5],[1,0.5]];portConstraint=eastwest;top=0;left=0;right=0;bottom=0;" parent="8iRGd0VhFgobh2DgtSyK-32" vertex="1">
          <mxGeometry y="30" width="180" height="30" as="geometry" />
        </mxCell>
        <mxCell id="8iRGd0VhFgobh2DgtSyK-37" value="FK" style="shape=partialRectangle;connectable=0;fillColor=none;top=0;left=0;bottom=0;right=0;editable=1;overflow=hidden;whiteSpace=wrap;html=1;" parent="8iRGd0VhFgobh2DgtSyK-36" vertex="1">
          <mxGeometry width="30" height="30" as="geometry">
            <mxRectangle width="30" height="30" as="alternateBounds" />
          </mxGeometry>
        </mxCell>
        <mxCell id="8iRGd0VhFgobh2DgtSyK-38" value="OrderId" style="shape=partialRectangle;connectable=0;fillColor=none;top=0;left=0;bottom=0;right=0;align=left;spacingLeft=6;overflow=hidden;whiteSpace=wrap;html=1;" parent="8iRGd0VhFgobh2DgtSyK-36" vertex="1">
          <mxGeometry x="30" width="150" height="30" as="geometry">
            <mxRectangle width="150" height="30" as="alternateBounds" />
          </mxGeometry>
        </mxCell>
        <mxCell id="8iRGd0VhFgobh2DgtSyK-39" value="" style="shape=tableRow;horizontal=0;startSize=0;swimlaneHead=0;swimlaneBody=0;fillColor=none;collapsible=0;dropTarget=0;points=[[0,0.5],[1,0.5]];portConstraint=eastwest;top=0;left=0;right=0;bottom=0;" parent="8iRGd0VhFgobh2DgtSyK-32" vertex="1">
          <mxGeometry y="60" width="180" height="30" as="geometry" />
        </mxCell>
        <mxCell id="8iRGd0VhFgobh2DgtSyK-40" value="FK" style="shape=partialRectangle;connectable=0;fillColor=none;top=0;left=0;bottom=0;right=0;editable=1;overflow=hidden;whiteSpace=wrap;html=1;" parent="8iRGd0VhFgobh2DgtSyK-39" vertex="1">
          <mxGeometry width="30" height="30" as="geometry">
            <mxRectangle width="30" height="30" as="alternateBounds" />
          </mxGeometry>
        </mxCell>
        <mxCell id="8iRGd0VhFgobh2DgtSyK-41" value="ProductId" style="shape=partialRectangle;connectable=0;fillColor=none;top=0;left=0;bottom=0;right=0;align=left;spacingLeft=6;overflow=hidden;whiteSpace=wrap;html=1;" parent="8iRGd0VhFgobh2DgtSyK-39" vertex="1">
          <mxGeometry x="30" width="150" height="30" as="geometry">
            <mxRectangle width="150" height="30" as="alternateBounds" />
          </mxGeometry>
        </mxCell>
        <mxCell id="8iRGd0VhFgobh2DgtSyK-42" value="" style="shape=tableRow;horizontal=0;startSize=0;swimlaneHead=0;swimlaneBody=0;fillColor=none;collapsible=0;dropTarget=0;points=[[0,0.5],[1,0.5]];portConstraint=eastwest;top=0;left=0;right=0;bottom=0;" parent="8iRGd0VhFgobh2DgtSyK-32" vertex="1">
          <mxGeometry y="90" width="180" height="30" as="geometry" />
        </mxCell>
        <mxCell id="8iRGd0VhFgobh2DgtSyK-43" value="" style="shape=partialRectangle;connectable=0;fillColor=none;top=0;left=0;bottom=0;right=0;editable=1;overflow=hidden;whiteSpace=wrap;html=1;" parent="8iRGd0VhFgobh2DgtSyK-42" vertex="1">
          <mxGeometry width="30" height="30" as="geometry">
            <mxRectangle width="30" height="30" as="alternateBounds" />
          </mxGeometry>
        </mxCell>
        <mxCell id="8iRGd0VhFgobh2DgtSyK-44" value="NumOfProduct" style="shape=partialRectangle;connectable=0;fillColor=none;top=0;left=0;bottom=0;right=0;align=left;spacingLeft=6;overflow=hidden;whiteSpace=wrap;html=1;" parent="8iRGd0VhFgobh2DgtSyK-42" vertex="1">
          <mxGeometry x="30" width="150" height="30" as="geometry">
            <mxRectangle width="150" height="30" as="alternateBounds" />
          </mxGeometry>
        </mxCell>
        <mxCell id="8iRGd0VhFgobh2DgtSyK-45" value="" style="edgeStyle=entityRelationEdgeStyle;fontSize=12;html=1;endArrow=ERoneToMany;rounded=0;exitX=1;exitY=0.5;exitDx=0;exitDy=0;entryX=0;entryY=0.5;entryDx=0;entryDy=0;" parent="1" source="8iRGd0VhFgobh2DgtSyK-15" target="8iRGd0VhFgobh2DgtSyK-36" edge="1">
          <mxGeometry width="100" height="100" relative="1" as="geometry">
            <mxPoint x="460" y="400" as="sourcePoint" />
            <mxPoint x="560" y="300" as="targetPoint" />
          </mxGeometry>
        </mxCell>
        <mxCell id="8iRGd0VhFgobh2DgtSyK-46" value="" style="edgeStyle=orthogonalEdgeStyle;fontSize=12;html=1;endArrow=ERoneToMany;rounded=0;exitX=0;exitY=0.5;exitDx=0;exitDy=0;entryX=1;entryY=0.5;entryDx=0;entryDy=0;" parent="1" source="OjjNsM4bhcPighJ7UcnU-2" target="8iRGd0VhFgobh2DgtSyK-39" edge="1">
          <mxGeometry width="100" height="100" relative="1" as="geometry">
            <mxPoint x="460" y="400" as="sourcePoint" />
            <mxPoint x="560" y="300" as="targetPoint" />
          </mxGeometry>
        </mxCell>
        <mxCell id="8iRGd0VhFgobh2DgtSyK-54" value="" style="edgeStyle=orthogonalEdgeStyle;fontSize=12;html=1;endArrow=ERmandOne;startArrow=ERmandOne;rounded=0;exitX=-0.007;exitY=0.065;exitDx=0;exitDy=0;exitPerimeter=0;entryX=1;entryY=0.5;entryDx=0;entryDy=0;" parent="1" source="OjjNsM4bhcPighJ7UcnU-87" target="8iRGd0VhFgobh2DgtSyK-48" edge="1">
          <mxGeometry width="100" height="100" relative="1" as="geometry">
            <mxPoint x="610" y="460" as="sourcePoint" />
            <mxPoint x="710" y="360" as="targetPoint" />
            <Array as="points">
              <mxPoint x="520" y="608" />
              <mxPoint x="520" y="395" />
            </Array>
          </mxGeometry>
        </mxCell>
        <mxCell id="KUb83e4AZ2MbRNR4OI0f-1" value="Category_Subcategory" style="shape=table;startSize=30;container=1;collapsible=1;childLayout=tableLayout;fixedRows=1;rowLines=0;fontStyle=1;align=center;resizeLast=1;html=1;" parent="1" vertex="1">
          <mxGeometry x="1135.5" y="260" width="180" height="90" as="geometry" />
        </mxCell>
        <mxCell id="KUb83e4AZ2MbRNR4OI0f-5" value="" style="shape=tableRow;horizontal=0;startSize=0;swimlaneHead=0;swimlaneBody=0;fillColor=none;collapsible=0;dropTarget=0;points=[[0,0.5],[1,0.5]];portConstraint=eastwest;top=0;left=0;right=0;bottom=0;" parent="KUb83e4AZ2MbRNR4OI0f-1" vertex="1">
          <mxGeometry y="30" width="180" height="30" as="geometry" />
        </mxCell>
        <mxCell id="KUb83e4AZ2MbRNR4OI0f-6" value="" style="shape=partialRectangle;connectable=0;fillColor=none;top=0;left=0;bottom=0;right=0;editable=1;overflow=hidden;whiteSpace=wrap;html=1;" parent="KUb83e4AZ2MbRNR4OI0f-5" vertex="1">
          <mxGeometry width="30" height="30" as="geometry">
            <mxRectangle width="30" height="30" as="alternateBounds" />
          </mxGeometry>
        </mxCell>
        <mxCell id="KUb83e4AZ2MbRNR4OI0f-7" value="CategoryId" style="shape=partialRectangle;connectable=0;fillColor=none;top=0;left=0;bottom=0;right=0;align=left;spacingLeft=6;overflow=hidden;whiteSpace=wrap;html=1;" parent="KUb83e4AZ2MbRNR4OI0f-5" vertex="1">
          <mxGeometry x="30" width="150" height="30" as="geometry">
            <mxRectangle width="150" height="30" as="alternateBounds" />
          </mxGeometry>
        </mxCell>
        <mxCell id="KUb83e4AZ2MbRNR4OI0f-8" value="" style="shape=tableRow;horizontal=0;startSize=0;swimlaneHead=0;swimlaneBody=0;fillColor=none;collapsible=0;dropTarget=0;points=[[0,0.5],[1,0.5]];portConstraint=eastwest;top=0;left=0;right=0;bottom=0;" parent="KUb83e4AZ2MbRNR4OI0f-1" vertex="1">
          <mxGeometry y="60" width="180" height="30" as="geometry" />
        </mxCell>
        <mxCell id="KUb83e4AZ2MbRNR4OI0f-9" value="" style="shape=partialRectangle;connectable=0;fillColor=none;top=0;left=0;bottom=0;right=0;editable=1;overflow=hidden;whiteSpace=wrap;html=1;" parent="KUb83e4AZ2MbRNR4OI0f-8" vertex="1">
          <mxGeometry width="30" height="30" as="geometry">
            <mxRectangle width="30" height="30" as="alternateBounds" />
          </mxGeometry>
        </mxCell>
        <mxCell id="KUb83e4AZ2MbRNR4OI0f-10" value="SubcategoryId" style="shape=partialRectangle;connectable=0;fillColor=none;top=0;left=0;bottom=0;right=0;align=left;spacingLeft=6;overflow=hidden;whiteSpace=wrap;html=1;" parent="KUb83e4AZ2MbRNR4OI0f-8" vertex="1">
          <mxGeometry x="30" width="150" height="30" as="geometry">
            <mxRectangle width="150" height="30" as="alternateBounds" />
          </mxGeometry>
        </mxCell>
        <mxCell id="KUb83e4AZ2MbRNR4OI0f-14" value="" style="edgeStyle=orthogonalEdgeStyle;fontSize=12;html=1;endArrow=ERzeroToMany;endFill=1;rounded=0;exitX=0;exitY=0.5;exitDx=0;exitDy=0;entryX=0;entryY=0.5;entryDx=0;entryDy=0;" parent="1" source="OjjNsM4bhcPighJ7UcnU-18" target="KUb83e4AZ2MbRNR4OI0f-5" edge="1">
          <mxGeometry width="100" height="100" relative="1" as="geometry">
            <mxPoint x="890" y="470" as="sourcePoint" />
            <mxPoint x="990" y="370" as="targetPoint" />
          </mxGeometry>
        </mxCell>
        <mxCell id="KUb83e4AZ2MbRNR4OI0f-15" value="" style="edgeStyle=orthogonalEdgeStyle;fontSize=12;html=1;endArrow=ERzeroToMany;endFill=1;rounded=0;exitX=1;exitY=0.5;exitDx=0;exitDy=0;entryX=1;entryY=0.5;entryDx=0;entryDy=0;" parent="1" source="OjjNsM4bhcPighJ7UcnU-18" target="KUb83e4AZ2MbRNR4OI0f-8" edge="1">
          <mxGeometry width="100" height="100" relative="1" as="geometry">
            <mxPoint x="1360" y="195" as="sourcePoint" />
            <mxPoint x="1385" y="315" as="targetPoint" />
          </mxGeometry>
        </mxCell>
      </root>
    </mxGraphModel>
  </diagram>
  <diagram id="NxfPW2mE-XMSshgKIh44" name="Class (Backend)">
    <mxGraphModel dx="3009" dy="1834" grid="1" gridSize="10" guides="1" tooltips="1" connect="1" arrows="1" fold="1" page="1" pageScale="1" pageWidth="1100" pageHeight="850" math="0" shadow="0">
      <root>
        <mxCell id="0" />
        <mxCell id="1" parent="0" />
        <mxCell id="WOElado9Yr78v6kaY9rG-1" value="" style="rounded=0;whiteSpace=wrap;html=1;fillColor=#fad7ac;strokeColor=#b46504;" parent="1" vertex="1">
          <mxGeometry x="-270" y="-20" width="1100" height="850" as="geometry" />
        </mxCell>
        <mxCell id="WOElado9Yr78v6kaY9rG-2" value="MODEL" style="text;html=1;strokeColor=none;fillColor=none;align=center;verticalAlign=middle;whiteSpace=wrap;rounded=0;fontStyle=1" parent="1" vertex="1">
          <mxGeometry x="-260" y="-10" width="60" height="30" as="geometry" />
        </mxCell>
        <mxCell id="Po-gdq_EGbqkl6x_ksfB-1" value="Product" style="swimlane;fontStyle=1;align=center;verticalAlign=top;childLayout=stackLayout;horizontal=1;startSize=26;horizontalStack=0;resizeParent=1;resizeParentMax=0;resizeLast=0;collapsible=1;marginBottom=0;fillColor=#fa6800;fontColor=#000000;strokeColor=#C73500;" parent="1" vertex="1">
          <mxGeometry x="70" y="300" width="160" height="86" as="geometry" />
        </mxCell>
        <mxCell id="Po-gdq_EGbqkl6x_ksfB-2" value="+ field: type" style="text;strokeColor=none;fillColor=none;align=left;verticalAlign=top;spacingLeft=4;spacingRight=4;overflow=hidden;rotatable=0;points=[[0,0.5],[1,0.5]];portConstraint=eastwest;" parent="Po-gdq_EGbqkl6x_ksfB-1" vertex="1">
          <mxGeometry y="26" width="160" height="26" as="geometry" />
        </mxCell>
        <mxCell id="Po-gdq_EGbqkl6x_ksfB-3" value="" style="line;strokeWidth=1;fillColor=none;align=left;verticalAlign=middle;spacingTop=-1;spacingLeft=3;spacingRight=3;rotatable=0;labelPosition=right;points=[];portConstraint=eastwest;strokeColor=inherit;" parent="Po-gdq_EGbqkl6x_ksfB-1" vertex="1">
          <mxGeometry y="52" width="160" height="8" as="geometry" />
        </mxCell>
        <mxCell id="Po-gdq_EGbqkl6x_ksfB-4" value="+ method(type): type" style="text;strokeColor=none;fillColor=none;align=left;verticalAlign=top;spacingLeft=4;spacingRight=4;overflow=hidden;rotatable=0;points=[[0,0.5],[1,0.5]];portConstraint=eastwest;" parent="Po-gdq_EGbqkl6x_ksfB-1" vertex="1">
          <mxGeometry y="60" width="160" height="26" as="geometry" />
        </mxCell>
        <mxCell id="Po-gdq_EGbqkl6x_ksfB-5" value="Category" style="swimlane;fontStyle=1;align=center;verticalAlign=top;childLayout=stackLayout;horizontal=1;startSize=26;horizontalStack=0;resizeParent=1;resizeParentMax=0;resizeLast=0;collapsible=1;marginBottom=0;fillColor=#fa6800;fontColor=#000000;strokeColor=#C73500;" parent="1" vertex="1">
          <mxGeometry x="260" y="300" width="160" height="86" as="geometry" />
        </mxCell>
        <mxCell id="Po-gdq_EGbqkl6x_ksfB-6" value="+ field: type" style="text;strokeColor=none;fillColor=none;align=left;verticalAlign=top;spacingLeft=4;spacingRight=4;overflow=hidden;rotatable=0;points=[[0,0.5],[1,0.5]];portConstraint=eastwest;" parent="Po-gdq_EGbqkl6x_ksfB-5" vertex="1">
          <mxGeometry y="26" width="160" height="26" as="geometry" />
        </mxCell>
        <mxCell id="Po-gdq_EGbqkl6x_ksfB-7" value="" style="line;strokeWidth=1;fillColor=none;align=left;verticalAlign=middle;spacingTop=-1;spacingLeft=3;spacingRight=3;rotatable=0;labelPosition=right;points=[];portConstraint=eastwest;strokeColor=inherit;" parent="Po-gdq_EGbqkl6x_ksfB-5" vertex="1">
          <mxGeometry y="52" width="160" height="8" as="geometry" />
        </mxCell>
        <mxCell id="Po-gdq_EGbqkl6x_ksfB-8" value="+ method(type): type" style="text;strokeColor=none;fillColor=none;align=left;verticalAlign=top;spacingLeft=4;spacingRight=4;overflow=hidden;rotatable=0;points=[[0,0.5],[1,0.5]];portConstraint=eastwest;" parent="Po-gdq_EGbqkl6x_ksfB-5" vertex="1">
          <mxGeometry y="60" width="160" height="26" as="geometry" />
        </mxCell>
        <mxCell id="Po-gdq_EGbqkl6x_ksfB-14" value="Customer" style="swimlane;fontStyle=1;align=center;verticalAlign=top;childLayout=stackLayout;horizontal=1;startSize=26;horizontalStack=0;resizeParent=1;resizeParentMax=0;resizeLast=0;collapsible=1;marginBottom=0;fillColor=#fa6800;fontColor=#000000;strokeColor=#C73500;" parent="1" vertex="1">
          <mxGeometry x="445" y="300" width="160" height="86" as="geometry" />
        </mxCell>
        <mxCell id="Po-gdq_EGbqkl6x_ksfB-15" value="+ field: type" style="text;strokeColor=none;fillColor=none;align=left;verticalAlign=top;spacingLeft=4;spacingRight=4;overflow=hidden;rotatable=0;points=[[0,0.5],[1,0.5]];portConstraint=eastwest;" parent="Po-gdq_EGbqkl6x_ksfB-14" vertex="1">
          <mxGeometry y="26" width="160" height="26" as="geometry" />
        </mxCell>
        <mxCell id="Po-gdq_EGbqkl6x_ksfB-16" value="" style="line;strokeWidth=1;fillColor=none;align=left;verticalAlign=middle;spacingTop=-1;spacingLeft=3;spacingRight=3;rotatable=0;labelPosition=right;points=[];portConstraint=eastwest;strokeColor=inherit;" parent="Po-gdq_EGbqkl6x_ksfB-14" vertex="1">
          <mxGeometry y="52" width="160" height="8" as="geometry" />
        </mxCell>
        <mxCell id="Po-gdq_EGbqkl6x_ksfB-17" value="+ method(type): type" style="text;strokeColor=none;fillColor=none;align=left;verticalAlign=top;spacingLeft=4;spacingRight=4;overflow=hidden;rotatable=0;points=[[0,0.5],[1,0.5]];portConstraint=eastwest;" parent="Po-gdq_EGbqkl6x_ksfB-14" vertex="1">
          <mxGeometry y="60" width="160" height="26" as="geometry" />
        </mxCell>
        <mxCell id="Po-gdq_EGbqkl6x_ksfB-18" value="Address" style="swimlane;fontStyle=1;align=center;verticalAlign=top;childLayout=stackLayout;horizontal=1;startSize=26;horizontalStack=0;resizeParent=1;resizeParentMax=0;resizeLast=0;collapsible=1;marginBottom=0;fillColor=#fa6800;fontColor=#000000;strokeColor=#C73500;" parent="1" vertex="1">
          <mxGeometry x="635" y="300" width="160" height="86" as="geometry" />
        </mxCell>
        <mxCell id="Po-gdq_EGbqkl6x_ksfB-19" value="+ field: type" style="text;strokeColor=none;fillColor=none;align=left;verticalAlign=top;spacingLeft=4;spacingRight=4;overflow=hidden;rotatable=0;points=[[0,0.5],[1,0.5]];portConstraint=eastwest;" parent="Po-gdq_EGbqkl6x_ksfB-18" vertex="1">
          <mxGeometry y="26" width="160" height="26" as="geometry" />
        </mxCell>
        <mxCell id="Po-gdq_EGbqkl6x_ksfB-20" value="" style="line;strokeWidth=1;fillColor=none;align=left;verticalAlign=middle;spacingTop=-1;spacingLeft=3;spacingRight=3;rotatable=0;labelPosition=right;points=[];portConstraint=eastwest;strokeColor=inherit;" parent="Po-gdq_EGbqkl6x_ksfB-18" vertex="1">
          <mxGeometry y="52" width="160" height="8" as="geometry" />
        </mxCell>
        <mxCell id="Po-gdq_EGbqkl6x_ksfB-21" value="+ method(type): type" style="text;strokeColor=none;fillColor=none;align=left;verticalAlign=top;spacingLeft=4;spacingRight=4;overflow=hidden;rotatable=0;points=[[0,0.5],[1,0.5]];portConstraint=eastwest;" parent="Po-gdq_EGbqkl6x_ksfB-18" vertex="1">
          <mxGeometry y="60" width="160" height="26" as="geometry" />
        </mxCell>
        <mxCell id="Po-gdq_EGbqkl6x_ksfB-22" value="ProductRepository" style="swimlane;fontStyle=1;align=center;verticalAlign=top;childLayout=stackLayout;horizontal=1;startSize=26;horizontalStack=0;resizeParent=1;resizeParentMax=0;resizeLast=0;collapsible=1;marginBottom=0;fillColor=#fa6800;fontColor=#000000;strokeColor=#C73500;" parent="1" vertex="1" collapsed="1">
          <mxGeometry x="70" y="180" width="150" height="30" as="geometry">
            <mxRectangle x="70" y="180" width="160" height="86" as="alternateBounds" />
          </mxGeometry>
        </mxCell>
        <mxCell id="Po-gdq_EGbqkl6x_ksfB-23" value="+ field: type" style="text;strokeColor=none;fillColor=none;align=left;verticalAlign=top;spacingLeft=4;spacingRight=4;overflow=hidden;rotatable=0;points=[[0,0.5],[1,0.5]];portConstraint=eastwest;" parent="Po-gdq_EGbqkl6x_ksfB-22" vertex="1">
          <mxGeometry y="26" width="160" height="26" as="geometry" />
        </mxCell>
        <mxCell id="Po-gdq_EGbqkl6x_ksfB-24" value="" style="line;strokeWidth=1;fillColor=none;align=left;verticalAlign=middle;spacingTop=-1;spacingLeft=3;spacingRight=3;rotatable=0;labelPosition=right;points=[];portConstraint=eastwest;strokeColor=inherit;" parent="Po-gdq_EGbqkl6x_ksfB-22" vertex="1">
          <mxGeometry y="52" width="160" height="8" as="geometry" />
        </mxCell>
        <mxCell id="Po-gdq_EGbqkl6x_ksfB-25" value="+ method(type): type" style="text;strokeColor=none;fillColor=none;align=left;verticalAlign=top;spacingLeft=4;spacingRight=4;overflow=hidden;rotatable=0;points=[[0,0.5],[1,0.5]];portConstraint=eastwest;" parent="Po-gdq_EGbqkl6x_ksfB-22" vertex="1">
          <mxGeometry y="60" width="160" height="26" as="geometry" />
        </mxCell>
        <mxCell id="Po-gdq_EGbqkl6x_ksfB-26" value="CategoryRepository" style="swimlane;fontStyle=1;align=center;verticalAlign=top;childLayout=stackLayout;horizontal=1;startSize=26;horizontalStack=0;resizeParent=1;resizeParentMax=0;resizeLast=0;collapsible=1;marginBottom=0;fillColor=#fa6800;fontColor=#000000;strokeColor=#C73500;" parent="1" vertex="1" collapsed="1">
          <mxGeometry x="260" y="180" width="160" height="30" as="geometry">
            <mxRectangle x="260" y="180" width="160" height="86" as="alternateBounds" />
          </mxGeometry>
        </mxCell>
        <mxCell id="Po-gdq_EGbqkl6x_ksfB-27" value="+ field: type" style="text;strokeColor=none;fillColor=none;align=left;verticalAlign=top;spacingLeft=4;spacingRight=4;overflow=hidden;rotatable=0;points=[[0,0.5],[1,0.5]];portConstraint=eastwest;" parent="Po-gdq_EGbqkl6x_ksfB-26" vertex="1">
          <mxGeometry y="26" width="160" height="26" as="geometry" />
        </mxCell>
        <mxCell id="Po-gdq_EGbqkl6x_ksfB-28" value="" style="line;strokeWidth=1;fillColor=none;align=left;verticalAlign=middle;spacingTop=-1;spacingLeft=3;spacingRight=3;rotatable=0;labelPosition=right;points=[];portConstraint=eastwest;strokeColor=inherit;" parent="Po-gdq_EGbqkl6x_ksfB-26" vertex="1">
          <mxGeometry y="52" width="160" height="8" as="geometry" />
        </mxCell>
        <mxCell id="Po-gdq_EGbqkl6x_ksfB-29" value="+ method(type): type" style="text;strokeColor=none;fillColor=none;align=left;verticalAlign=top;spacingLeft=4;spacingRight=4;overflow=hidden;rotatable=0;points=[[0,0.5],[1,0.5]];portConstraint=eastwest;" parent="Po-gdq_EGbqkl6x_ksfB-26" vertex="1">
          <mxGeometry y="60" width="160" height="26" as="geometry" />
        </mxCell>
        <mxCell id="Po-gdq_EGbqkl6x_ksfB-34" value="CustomerRepository" style="swimlane;fontStyle=1;align=center;verticalAlign=top;childLayout=stackLayout;horizontal=1;startSize=26;horizontalStack=0;resizeParent=1;resizeParentMax=0;resizeLast=0;collapsible=1;marginBottom=0;fillColor=#fa6800;fontColor=#000000;strokeColor=#C73500;" parent="1" vertex="1" collapsed="1">
          <mxGeometry x="445" y="180" width="160" height="30" as="geometry">
            <mxRectangle x="445" y="180" width="160" height="86" as="alternateBounds" />
          </mxGeometry>
        </mxCell>
        <mxCell id="Po-gdq_EGbqkl6x_ksfB-35" value="+ field: type" style="text;strokeColor=none;fillColor=none;align=left;verticalAlign=top;spacingLeft=4;spacingRight=4;overflow=hidden;rotatable=0;points=[[0,0.5],[1,0.5]];portConstraint=eastwest;" parent="Po-gdq_EGbqkl6x_ksfB-34" vertex="1">
          <mxGeometry y="26" width="160" height="26" as="geometry" />
        </mxCell>
        <mxCell id="Po-gdq_EGbqkl6x_ksfB-36" value="" style="line;strokeWidth=1;fillColor=none;align=left;verticalAlign=middle;spacingTop=-1;spacingLeft=3;spacingRight=3;rotatable=0;labelPosition=right;points=[];portConstraint=eastwest;strokeColor=inherit;" parent="Po-gdq_EGbqkl6x_ksfB-34" vertex="1">
          <mxGeometry y="52" width="160" height="8" as="geometry" />
        </mxCell>
        <mxCell id="Po-gdq_EGbqkl6x_ksfB-37" value="+ method(type): type" style="text;strokeColor=none;fillColor=none;align=left;verticalAlign=top;spacingLeft=4;spacingRight=4;overflow=hidden;rotatable=0;points=[[0,0.5],[1,0.5]];portConstraint=eastwest;" parent="Po-gdq_EGbqkl6x_ksfB-34" vertex="1">
          <mxGeometry y="60" width="160" height="26" as="geometry" />
        </mxCell>
        <mxCell id="Po-gdq_EGbqkl6x_ksfB-38" value="AddressRepository" style="swimlane;fontStyle=1;align=center;verticalAlign=top;childLayout=stackLayout;horizontal=1;startSize=26;horizontalStack=0;resizeParent=1;resizeParentMax=0;resizeLast=0;collapsible=1;marginBottom=0;fillColor=#fa6800;fontColor=#000000;strokeColor=#C73500;" parent="1" vertex="1" collapsed="1">
          <mxGeometry x="635" y="180" width="150" height="30" as="geometry">
            <mxRectangle x="635" y="180" width="160" height="86" as="alternateBounds" />
          </mxGeometry>
        </mxCell>
        <mxCell id="Po-gdq_EGbqkl6x_ksfB-39" value="+ field: type" style="text;strokeColor=none;fillColor=none;align=left;verticalAlign=top;spacingLeft=4;spacingRight=4;overflow=hidden;rotatable=0;points=[[0,0.5],[1,0.5]];portConstraint=eastwest;" parent="Po-gdq_EGbqkl6x_ksfB-38" vertex="1">
          <mxGeometry y="26" width="160" height="26" as="geometry" />
        </mxCell>
        <mxCell id="Po-gdq_EGbqkl6x_ksfB-40" value="" style="line;strokeWidth=1;fillColor=none;align=left;verticalAlign=middle;spacingTop=-1;spacingLeft=3;spacingRight=3;rotatable=0;labelPosition=right;points=[];portConstraint=eastwest;strokeColor=inherit;" parent="Po-gdq_EGbqkl6x_ksfB-38" vertex="1">
          <mxGeometry y="52" width="160" height="8" as="geometry" />
        </mxCell>
        <mxCell id="Po-gdq_EGbqkl6x_ksfB-41" value="+ method(type): type" style="text;strokeColor=none;fillColor=none;align=left;verticalAlign=top;spacingLeft=4;spacingRight=4;overflow=hidden;rotatable=0;points=[[0,0.5],[1,0.5]];portConstraint=eastwest;" parent="Po-gdq_EGbqkl6x_ksfB-38" vertex="1">
          <mxGeometry y="60" width="160" height="26" as="geometry" />
        </mxCell>
        <mxCell id="0cSKUVdbap9a6mtGNdF7-1" value="ProductCategoryRepository" style="swimlane;fontStyle=1;align=center;verticalAlign=top;childLayout=stackLayout;horizontal=1;startSize=26;horizontalStack=0;resizeParent=1;resizeParentMax=0;resizeLast=0;collapsible=1;marginBottom=0;fillColor=#fa6800;fontColor=#000000;strokeColor=#C73500;" parent="1" vertex="1" collapsed="1">
          <mxGeometry x="105" y="70" width="200" height="30" as="geometry">
            <mxRectangle x="105" y="70" width="190" height="86" as="alternateBounds" />
          </mxGeometry>
        </mxCell>
        <mxCell id="0cSKUVdbap9a6mtGNdF7-2" value="+ field: type" style="text;strokeColor=none;fillColor=none;align=left;verticalAlign=top;spacingLeft=4;spacingRight=4;overflow=hidden;rotatable=0;points=[[0,0.5],[1,0.5]];portConstraint=eastwest;" parent="0cSKUVdbap9a6mtGNdF7-1" vertex="1">
          <mxGeometry y="26" width="190" height="26" as="geometry" />
        </mxCell>
        <mxCell id="0cSKUVdbap9a6mtGNdF7-3" value="" style="line;strokeWidth=1;fillColor=none;align=left;verticalAlign=middle;spacingTop=-1;spacingLeft=3;spacingRight=3;rotatable=0;labelPosition=right;points=[];portConstraint=eastwest;strokeColor=inherit;" parent="0cSKUVdbap9a6mtGNdF7-1" vertex="1">
          <mxGeometry y="52" width="190" height="8" as="geometry" />
        </mxCell>
        <mxCell id="0cSKUVdbap9a6mtGNdF7-4" value="+ method(type): type" style="text;strokeColor=none;fillColor=none;align=left;verticalAlign=top;spacingLeft=4;spacingRight=4;overflow=hidden;rotatable=0;points=[[0,0.5],[1,0.5]];portConstraint=eastwest;" parent="0cSKUVdbap9a6mtGNdF7-1" vertex="1">
          <mxGeometry y="60" width="190" height="26" as="geometry" />
        </mxCell>
        <mxCell id="C4cv7MqBjcdaBhlB7jfd-1" value="CustomerAddressRepository" style="swimlane;fontStyle=1;align=center;verticalAlign=top;childLayout=stackLayout;horizontal=1;startSize=26;horizontalStack=0;resizeParent=1;resizeParentMax=0;resizeLast=0;collapsible=1;marginBottom=0;fillColor=#fa6800;fontColor=#000000;strokeColor=#C73500;" parent="1" vertex="1" collapsed="1">
          <mxGeometry x="340" y="70" width="210" height="30" as="geometry">
            <mxRectangle x="340" y="70" width="190" height="86" as="alternateBounds" />
          </mxGeometry>
        </mxCell>
        <mxCell id="C4cv7MqBjcdaBhlB7jfd-2" value="+ field: type" style="text;strokeColor=none;fillColor=none;align=left;verticalAlign=top;spacingLeft=4;spacingRight=4;overflow=hidden;rotatable=0;points=[[0,0.5],[1,0.5]];portConstraint=eastwest;" parent="C4cv7MqBjcdaBhlB7jfd-1" vertex="1">
          <mxGeometry y="26" width="190" height="26" as="geometry" />
        </mxCell>
        <mxCell id="C4cv7MqBjcdaBhlB7jfd-3" value="" style="line;strokeWidth=1;fillColor=none;align=left;verticalAlign=middle;spacingTop=-1;spacingLeft=3;spacingRight=3;rotatable=0;labelPosition=right;points=[];portConstraint=eastwest;strokeColor=inherit;" parent="C4cv7MqBjcdaBhlB7jfd-1" vertex="1">
          <mxGeometry y="52" width="190" height="8" as="geometry" />
        </mxCell>
        <mxCell id="C4cv7MqBjcdaBhlB7jfd-4" value="+ method(type): type" style="text;strokeColor=none;fillColor=none;align=left;verticalAlign=top;spacingLeft=4;spacingRight=4;overflow=hidden;rotatable=0;points=[[0,0.5],[1,0.5]];portConstraint=eastwest;" parent="C4cv7MqBjcdaBhlB7jfd-1" vertex="1">
          <mxGeometry y="60" width="190" height="26" as="geometry" />
        </mxCell>
        <mxCell id="SpVf_0JzvHnMCGoNgbIx-1" value="CartRepository" style="swimlane;fontStyle=1;align=center;verticalAlign=top;childLayout=stackLayout;horizontal=1;startSize=26;horizontalStack=0;resizeParent=1;resizeParentMax=0;resizeLast=0;collapsible=1;marginBottom=0;fillColor=#fa6800;fontColor=#000000;strokeColor=#C73500;" parent="1" vertex="1" collapsed="1">
          <mxGeometry x="570" y="70" width="130" height="30" as="geometry">
            <mxRectangle x="570" y="70" width="190" height="86" as="alternateBounds" />
          </mxGeometry>
        </mxCell>
        <mxCell id="SpVf_0JzvHnMCGoNgbIx-2" value="+ field: type" style="text;strokeColor=none;fillColor=none;align=left;verticalAlign=top;spacingLeft=4;spacingRight=4;overflow=hidden;rotatable=0;points=[[0,0.5],[1,0.5]];portConstraint=eastwest;" parent="SpVf_0JzvHnMCGoNgbIx-1" vertex="1">
          <mxGeometry y="26" width="190" height="26" as="geometry" />
        </mxCell>
        <mxCell id="SpVf_0JzvHnMCGoNgbIx-3" value="" style="line;strokeWidth=1;fillColor=none;align=left;verticalAlign=middle;spacingTop=-1;spacingLeft=3;spacingRight=3;rotatable=0;labelPosition=right;points=[];portConstraint=eastwest;strokeColor=inherit;" parent="SpVf_0JzvHnMCGoNgbIx-1" vertex="1">
          <mxGeometry y="52" width="190" height="8" as="geometry" />
        </mxCell>
        <mxCell id="SpVf_0JzvHnMCGoNgbIx-4" value="+ method(type): type" style="text;strokeColor=none;fillColor=none;align=left;verticalAlign=top;spacingLeft=4;spacingRight=4;overflow=hidden;rotatable=0;points=[[0,0.5],[1,0.5]];portConstraint=eastwest;" parent="SpVf_0JzvHnMCGoNgbIx-1" vertex="1">
          <mxGeometry y="60" width="190" height="26" as="geometry" />
        </mxCell>
        <mxCell id="SpVf_0JzvHnMCGoNgbIx-5" value="ProductModel" style="swimlane;fontStyle=1;align=center;verticalAlign=top;childLayout=stackLayout;horizontal=1;startSize=26;horizontalStack=0;resizeParent=1;resizeParentMax=0;resizeLast=0;collapsible=1;marginBottom=0;fillColor=#fa6800;fontColor=#000000;strokeColor=#C73500;" parent="1" vertex="1">
          <mxGeometry x="70" y="545" width="160" height="86" as="geometry" />
        </mxCell>
        <mxCell id="SpVf_0JzvHnMCGoNgbIx-6" value="+ field: type" style="text;strokeColor=none;fillColor=none;align=left;verticalAlign=top;spacingLeft=4;spacingRight=4;overflow=hidden;rotatable=0;points=[[0,0.5],[1,0.5]];portConstraint=eastwest;" parent="SpVf_0JzvHnMCGoNgbIx-5" vertex="1">
          <mxGeometry y="26" width="160" height="26" as="geometry" />
        </mxCell>
        <mxCell id="SpVf_0JzvHnMCGoNgbIx-7" value="" style="line;strokeWidth=1;fillColor=none;align=left;verticalAlign=middle;spacingTop=-1;spacingLeft=3;spacingRight=3;rotatable=0;labelPosition=right;points=[];portConstraint=eastwest;strokeColor=inherit;" parent="SpVf_0JzvHnMCGoNgbIx-5" vertex="1">
          <mxGeometry y="52" width="160" height="8" as="geometry" />
        </mxCell>
        <mxCell id="SpVf_0JzvHnMCGoNgbIx-8" value="+ method(type): type" style="text;strokeColor=none;fillColor=none;align=left;verticalAlign=top;spacingLeft=4;spacingRight=4;overflow=hidden;rotatable=0;points=[[0,0.5],[1,0.5]];portConstraint=eastwest;" parent="SpVf_0JzvHnMCGoNgbIx-5" vertex="1">
          <mxGeometry y="60" width="160" height="26" as="geometry" />
        </mxCell>
        <mxCell id="SpVf_0JzvHnMCGoNgbIx-9" value="CategoryModel" style="swimlane;fontStyle=1;align=center;verticalAlign=top;childLayout=stackLayout;horizontal=1;startSize=26;horizontalStack=0;resizeParent=1;resizeParentMax=0;resizeLast=0;collapsible=1;marginBottom=0;fillColor=#fa6800;fontColor=#000000;strokeColor=#C73500;" parent="1" vertex="1">
          <mxGeometry x="260" y="545" width="160" height="86" as="geometry" />
        </mxCell>
        <mxCell id="SpVf_0JzvHnMCGoNgbIx-10" value="+ field: type" style="text;strokeColor=none;fillColor=none;align=left;verticalAlign=top;spacingLeft=4;spacingRight=4;overflow=hidden;rotatable=0;points=[[0,0.5],[1,0.5]];portConstraint=eastwest;" parent="SpVf_0JzvHnMCGoNgbIx-9" vertex="1">
          <mxGeometry y="26" width="160" height="26" as="geometry" />
        </mxCell>
        <mxCell id="SpVf_0JzvHnMCGoNgbIx-11" value="" style="line;strokeWidth=1;fillColor=none;align=left;verticalAlign=middle;spacingTop=-1;spacingLeft=3;spacingRight=3;rotatable=0;labelPosition=right;points=[];portConstraint=eastwest;strokeColor=inherit;" parent="SpVf_0JzvHnMCGoNgbIx-9" vertex="1">
          <mxGeometry y="52" width="160" height="8" as="geometry" />
        </mxCell>
        <mxCell id="SpVf_0JzvHnMCGoNgbIx-12" value="+ method(type): type" style="text;strokeColor=none;fillColor=none;align=left;verticalAlign=top;spacingLeft=4;spacingRight=4;overflow=hidden;rotatable=0;points=[[0,0.5],[1,0.5]];portConstraint=eastwest;" parent="SpVf_0JzvHnMCGoNgbIx-9" vertex="1">
          <mxGeometry y="60" width="160" height="26" as="geometry" />
        </mxCell>
        <mxCell id="SpVf_0JzvHnMCGoNgbIx-17" value="CustomerModel" style="swimlane;fontStyle=1;align=center;verticalAlign=top;childLayout=stackLayout;horizontal=1;startSize=26;horizontalStack=0;resizeParent=1;resizeParentMax=0;resizeLast=0;collapsible=1;marginBottom=0;fillColor=#fa6800;fontColor=#000000;strokeColor=#C73500;" parent="1" vertex="1">
          <mxGeometry x="445" y="545" width="160" height="86" as="geometry" />
        </mxCell>
        <mxCell id="SpVf_0JzvHnMCGoNgbIx-18" value="+ field: type" style="text;strokeColor=none;fillColor=none;align=left;verticalAlign=top;spacingLeft=4;spacingRight=4;overflow=hidden;rotatable=0;points=[[0,0.5],[1,0.5]];portConstraint=eastwest;" parent="SpVf_0JzvHnMCGoNgbIx-17" vertex="1">
          <mxGeometry y="26" width="160" height="26" as="geometry" />
        </mxCell>
        <mxCell id="SpVf_0JzvHnMCGoNgbIx-19" value="" style="line;strokeWidth=1;fillColor=none;align=left;verticalAlign=middle;spacingTop=-1;spacingLeft=3;spacingRight=3;rotatable=0;labelPosition=right;points=[];portConstraint=eastwest;strokeColor=inherit;" parent="SpVf_0JzvHnMCGoNgbIx-17" vertex="1">
          <mxGeometry y="52" width="160" height="8" as="geometry" />
        </mxCell>
        <mxCell id="SpVf_0JzvHnMCGoNgbIx-20" value="+ method(type): type" style="text;strokeColor=none;fillColor=none;align=left;verticalAlign=top;spacingLeft=4;spacingRight=4;overflow=hidden;rotatable=0;points=[[0,0.5],[1,0.5]];portConstraint=eastwest;" parent="SpVf_0JzvHnMCGoNgbIx-17" vertex="1">
          <mxGeometry y="60" width="160" height="26" as="geometry" />
        </mxCell>
        <mxCell id="SpVf_0JzvHnMCGoNgbIx-21" value="AddressModel" style="swimlane;fontStyle=1;align=center;verticalAlign=top;childLayout=stackLayout;horizontal=1;startSize=26;horizontalStack=0;resizeParent=1;resizeParentMax=0;resizeLast=0;collapsible=1;marginBottom=0;fillColor=#fa6800;fontColor=#000000;strokeColor=#C73500;" parent="1" vertex="1">
          <mxGeometry x="635" y="545" width="160" height="86" as="geometry" />
        </mxCell>
        <mxCell id="SpVf_0JzvHnMCGoNgbIx-22" value="+ field: type" style="text;strokeColor=none;fillColor=none;align=left;verticalAlign=top;spacingLeft=4;spacingRight=4;overflow=hidden;rotatable=0;points=[[0,0.5],[1,0.5]];portConstraint=eastwest;" parent="SpVf_0JzvHnMCGoNgbIx-21" vertex="1">
          <mxGeometry y="26" width="160" height="26" as="geometry" />
        </mxCell>
        <mxCell id="SpVf_0JzvHnMCGoNgbIx-23" value="" style="line;strokeWidth=1;fillColor=none;align=left;verticalAlign=middle;spacingTop=-1;spacingLeft=3;spacingRight=3;rotatable=0;labelPosition=right;points=[];portConstraint=eastwest;strokeColor=inherit;" parent="SpVf_0JzvHnMCGoNgbIx-21" vertex="1">
          <mxGeometry y="52" width="160" height="8" as="geometry" />
        </mxCell>
        <mxCell id="SpVf_0JzvHnMCGoNgbIx-24" value="+ method(type): type" style="text;strokeColor=none;fillColor=none;align=left;verticalAlign=top;spacingLeft=4;spacingRight=4;overflow=hidden;rotatable=0;points=[[0,0.5],[1,0.5]];portConstraint=eastwest;" parent="SpVf_0JzvHnMCGoNgbIx-21" vertex="1">
          <mxGeometry y="60" width="160" height="26" as="geometry" />
        </mxCell>
        <mxCell id="SpVf_0JzvHnMCGoNgbIx-25" value="ProductService" style="swimlane;fontStyle=1;align=center;verticalAlign=top;childLayout=stackLayout;horizontal=1;startSize=26;horizontalStack=0;resizeParent=1;resizeParentMax=0;resizeLast=0;collapsible=1;marginBottom=0;fillColor=#fa6800;fontColor=#000000;strokeColor=#C73500;" parent="1" vertex="1">
          <mxGeometry x="70" y="425" width="160" height="86" as="geometry">
            <mxRectangle x="70" y="425" width="130" height="30" as="alternateBounds" />
          </mxGeometry>
        </mxCell>
        <mxCell id="SpVf_0JzvHnMCGoNgbIx-26" value="+ field: type" style="text;strokeColor=none;fillColor=none;align=left;verticalAlign=top;spacingLeft=4;spacingRight=4;overflow=hidden;rotatable=0;points=[[0,0.5],[1,0.5]];portConstraint=eastwest;" parent="SpVf_0JzvHnMCGoNgbIx-25" vertex="1">
          <mxGeometry y="26" width="160" height="26" as="geometry" />
        </mxCell>
        <mxCell id="SpVf_0JzvHnMCGoNgbIx-27" value="" style="line;strokeWidth=1;fillColor=none;align=left;verticalAlign=middle;spacingTop=-1;spacingLeft=3;spacingRight=3;rotatable=0;labelPosition=right;points=[];portConstraint=eastwest;strokeColor=inherit;" parent="SpVf_0JzvHnMCGoNgbIx-25" vertex="1">
          <mxGeometry y="52" width="160" height="8" as="geometry" />
        </mxCell>
        <mxCell id="SpVf_0JzvHnMCGoNgbIx-28" value="+ method(type): type" style="text;strokeColor=none;fillColor=none;align=left;verticalAlign=top;spacingLeft=4;spacingRight=4;overflow=hidden;rotatable=0;points=[[0,0.5],[1,0.5]];portConstraint=eastwest;" parent="SpVf_0JzvHnMCGoNgbIx-25" vertex="1">
          <mxGeometry y="60" width="160" height="26" as="geometry" />
        </mxCell>
        <mxCell id="SpVf_0JzvHnMCGoNgbIx-29" value="CategoryService" style="swimlane;fontStyle=1;align=center;verticalAlign=top;childLayout=stackLayout;horizontal=1;startSize=26;horizontalStack=0;resizeParent=1;resizeParentMax=0;resizeLast=0;collapsible=1;marginBottom=0;fillColor=#fa6800;fontColor=#000000;strokeColor=#C73500;" parent="1" vertex="1">
          <mxGeometry x="260" y="425" width="160" height="86" as="geometry" />
        </mxCell>
        <mxCell id="SpVf_0JzvHnMCGoNgbIx-30" value="+ field: type" style="text;strokeColor=none;fillColor=none;align=left;verticalAlign=top;spacingLeft=4;spacingRight=4;overflow=hidden;rotatable=0;points=[[0,0.5],[1,0.5]];portConstraint=eastwest;" parent="SpVf_0JzvHnMCGoNgbIx-29" vertex="1">
          <mxGeometry y="26" width="160" height="26" as="geometry" />
        </mxCell>
        <mxCell id="SpVf_0JzvHnMCGoNgbIx-31" value="" style="line;strokeWidth=1;fillColor=none;align=left;verticalAlign=middle;spacingTop=-1;spacingLeft=3;spacingRight=3;rotatable=0;labelPosition=right;points=[];portConstraint=eastwest;strokeColor=inherit;" parent="SpVf_0JzvHnMCGoNgbIx-29" vertex="1">
          <mxGeometry y="52" width="160" height="8" as="geometry" />
        </mxCell>
        <mxCell id="SpVf_0JzvHnMCGoNgbIx-32" value="+ method(type): type" style="text;strokeColor=none;fillColor=none;align=left;verticalAlign=top;spacingLeft=4;spacingRight=4;overflow=hidden;rotatable=0;points=[[0,0.5],[1,0.5]];portConstraint=eastwest;" parent="SpVf_0JzvHnMCGoNgbIx-29" vertex="1">
          <mxGeometry y="60" width="160" height="26" as="geometry" />
        </mxCell>
        <mxCell id="SpVf_0JzvHnMCGoNgbIx-37" value="CustomerService" style="swimlane;fontStyle=1;align=center;verticalAlign=top;childLayout=stackLayout;horizontal=1;startSize=26;horizontalStack=0;resizeParent=1;resizeParentMax=0;resizeLast=0;collapsible=1;marginBottom=0;fillColor=#fa6800;fontColor=#000000;strokeColor=#C73500;" parent="1" vertex="1">
          <mxGeometry x="445" y="425" width="160" height="86" as="geometry" />
        </mxCell>
        <mxCell id="SpVf_0JzvHnMCGoNgbIx-38" value="+ field: type" style="text;strokeColor=none;fillColor=none;align=left;verticalAlign=top;spacingLeft=4;spacingRight=4;overflow=hidden;rotatable=0;points=[[0,0.5],[1,0.5]];portConstraint=eastwest;" parent="SpVf_0JzvHnMCGoNgbIx-37" vertex="1">
          <mxGeometry y="26" width="160" height="26" as="geometry" />
        </mxCell>
        <mxCell id="SpVf_0JzvHnMCGoNgbIx-39" value="" style="line;strokeWidth=1;fillColor=none;align=left;verticalAlign=middle;spacingTop=-1;spacingLeft=3;spacingRight=3;rotatable=0;labelPosition=right;points=[];portConstraint=eastwest;strokeColor=inherit;" parent="SpVf_0JzvHnMCGoNgbIx-37" vertex="1">
          <mxGeometry y="52" width="160" height="8" as="geometry" />
        </mxCell>
        <mxCell id="SpVf_0JzvHnMCGoNgbIx-40" value="+ method(type): type" style="text;strokeColor=none;fillColor=none;align=left;verticalAlign=top;spacingLeft=4;spacingRight=4;overflow=hidden;rotatable=0;points=[[0,0.5],[1,0.5]];portConstraint=eastwest;" parent="SpVf_0JzvHnMCGoNgbIx-37" vertex="1">
          <mxGeometry y="60" width="160" height="26" as="geometry" />
        </mxCell>
        <mxCell id="SpVf_0JzvHnMCGoNgbIx-41" value="AddressService" style="swimlane;fontStyle=1;align=center;verticalAlign=top;childLayout=stackLayout;horizontal=1;startSize=26;horizontalStack=0;resizeParent=1;resizeParentMax=0;resizeLast=0;collapsible=1;marginBottom=0;fillColor=#fa6800;fontColor=#000000;strokeColor=#C73500;" parent="1" vertex="1">
          <mxGeometry x="635" y="425" width="160" height="86" as="geometry" />
        </mxCell>
        <mxCell id="SpVf_0JzvHnMCGoNgbIx-42" value="+ field: type" style="text;strokeColor=none;fillColor=none;align=left;verticalAlign=top;spacingLeft=4;spacingRight=4;overflow=hidden;rotatable=0;points=[[0,0.5],[1,0.5]];portConstraint=eastwest;" parent="SpVf_0JzvHnMCGoNgbIx-41" vertex="1">
          <mxGeometry y="26" width="160" height="26" as="geometry" />
        </mxCell>
        <mxCell id="SpVf_0JzvHnMCGoNgbIx-43" value="" style="line;strokeWidth=1;fillColor=none;align=left;verticalAlign=middle;spacingTop=-1;spacingLeft=3;spacingRight=3;rotatable=0;labelPosition=right;points=[];portConstraint=eastwest;strokeColor=inherit;" parent="SpVf_0JzvHnMCGoNgbIx-41" vertex="1">
          <mxGeometry y="52" width="160" height="8" as="geometry" />
        </mxCell>
        <mxCell id="SpVf_0JzvHnMCGoNgbIx-44" value="+ method(type): type" style="text;strokeColor=none;fillColor=none;align=left;verticalAlign=top;spacingLeft=4;spacingRight=4;overflow=hidden;rotatable=0;points=[[0,0.5],[1,0.5]];portConstraint=eastwest;" parent="SpVf_0JzvHnMCGoNgbIx-41" vertex="1">
          <mxGeometry y="60" width="160" height="26" as="geometry" />
        </mxCell>
      </root>
    </mxGraphModel>
  </diagram>
  <diagram id="duZcMin6mFH3weEJxEE_" name="Usecase Hội viên">
    <mxGraphModel dx="1050" dy="541" grid="1" gridSize="10" guides="1" tooltips="1" connect="1" arrows="1" fold="1" page="1" pageScale="1" pageWidth="850" pageHeight="1100" math="0" shadow="0">
      <root>
        <mxCell id="0" />
        <mxCell id="1" parent="0" />
        <mxCell id="1Yn7DR6WwlaauFQZ17hC-1" value="Hội viên" style="shape=umlActor;verticalLabelPosition=bottom;verticalAlign=top;html=1;outlineConnect=0;" parent="1" vertex="1">
          <mxGeometry x="120" y="290" width="30" height="60" as="geometry" />
        </mxCell>
        <mxCell id="GnszEYy1p4yBU58ejekf-4" value="" style="rounded=0;whiteSpace=wrap;html=1;" parent="1" vertex="1">
          <mxGeometry x="200" y="120" width="720" height="400" as="geometry" />
        </mxCell>
        <mxCell id="GnszEYy1p4yBU58ejekf-5" value="Xem sản phẩm" style="ellipse;whiteSpace=wrap;html=1;" parent="1" vertex="1">
          <mxGeometry x="220" y="140" width="120" height="80" as="geometry" />
        </mxCell>
        <mxCell id="GnszEYy1p4yBU58ejekf-6" value="Tìm kiếm sản phẩm" style="ellipse;whiteSpace=wrap;html=1;" parent="1" vertex="1">
          <mxGeometry x="220" y="320" width="120" height="80" as="geometry" />
        </mxCell>
        <mxCell id="GnszEYy1p4yBU58ejekf-7" value="Xem sản phẩm theo từng danh mục" style="ellipse;whiteSpace=wrap;html=1;" parent="1" vertex="1">
          <mxGeometry x="425" y="140" width="120" height="80" as="geometry" />
        </mxCell>
        <mxCell id="GnszEYy1p4yBU58ejekf-8" value="Đặt mua sản phẩm" style="ellipse;whiteSpace=wrap;html=1;" parent="1" vertex="1">
          <mxGeometry x="220" y="230" width="120" height="80" as="geometry" />
        </mxCell>
        <mxCell id="GnszEYy1p4yBU58ejekf-9" value="Xem sản phẩm trong giỏ hàng" style="ellipse;whiteSpace=wrap;html=1;" parent="1" vertex="1">
          <mxGeometry x="425" y="230" width="120" height="80" as="geometry" />
        </mxCell>
      </root>
    </mxGraphModel>
  </diagram>
  <diagram id="A-H0UHszjdaqDZ3l6FMJ" name="Usecase Admin">
    <mxGraphModel dx="1050" dy="541" grid="1" gridSize="10" guides="1" tooltips="1" connect="1" arrows="1" fold="1" page="1" pageScale="1" pageWidth="850" pageHeight="1100" math="0" shadow="0">
      <root>
        <mxCell id="0" />
        <mxCell id="1" parent="0" />
        <mxCell id="_xhLjnTSorfb0Iv0l2mJ-1" value="Admin" style="shape=umlActor;verticalLabelPosition=bottom;verticalAlign=top;html=1;outlineConnect=0;" parent="1" vertex="1">
          <mxGeometry x="80" y="360" width="30" height="60" as="geometry" />
        </mxCell>
      </root>
    </mxGraphModel>
  </diagram>
</mxfile>
